  0
SECTION
  2
HEADER
  9
$ACADVER
  1
AC1014
  9
$ACADMAINTVER
 70
     9
  9
$DWGCODEPAGE
  3
ANSI_1252
  9
$INSBASE
 10
0.0
 20
0.0
 30
0.0
  9
$EXTMIN
 10
1.000000000000000E+20
 20
1.000000000000000E+20
 30
1.000000000000000E+20
  9
$EXTMAX
 10
-1.000000000000000E+20
 20
-1.000000000000000E+20
 30
-1.000000000000000E+20
  9
$LIMMIN
 10
0.0
 20
0.0
  9
$LIMMAX
 10
12.0
 20
9.0
  9
$ORTHOMODE
 70
     0
  9
$REGENMODE
 70
     1
  9
$FILLMODE
 70
     1
  9
$QTEXTMODE
 70
     0
  9
$MIRRTEXT
 70
     1
  9
$DRAGMODE
 70
     2
  9
$LTSCALE
 40
1.0
  9
$OSMODE
 70
    37
  9
$ATTMODE
 70
     1
  9
$TEXTSIZE
 40
0.2
  9
$TRACEWID
 40
0.05
  9
$TEXTSTYLE
  7
STANDARD
  9
$CLAYER
  8
0
  9
$CELTYPE
  6
BYLAYER
  9
$CECOLOR
 62
   256
  9
$CELTSCALE
 40
1.0
  9
$DELOBJ
 70
     1
  9
$DISPSILH
 70
     0
  9
$DIMSCALE
 40
1.0
  9
$DIMASZ
 40
0.18
  9
$DIMEXO
 40
0.0625
  9
$DIMDLI
 40
0.38
  9
$DIMRND
 40
0.0
  9
$DIMDLE
 40
0.0
  9
$DIMEXE
 40
0.18
  9
$DIMTP
 40
0.0
  9
$DIMTM
 40
0.0
  9
$DIMTXT
 40
0.18
  9
$DIMCEN
 40
0.09
  9
$DIMTSZ
 40
0.0
  9
$DIMTOL
 70
     0
  9
$DIMLIM
 70
     0
  9
$DIMTIH
 70
     1
  9
$DIMTOH
 70
     1
  9
$DIMSE1
 70
     0
  9
$DIMSE2
 70
     0
  9
$DIMTAD
 70
     0
  9
$DIMZIN
 70
     0
  9
$DIMBLK
  1

  9
$DIMASO
 70
     1
  9
$DIMSHO
 70
     1
  9
$DIMPOST
  1

  9
$DIMAPOST
  1

  9
$DIMALT
 70
     0
  9
$DIMALTD
 70
     2
  9
$DIMALTF
 40
25.4
  9
$DIMLFAC
 40
1.0
  9
$DIMTOFL
 70
     0
  9
$DIMTVP
 40
0.0
  9
$DIMTIX
 70
     0
  9
$DIMSOXD
 70
     0
  9
$DIMSAH
 70
     0
  9
$DIMBLK1
  1

  9
$DIMBLK2
  1

  9
$DIMSTYLE
  2
STANDARD
  9
$DIMCLRD
 70
     0
  9
$DIMCLRE
 70
     0
  9
$DIMCLRT
 70
     0
  9
$DIMTFAC
 40
1.0
  9
$DIMGAP
 40
0.09
  9
$DIMJUST
 70
     0
  9
$DIMSD1
 70
     0
  9
$DIMSD2
 70
     0
  9
$DIMTOLJ
 70
     1
  9
$DIMTZIN
 70
     0
  9
$DIMALTZ
 70
     0
  9
$DIMALTTZ
 70
     0
  9
$DIMFIT
 70
     3
  9
$DIMUPT
 70
     0
  9
$DIMUNIT
 70
     2
  9
$DIMDEC
 70
     4
  9
$DIMTDEC
 70
     4
  9
$DIMALTU
 70
     2
  9
$DIMALTTD
 70
     2
  9
$DIMTXSTY
  7
STANDARD
  9
$DIMAUNIT
 70
     0
  9
$LUNITS
 70
     2
  9
$LUPREC
 70
     4
  9
$SKETCHINC
 40
0.1
  9
$FILLETRAD
 40
0.5
  9
$AUNITS
 70
     0
  9
$AUPREC
 70
     0
  9
$MENU
  1
.
  9
$ELEVATION
 40
0.0
  9
$PELEVATION
 40
0.0
  9
$THICKNESS
 40
0.0
  9
$LIMCHECK
 70
     0
  9
$CHAMFERA
 40
0.0
  9
$CHAMFERB
 40
0.0
  9
$CHAMFERC
 40
0.0
  9
$CHAMFERD
 40
0.0
  9
$SKPOLY
 70
     0
  9
$TDCREATE
 40
2460079.845115683
  9
$TDUPDATE
 40
2460079.845116956
  9
$TDINDWG
 40
0.0000000116
  9
$TDUSRTIMER
 40
0.0000000116
  9
$USRTIMER
 70
     1
  9
$ANGBASE
 50
0.0
  9
$ANGDIR
 70
     0
  9
$PDMODE
 70
     0
  9
$PDSIZE
 40
0.0
  9
$PLINEWID
 40
0.0
  9
$COORDS
 70
     1
  9
$SPLFRAME
 70
     0
  9
$SPLINETYPE
 70
     6
  9
$SPLINESEGS
 70
     8
  9
$ATTDIA
 70
     0
  9
$ATTREQ
 70
     1
  9
$HANDLING
 70
     1
  9
$HANDSEED
  5
3DB
  9
$SURFTAB1
 70
     6
  9
$SURFTAB2
 70
     6
  9
$SURFTYPE
 70
     6
  9
$SURFU
 70
     6
  9
$SURFV
 70
     6
  9
$UCSNAME
  2

  9
$UCSORG
 10
0.0
 20
0.0
 30
0.0
  9
$UCSXDIR
 10
1.0
 20
0.0
 30
0.0
  9
$UCSYDIR
 10
0.0
 20
1.0
 30
0.0
  9
$PUCSNAME
  2

  9
$PUCSORG
 10
0.0
 20
0.0
 30
0.0
  9
$PUCSXDIR
 10
1.0
 20
0.0
 30
0.0
  9
$PUCSYDIR
 10
0.0
 20
1.0
 30
0.0
  9
$USERI1
 70
     0
  9
$USERI2
 70
     0
  9
$USERI3
 70
     0
  9
$USERI4
 70
     0
  9
$USERI5
 70
     0
  9
$USERR1
 40
0.0
  9
$USERR2
 40
0.0
  9
$USERR3
 40
0.0
  9
$USERR4
 40
0.0
  9
$USERR5
 40
0.0
  9
$WORLDVIEW
 70
     1
  9
$SHADEDGE
 70
     3
  9
$SHADEDIF
 70
    70
  9
$TILEMODE
 70
     1
  9
$MAXACTVP
 70
    64
  9
$PINSBASE
 10
0.0
 20
0.0
 30
0.0
  9
$PLIMCHECK
 70
     0
  9
$PEXTMIN
 10
1.000000000000000E+20
 20
1.000000000000000E+20
 30
1.000000000000000E+20
  9
$PEXTMAX
 10
-1.000000000000000E+20
 20
-1.000000000000000E+20
 30
-1.000000000000000E+20
  9
$PLIMMIN
 10
0.0
 20
0.0
  9
$PLIMMAX
 10
12.0
 20
9.0
  9
$UNITMODE
 70
     0
  9
$VISRETAIN
 70
     1
  9
$PLINEGEN
 70
     0
  9
$PSLTSCALE
 70
     1
  9
$TREEDEPTH
 70
  3020
  9
$PICKSTYLE
 70
     1
  9
$CMLSTYLE
  2
STANDARD
  9
$CMLJUST
 70
     0
  9
$CMLSCALE
 40
1.0
  9
$PROXYGRAPHICS
 70
     1
  9
$MEASUREMENT
 70
     1
  0
ENDSEC
  0
SECTION
  2
CLASSES
  0
CLASS
  1
ACDBDICTIONARYWDFLT
  2
AcDbDictionaryWithDefault
  3
ObjectDBX Classes
 90
        0
280
     0
281
     0
  0
CLASS
  1
VISUALSTYLE
  2
AcDbVisualStyle
  3
ObjectDBX Classes
 90
     4095
280
     0
281
     0
  0
CLASS
  1
MATERIAL
  2
AcDbMaterial
  3
ObjectDBX Classes
 90
     1153
280
     0
281
     0
  0
CLASS
  1
SCALE
  2
AcDbScale
  3
ObjectDBX Classes
 90
     1153
280
     0
281
     0
  0
CLASS
  1
TABLESTYLE
  2
AcDbTableStyle
  3
ObjectDBX Classes
 90
     4095
280
     0
281
     0
  0
CLASS
  1
MLEADERSTYLE
  2
AcDbMLeaderStyle
  3
ACDB_MLEADERSTYLE_CLASS
 90
     4095
280
     0
281
     0
  0
CLASS
  1
SUN
  2
AcDbSun
  3
SCENEOE
 90
     1153
280
     0
281
     0
  0
CLASS
  1
DICTIONARYVAR
  2
AcDbDictionaryVar
  3
ObjectDBX Classes
 90
        0
280
     0
281
     0
  0
CLASS
  1
XRECORD
  2
AcDbXrecord
  3
ObjectDBX Classes
 90
        0
280
     0
281
     0
  0
CLASS
  1
LWPOLYLINE
  2
AcDbPolyline
  3
ObjectDBX Classes
 90
        0
280
     0
281
     1
  0
CLASS
  1
HATCH
  2
AcDbHatch
  3
ObjectDBX Classes
 90
        0
280
     0
281
     1
  0
CLASS
  1
ACDBPLACEHOLDER
  2
AcDbPlaceHolder
  3
ObjectDBX Classes
 90
        0
280
     0
281
     0
  0
CLASS
  1
LAYOUT
  2
AcDbLayout
  3
ObjectDBX Classes
 90
        0
280
     0
281
     0
  0
ENDSEC
  0
SECTION
  2
TABLES
  0
TABLE
  2
VPORT
  5
8
102
{ACAD_XDICTIONARY
360
3D0
102
}
330
0
100
AcDbSymbolTable
 70
     1
  0
VPORT
  5
29
330
8
100
AcDbSymbolTableRecord
100
AcDbViewportTableRecord
  2
*ACTIVE
 70
     0
 10
0.0
 20
0.0
 11
1.0
 21
1.0
 12
0.0
 22
0.0
 13
0.0
 23
0.0
 14
0.5
 24
0.5
 15
0.5
 25
0.5
 16
0.0
 26
0.0
 36
1.0
 17
0.0
 27
0.0
 37
-1000.0
 40
667.9311040870443
 41
1.633116883116884
 42
50.0
 43
941.5396868947562
 44
1178.710728426924
 50
0.0
 51
0.0
 71
     0
 72
   100
 73
     1
 74
     3
 75
     0
 76
     0
 77
     0
 78
     0
  0
ENDTAB
  0
TABLE
  2
LTYPE
  5
5
330
0
100
AcDbSymbolTable
 70
     1
  0
LTYPE
  5
14
330
5
100
AcDbSymbolTableRecord
100
AcDbLinetypeTableRecord
  2
BYBLOCK
 70
     0
  3

 72
    65
 73
     0
 40
0.0
  0
LTYPE
  5
15
330
5
100
AcDbSymbolTableRecord
100
AcDbLinetypeTableRecord
  2
BYLAYER
 70
     0
  3

 72
    65
 73
     0
 40
0.0
  0
LTYPE
  5
16
330
5
100
AcDbSymbolTableRecord
100
AcDbLinetypeTableRecord
  2
CONTINUOUS
 70
     0
  3
Solid line
 72
    65
 73
     0
 40
0.0
  0
ENDTAB
  0
TABLE
  2
LAYER
  5
2
330
0
100
AcDbSymbolTable
 70
     3
  0
LAYER
  5
10
330
2
100
AcDbSymbolTableRecord
100
AcDbLayerTableRecord
  2
0
 70
     0
 62
     7
  6
CONTINUOUS
  0
LAYER
  5
6E
330
2
100
AcDbSymbolTableRecord
100
AcDbLayerTableRecord
  2
PROFILEEDGES
 70
     0
 62
     7
  6
CONTINUOUS
  0
LAYER
  5
6F
330
2
100
AcDbSymbolTableRecord
100
AcDbLayerTableRecord
  2
SECTIONCUTEDGES
 70
     0
 62
     7
  6
CONTINUOUS
  0
ENDTAB
  0
TABLE
  2
STYLE
  5
3
330
0
100
AcDbSymbolTable
 70
     1
  0
STYLE
  5
11
330
3
100
AcDbSymbolTableRecord
100
AcDbTextStyleTableRecord
  2
STANDARD
 70
     0
 40
0.0
 41
1.0
 50
0.0
 71
     0
 42
0.2
  3
txt
  4

  0
ENDTAB
  0
TABLE
  2
VIEW
  5
6
330
0
100
AcDbSymbolTable
 70
     0
  0
ENDTAB
  0
TABLE
  2
UCS
  5
7
330
0
100
AcDbSymbolTable
 70
     0
  0
ENDTAB
  0
TABLE
  2
APPID
  5
9
330
0
100
AcDbSymbolTable
 70
     2
  0
APPID
  5
12
330
9
100
AcDbSymbolTableRecord
100
AcDbRegAppTableRecord
  2
ACAD
 70
     0
  0
APPID
  5
3DA
330
9
100
AcDbSymbolTableRecord
100
AcDbRegAppTableRecord
  2
ACAD_MLEADERVER
 70
     0
  0
ENDTAB
  0
TABLE
  2
DIMSTYLE
  5
A
330
0
100
AcDbSymbolTable
 70
     1
  0
DIMSTYLE
105
27
330
A
100
AcDbSymbolTableRecord
100
AcDbDimStyleTableRecord
  2
STANDARD
 70
     0
  3

  4

  5

  6

  7

 40
1.0
 41
0.18
 42
0.0625
 43
0.38
 44
0.18
 45
0.0
 46
0.0
 47
0.0
 48
0.0
140
0.18
141
0.09
142
0.0
143
25.4
144
1.0
145
0.0
146
1.0
147
0.09
 71
     0
 72
     0
 73
     1
 74
     1
 75
     0
 76
     0
 77
     0
 78
     0
170
     0
171
     2
172
     0
173
     0
174
     0
175
     0
176
     0
177
     0
178
     0
270
     2
271
     4
272
     4
273
     2
274
     2
340
11
275
     0
280
     0
281
     0
282
     0
283
     1
284
     0
285
     0
286
     0
287
     3
288
     0
  0
ENDTAB
  0
TABLE
  2
BLOCK_RECORD
  5
1
330
0
100
AcDbSymbolTable
 70
     1
  0
BLOCK_RECORD
  5
1F
330
1
100
AcDbSymbolTableRecord
100
AcDbBlockTableRecord
  2
*MODEL_SPACE
  0
BLOCK_RECORD
  5
1B
330
1
100
AcDbSymbolTableRecord
100
AcDbBlockTableRecord
  2
*PAPER_SPACE
  0
ENDTAB
  0
ENDSEC
  0
SECTION
  2
BLOCKS
  0
BLOCK
  5
20
330
1F
100
AcDbEntity
  8
0
100
AcDbBlockBegin
  2
*MODEL_SPACE
 70
     0
 10
0.0
 20
0.0
 30
0.0
  3
*MODEL_SPACE
  1

  0
ENDBLK
  5
21
330
1F
100
AcDbEntity
  8
0
100
AcDbBlockEnd
  0
BLOCK
  5
1C
330
1B
100
AcDbEntity
 67
     1
  8
0
100
AcDbBlockBegin
  2
*PAPER_SPACE
 70
     0
 10
0.0
 20
0.0
 30
0.0
  3
*PAPER_SPACE
  1

  0
ENDBLK
  5
1D
330
1B
100
AcDbEntity
 67
     1
  8
0
100
AcDbBlockEnd
  0
ENDSEC
  0
SECTION
  2
ENTITIES
  0
LINE
  5
70
330
1F
100
AcDbEntity
  8
0
100
AcDbLine
 10
-515.3304384531382
 20
147.3844082131789
 30
0.0
 11
-515.3304384531382
 21
-197.6155917868211
 31
0.0
  0
LINE
  5
71
330
1F
100
AcDbEntity
  8
0
100
AcDbLine
 10
-515.3304384531382
 20
-197.6155917868211
 30
0.0
 11
494.6695615468618
 21
-197.6155917868211
 31
0.0
  0
LINE
  5
72
330
1F
100
AcDbEntity
  8
0
100
AcDbLine
 10
494.6695615468618
 20
-197.6155917868211
 30
0.0
 11
494.6695615468618
 21
147.3844082131789
 31
0.0
  0
LINE
  5
73
330
1F
100
AcDbEntity
  8
0
100
AcDbLine
 10
494.6695615468618
 20
147.3844082131789
 30
0.0
 11
-515.3304384531382
 21
147.3844082131789
 31
0.0
  0
LINE
  5
74
330
1F
100
AcDbEntity
  8
0
100
AcDbLine
 10
-496.1635939648941
 20
-178.5208434411936
 30
0.0
 11
-496.486694948123
 21
-178.2561445102617
 31
0.0
  0
LINE
  5
75
330
1F
100
AcDbEntity
  8
0
100
AcDbLine
 10
-496.486694948123
 20
-178.2561445102617
 30
0.0
 11
-496.8672956568667
 21
-178.0840896646346
 31
0.0
  0
LINE
  5
76
330
1F
100
AcDbEntity
  8
0
100
AcDbLine
 10
-496.8672956568667
 20
-178.0840896646346
 30
0.0
 11
-497.2794587817966
 21
-178.0164041577075
 31
0.0
  0
LINE
  5
77
330
1F
100
AcDbEntity
  8
0
100
AcDbLine
 10
-497.2794587817966
 20
-178.0164041577075
 30
0.0
 11
-497.6950960870806
 21
-178.0577006449221
 31
0.0
  0
LINE
  5
78
330
1F
100
AcDbEntity
  8
0
100
AcDbLine
 10
-497.6950960870806
 20
-178.0577006449221
 30
0.0
 11
-498.0858825772366
 21
-178.2051648389202
 31
0.0
  0
LINE
  5
79
330
1F
100
AcDbEntity
  8
0
100
AcDbLine
 10
-498.0858825772366
 20
-178.2051648389202
 30
0.0
 11
-498.4251867987658
 21
-178.448747298577
 31
0.0
  0
LINE
  5
7A
330
1F
100
AcDbEntity
  8
0
100
AcDbLine
 10
-498.4251867987658
 20
-178.448747298577
 30
0.0
 11
-498.6898857296977
 21
-178.7718482818059
 31
0.0
  0
LINE
  5
7B
330
1F
100
AcDbEntity
  8
0
100
AcDbLine
 10
-498.6898857296977
 20
-178.7718482818059
 30
0.0
 11
-498.8619405753248
 21
-179.1524489905496
 31
0.0
  0
LINE
  5
7C
330
1F
100
AcDbEntity
  8
0
100
AcDbLine
 10
-498.8619405753248
 20
-179.1524489905496
 30
0.0
 11
-498.9296260822518
 21
-179.5646121154795
 31
0.0
  0
LINE
  5
7D
330
1F
100
AcDbEntity
  8
0
100
AcDbLine
 10
-498.9296260822518
 20
-179.5646121154795
 30
0.0
 11
-498.8883295950372
 21
-179.9802494207635
 31
0.0
  0
LINE
  5
7E
330
1F
100
AcDbEntity
  8
0
100
AcDbLine
 10
-498.8883295950372
 20
-179.9802494207635
 30
0.0
 11
-498.7408654010392
 21
-180.3710359109195
 31
0.0
  0
LINE
  5
7F
330
1F
100
AcDbEntity
  8
0
100
AcDbLine
 10
-498.7408654010392
 20
-180.3710359109195
 30
0.0
 11
-498.4972829413823
 21
-180.7103401324487
 31
0.0
  0
LINE
  5
80
330
1F
100
AcDbEntity
  8
0
100
AcDbLine
 10
-498.4972829413823
 20
-180.7103401324487
 30
0.0
 11
-498.1741819581534
 21
-180.9750390633805
 31
0.0
  0
LINE
  5
81
330
1F
100
AcDbEntity
  8
0
100
AcDbLine
 10
-498.1741819581534
 20
-180.9750390633805
 30
0.0
 11
-497.7935812494097
 21
-181.1470939090077
 31
0.0
  0
LINE
  5
82
330
1F
100
AcDbEntity
  8
0
100
AcDbLine
 10
-497.7935812494097
 20
-181.1470939090077
 30
0.0
 11
-497.3814181244798
 21
-181.2147794159347
 31
0.0
  0
LINE
  5
83
330
1F
100
AcDbEntity
  8
0
100
AcDbLine
 10
-497.3814181244798
 20
-181.2147794159347
 30
0.0
 11
-496.9657808191959
 21
-181.1734829287202
 31
0.0
  0
LINE
  5
84
330
1F
100
AcDbEntity
  8
0
100
AcDbLine
 10
-496.9657808191959
 20
-181.1734829287202
 30
0.0
 11
-496.5749943290398
 21
-181.0260187347221
 31
0.0
  0
LINE
  5
85
330
1F
100
AcDbEntity
  8
0
100
AcDbLine
 10
-496.5749943290398
 20
-181.0260187347221
 30
0.0
 11
-496.2356901075107
 21
-180.7824362750653
 31
0.0
  0
LINE
  5
86
330
1F
100
AcDbEntity
  8
0
100
AcDbLine
 10
-496.2356901075107
 20
-180.7824362750653
 30
0.0
 11
-495.9709911765789
 21
-180.4593352918363
 31
0.0
  0
LINE
  5
87
330
1F
100
AcDbEntity
  8
0
100
AcDbLine
 10
-495.9709911765789
 20
-180.4593352918363
 30
0.0
 11
-495.7989363309517
 21
-180.0787345830926
 31
0.0
  0
LINE
  5
88
330
1F
100
AcDbEntity
  8
0
100
AcDbLine
 10
-495.7989363309517
 20
-180.0787345830926
 30
0.0
 11
-495.7312508240247
 21
-179.6665714581627
 31
0.0
  0
LINE
  5
89
330
1F
100
AcDbEntity
  8
0
100
AcDbLine
 10
-495.7312508240247
 20
-179.6665714581627
 30
0.0
 11
-495.7725473112392
 21
-179.2509341528787
 31
0.0
  0
LINE
  5
8A
330
1F
100
AcDbEntity
  8
0
100
AcDbLine
 10
-495.7725473112392
 20
-179.2509341528787
 30
0.0
 11
-495.9200115052373
 21
-178.8601476627227
 31
0.0
  0
LINE
  5
8B
330
1F
100
AcDbEntity
  8
0
100
AcDbLine
 10
-495.9200115052373
 20
-178.8601476627227
 30
0.0
 11
-496.1635939648941
 21
-178.5208434411936
 31
0.0
  0
LINE
  5
8C
330
1F
100
AcDbEntity
  8
0
100
AcDbLine
 10
-495.980718605057
 20
-89.75637334445877
 30
0.0
 11
-496.2490912904084
 21
-89.43631730068316
 31
0.0
  0
LINE
  5
8D
330
1F
100
AcDbEntity
  8
0
100
AcDbLine
 10
-496.2490912904084
 20
-89.43631730068316
 30
0.0
 11
-496.591155997889
 21
-89.19662686429463
 31
0.0
  0
LINE
  5
8E
330
1F
100
AcDbEntity
  8
0
100
AcDbLine
 10
-496.591155997889
 20
-89.19662686429463
 30
0.0
 11
-496.9836015829729
 21
-89.05363654242586
 31
0.0
  0
LINE
  5
8F
330
1F
100
AcDbEntity
  8
0
100
AcDbLine
 10
-496.9836015829729
 20
-89.05363654242586
 30
0.0
 11
-497.3996835275835
 21
-89.01709088920954
 31
0.0
  0
LINE
  5
90
330
1F
100
AcDbEntity
  8
0
100
AcDbLine
 10
-497.3996835275835
 20
-89.01709088920954
 30
0.0
 11
-497.8110465348037
 21
-89.08948043051782
 31
0.0
  0
LINE
  5
91
330
1F
100
AcDbEntity
  8
0
100
AcDbLine
 10
-497.8110465348037
 20
-89.08948043051782
 30
0.0
 11
-498.1896568955006
 21
-89.26587193873992
 31
0.0
  0
LINE
  5
92
330
1F
100
AcDbEntity
  8
0
100
AcDbLine
 10
-498.1896568955006
 20
-89.26587193873992
 30
0.0
 11
-498.5097129392762
 21
-89.53424462409124
 31
0.0
  0
LINE
  5
93
330
1F
100
AcDbEntity
  8
0
100
AcDbLine
 10
-498.5097129392762
 20
-89.53424462409124
 30
0.0
 11
-498.7494033756647
 21
-89.87630933157192
 31
0.0
  0
LINE
  5
94
330
1F
100
AcDbEntity
  8
0
100
AcDbLine
 10
-498.7494033756647
 20
-89.87630933157192
 30
0.0
 11
-498.8923936975335
 21
-90.26875491665581
 31
0.0
  0
LINE
  5
95
330
1F
100
AcDbEntity
  8
0
100
AcDbLine
 10
-498.8923936975335
 20
-90.26875491665581
 30
0.0
 11
-498.9289393507498
 21
-90.68483686126643
 31
0.0
  0
LINE
  5
96
330
1F
100
AcDbEntity
  8
0
100
AcDbLine
 10
-498.9289393507498
 20
-90.68483686126643
 30
0.0
 11
-498.8565498094416
 21
-91.09619986848651
 31
0.0
  0
LINE
  5
97
330
1F
100
AcDbEntity
  8
0
100
AcDbLine
 10
-498.8565498094416
 20
-91.09619986848651
 30
0.0
 11
-498.6801583012195
 21
-91.4748102291835
 31
0.0
  0
LINE
  5
98
330
1F
100
AcDbEntity
  8
0
100
AcDbLine
 10
-498.6801583012195
 20
-91.4748102291835
 30
0.0
 11
-498.4117856158682
 21
-91.79486627295911
 31
0.0
  0
LINE
  5
99
330
1F
100
AcDbEntity
  8
0
100
AcDbLine
 10
-498.4117856158682
 20
-91.79486627295911
 30
0.0
 11
-498.0697209083875
 21
-92.03455670934765
 31
0.0
  0
LINE
  5
9A
330
1F
100
AcDbEntity
  8
0
100
AcDbLine
 10
-498.0697209083875
 20
-92.03455670934765
 30
0.0
 11
-497.6772753233036
 21
-92.1775470312164
 31
0.0
  0
LINE
  5
9B
330
1F
100
AcDbEntity
  8
0
100
AcDbLine
 10
-497.6772753233036
 20
-92.1775470312164
 30
0.0
 11
-497.2611933786929
 21
-92.21409268443273
 31
0.0
  0
LINE
  5
9C
330
1F
100
AcDbEntity
  8
0
100
AcDbLine
 10
-497.2611933786929
 20
-92.21409268443273
 30
0.0
 11
-496.8498303714729
 21
-92.14170314312445
 31
0.0
  0
LINE
  5
9D
330
1F
100
AcDbEntity
  8
0
100
AcDbLine
 10
-496.8498303714729
 20
-92.14170314312445
 30
0.0
 11
-496.4712200107758
 21
-91.96531163490236
 31
0.0
  0
LINE
  5
9E
330
1F
100
AcDbEntity
  8
0
100
AcDbLine
 10
-496.4712200107758
 20
-91.96531163490236
 30
0.0
 11
-496.1511639670002
 21
-91.69693894955104
 31
0.0
  0
LINE
  5
9F
330
1F
100
AcDbEntity
  8
0
100
AcDbLine
 10
-496.1511639670002
 20
-91.69693894955104
 30
0.0
 11
-495.9114735306117
 21
-91.35487424207037
 31
0.0
  0
LINE
  5
A0
330
1F
100
AcDbEntity
  8
0
100
AcDbLine
 10
-495.9114735306117
 20
-91.35487424207037
 30
0.0
 11
-495.768483208743
 21
-90.96242865698648
 31
0.0
  0
LINE
  5
A1
330
1F
100
AcDbEntity
  8
0
100
AcDbLine
 10
-495.768483208743
 20
-90.96242865698648
 30
0.0
 11
-495.7319375555267
 21
-90.54634671237585
 31
0.0
  0
LINE
  5
A2
330
1F
100
AcDbEntity
  8
0
100
AcDbLine
 10
-495.7319375555267
 20
-90.54634671237585
 30
0.0
 11
-495.8043270968349
 21
-90.13498370515576
 31
0.0
  0
LINE
  5
A3
330
1F
100
AcDbEntity
  8
0
100
AcDbLine
 10
-495.8043270968349
 20
-90.13498370515576
 30
0.0
 11
-495.980718605057
 21
-89.75637334445877
 31
0.0
  0
LINE
  5
A4
330
1F
100
AcDbEntity
  8
0
100
AcDbLine
 10
-435.980718605057
 20
-89.75637334445881
 30
0.0
 11
-436.2490912904083
 21
-89.4363173006832
 31
0.0
  0
LINE
  5
A5
330
1F
100
AcDbEntity
  8
0
100
AcDbLine
 10
-437.3996835275835
 20
-89.01709088920958
 30
0.0
 11
-437.8110465348036
 21
-89.08948043051787
 31
0.0
  0
LINE
  5
A6
330
1F
100
AcDbEntity
  8
0
100
AcDbLine
 10
-435.9709911765788
 20
-180.4593352918363
 30
0.0
 11
-435.7989363309517
 21
-180.0787345830927
 31
0.0
  0
LINE
  5
A7
330
1F
100
AcDbEntity
  8
0
100
AcDbLine
 10
-438.5097129392763
 20
-89.53424462409129
 30
0.0
 11
-438.7494033756648
 21
-89.87630933157196
 31
0.0
  0
LINE
  5
A8
330
1F
100
AcDbEntity
  8
0
100
AcDbLine
 10
-436.2356901075107
 20
-180.7824362750653
 30
0.0
 11
-435.9709911765788
 21
-180.4593352918363
 31
0.0
  0
LINE
  5
A9
330
1F
100
AcDbEntity
  8
0
100
AcDbLine
 10
-436.5749943290398
 20
-181.0260187347221
 30
0.0
 11
-436.2356901075107
 21
-180.7824362750653
 31
0.0
  0
LINE
  5
AA
330
1F
100
AcDbEntity
  8
0
100
AcDbLine
 10
-436.2490912904083
 20
-89.4363173006832
 30
0.0
 11
-436.591155997889
 21
-89.19662686429467
 31
0.0
  0
LINE
  5
AB
330
1F
100
AcDbEntity
  8
0
100
AcDbLine
 10
-436.591155997889
 20
-89.19662686429467
 30
0.0
 11
-436.9836015829729
 21
-89.0536365424259
 31
0.0
  0
LINE
  5
AC
330
1F
100
AcDbEntity
  8
0
100
AcDbLine
 10
-438.1896568955007
 20
-89.26587193873996
 30
0.0
 11
-438.5097129392763
 21
-89.53424462409129
 31
0.0
  0
LINE
  5
AD
330
1F
100
AcDbEntity
  8
0
100
AcDbLine
 10
-438.4972829413824
 20
-180.7103401324487
 30
0.0
 11
-438.1741819581534
 21
-180.9750390633805
 31
0.0
  0
LINE
  5
AE
330
1F
100
AcDbEntity
  8
0
100
AcDbLine
 10
-437.3814181244799
 20
-181.2147794159347
 30
0.0
 11
-436.9657808191959
 21
-181.1734829287202
 31
0.0
  0
LINE
  5
AF
330
1F
100
AcDbEntity
  8
0
100
AcDbLine
 10
-438.1741819581534
 20
-180.9750390633805
 30
0.0
 11
-437.7935812494097
 21
-181.1470939090077
 31
0.0
  0
LINE
  5
B0
330
1F
100
AcDbEntity
  8
0
100
AcDbLine
 10
-436.9657808191959
 20
-181.1734829287202
 30
0.0
 11
-436.5749943290398
 21
-181.0260187347221
 31
0.0
  0
LINE
  5
B1
330
1F
100
AcDbEntity
  8
0
100
AcDbLine
 10
-438.8883295950372
 20
-179.9802494207635
 30
0.0
 11
-438.7408654010392
 21
-180.3710359109195
 31
0.0
  0
LINE
  5
B2
330
1F
100
AcDbEntity
  8
0
100
AcDbLine
 10
-438.9296260822518
 20
-179.5646121154796
 30
0.0
 11
-438.8883295950372
 21
-179.9802494207635
 31
0.0
  0
LINE
  5
B3
330
1F
100
AcDbEntity
  8
0
100
AcDbLine
 10
-438.7408654010392
 20
-180.3710359109195
 30
0.0
 11
-438.4972829413824
 21
-180.7103401324487
 31
0.0
  0
LINE
  5
B4
330
1F
100
AcDbEntity
  8
0
100
AcDbLine
 10
-437.8110465348036
 20
-89.08948043051787
 30
0.0
 11
-438.1896568955007
 21
-89.26587193873996
 31
0.0
  0
LINE
  5
B5
330
1F
100
AcDbEntity
  8
0
100
AcDbLine
 10
-437.7935812494097
 20
-181.1470939090077
 30
0.0
 11
-437.3814181244799
 21
-181.2147794159347
 31
0.0
  0
LINE
  5
B6
330
1F
100
AcDbEntity
  8
0
100
AcDbLine
 10
-436.9836015829729
 20
-89.0536365424259
 30
0.0
 11
-437.3996835275835
 21
-89.01709088920958
 31
0.0
  0
LINE
  5
B7
330
1F
100
AcDbEntity
  8
0
100
AcDbLine
 10
-437.6950960870806
 20
-178.0577006449221
 30
0.0
 11
-438.0858825772366
 21
-178.2051648389202
 31
0.0
  0
LINE
  5
B8
330
1F
100
AcDbEntity
  8
0
100
AcDbLine
 10
-436.1635939648941
 20
-178.5208434411936
 30
0.0
 11
-436.486694948123
 21
-178.2561445102618
 31
0.0
  0
LINE
  5
B9
330
1F
100
AcDbEntity
  8
0
100
AcDbLine
 10
-436.486694948123
 20
-178.2561445102618
 30
0.0
 11
-436.8672956568668
 21
-178.0840896646346
 31
0.0
  0
LINE
  5
BA
330
1F
100
AcDbEntity
  8
0
100
AcDbLine
 10
-437.2794587817966
 20
-178.0164041577076
 30
0.0
 11
-437.6950960870806
 21
-178.0577006449221
 31
0.0
  0
LINE
  5
BB
330
1F
100
AcDbEntity
  8
0
100
AcDbLine
 10
-438.0858825772366
 20
-178.2051648389202
 30
0.0
 11
-438.4251867987658
 21
-178.448747298577
 31
0.0
  0
LINE
  5
BC
330
1F
100
AcDbEntity
  8
0
100
AcDbLine
 10
-438.6898857296976
 20
-178.771848281806
 30
0.0
 11
-438.8619405753248
 21
-179.1524489905497
 31
0.0
  0
LINE
  5
BD
330
1F
100
AcDbEntity
  8
0
100
AcDbLine
 10
-436.4712200107758
 20
-91.9653116349024
 30
0.0
 11
-436.1511639670002
 21
-91.69693894955108
 31
0.0
  0
LINE
  5
BE
330
1F
100
AcDbEntity
  8
0
100
AcDbLine
 10
-435.7989363309517
 20
-180.0787345830927
 30
0.0
 11
-435.7312508240247
 21
-179.6665714581627
 31
0.0
  0
LINE
  5
BF
330
1F
100
AcDbEntity
  8
0
100
AcDbLine
 10
-435.7684832087429
 20
-90.96242865698652
 30
0.0
 11
-435.7319375555267
 21
-90.5463467123759
 31
0.0
  0
LINE
  5
C0
330
1F
100
AcDbEntity
  8
0
100
AcDbLine
 10
-438.6801583012194
 20
-91.47481022918355
 30
0.0
 11
-438.4117856158681
 21
-91.79486627295915
 31
0.0
  0
LINE
  5
C1
330
1F
100
AcDbEntity
  8
0
100
AcDbLine
 10
-435.9114735306117
 20
-91.35487424207041
 30
0.0
 11
-435.7684832087429
 21
-90.96242865698652
 31
0.0
  0
LINE
  5
C2
330
1F
100
AcDbEntity
  8
0
100
AcDbLine
 10
-437.6772753233036
 20
-92.17754703121646
 30
0.0
 11
-437.261193378693
 21
-92.21409268443277
 31
0.0
  0
LINE
  5
C3
330
1F
100
AcDbEntity
  8
0
100
AcDbLine
 10
-438.8565498094416
 20
-91.09619986848655
 30
0.0
 11
-438.6801583012194
 21
-91.47481022918355
 31
0.0
  0
LINE
  5
C4
330
1F
100
AcDbEntity
  8
0
100
AcDbLine
 10
-435.9200115052373
 20
-178.8601476627228
 30
0.0
 11
-436.1635939648941
 21
-178.5208434411936
 31
0.0
  0
LINE
  5
C5
330
1F
100
AcDbEntity
  8
0
100
AcDbLine
 10
-436.8672956568668
 20
-178.0840896646346
 30
0.0
 11
-437.2794587817966
 21
-178.0164041577076
 31
0.0
  0
LINE
  5
C6
330
1F
100
AcDbEntity
  8
0
100
AcDbLine
 10
-438.7494033756648
 20
-89.87630933157196
 30
0.0
 11
-438.8923936975335
 21
-90.26875491665585
 31
0.0
  0
LINE
  5
C7
330
1F
100
AcDbEntity
  8
0
100
AcDbLine
 10
-438.8923936975335
 20
-90.26875491665585
 30
0.0
 11
-438.9289393507498
 21
-90.68483686126648
 31
0.0
  0
LINE
  5
C8
330
1F
100
AcDbEntity
  8
0
100
AcDbLine
 10
-435.7319375555267
 20
-90.5463467123759
 30
0.0
 11
-435.8043270968349
 21
-90.1349837051558
 31
0.0
  0
LINE
  5
C9
330
1F
100
AcDbEntity
  8
0
100
AcDbLine
 10
-438.4117856158681
 20
-91.79486627295915
 30
0.0
 11
-438.0697209083874
 21
-92.0345567093477
 31
0.0
  0
LINE
  5
CA
330
1F
100
AcDbEntity
  8
0
100
AcDbLine
 10
-435.7312508240247
 20
-179.6665714581627
 30
0.0
 11
-435.7725473112392
 21
-179.2509341528788
 31
0.0
  0
LINE
  5
CB
330
1F
100
AcDbEntity
  8
0
100
AcDbLine
 10
-438.8619405753248
 20
-179.1524489905497
 30
0.0
 11
-438.9296260822518
 21
-179.5646121154796
 31
0.0
  0
LINE
  5
CC
330
1F
100
AcDbEntity
  8
0
100
AcDbLine
 10
-438.4251867987658
 20
-178.448747298577
 30
0.0
 11
-438.6898857296976
 21
-178.771848281806
 31
0.0
  0
LINE
  5
CD
330
1F
100
AcDbEntity
  8
0
100
AcDbLine
 10
-435.7725473112392
 20
-179.2509341528788
 30
0.0
 11
-435.9200115052373
 21
-178.8601476627228
 31
0.0
  0
LINE
  5
CE
330
1F
100
AcDbEntity
  8
0
100
AcDbLine
 10
-438.9289393507498
 20
-90.68483686126648
 30
0.0
 11
-438.8565498094416
 21
-91.09619986848655
 31
0.0
  0
LINE
  5
CF
330
1F
100
AcDbEntity
  8
0
100
AcDbLine
 10
-436.8498303714728
 20
-92.14170314312449
 30
0.0
 11
-436.4712200107758
 21
-91.9653116349024
 31
0.0
  0
LINE
  5
D0
330
1F
100
AcDbEntity
  8
0
100
AcDbLine
 10
-435.8043270968349
 20
-90.1349837051558
 30
0.0
 11
-435.980718605057
 21
-89.75637334445881
 31
0.0
  0
LINE
  5
D1
330
1F
100
AcDbEntity
  8
0
100
AcDbLine
 10
-436.1511639670002
 20
-91.69693894955108
 30
0.0
 11
-435.9114735306117
 21
-91.35487424207041
 31
0.0
  0
LINE
  5
D2
330
1F
100
AcDbEntity
  8
0
100
AcDbLine
 10
-437.261193378693
 20
-92.21409268443277
 30
0.0
 11
-436.8498303714728
 21
-92.14170314312449
 31
0.0
  0
LINE
  5
D3
330
1F
100
AcDbEntity
  8
0
100
AcDbLine
 10
-438.0697209083874
 20
-92.0345567093477
 30
0.0
 11
-437.6772753233036
 21
-92.17754703121646
 31
0.0
  0
LINE
  5
D4
330
1F
100
AcDbEntity
  8
0
100
AcDbLine
 10
-438.8722792908991
 20
8.04302180063222
 30
0.0
 11
-439.0924265992876
 21
8.397979448823179
 31
0.0
  0
LINE
  5
D5
330
1F
100
AcDbEntity
  8
0
100
AcDbLine
 10
-439.0924265992876
 20
8.397979448823179
 30
0.0
 11
-439.3969423696047
 21
8.683863892310653
 31
0.0
  0
LINE
  5
D6
330
1F
100
AcDbEntity
  8
0
100
AcDbLine
 10
-439.3969423696047
 20
8.683863892310653
 30
0.0
 11
-439.7650743553395
 21
8.881192578717304
 31
0.0
  0
LINE
  5
D7
330
1F
100
AcDbEntity
  8
0
100
AcDbLine
 10
-439.7650743553395
 20
8.881192578717304
 30
0.0
 11
-440.1717349700309
 21
8.976517884165679
 31
0.0
  0
LINE
  5
D8
330
1F
100
AcDbEntity
  8
0
100
AcDbLine
 10
-440.1717349700309
 20
8.976517884165679
 30
0.0
 11
-440.5892109648261
 21
8.963343546621932
 31
0.0
  0
LINE
  5
D9
330
1F
100
AcDbEntity
  8
0
100
AcDbLine
 10
-440.5892109648261
 20
8.963343546621932
 30
0.0
 11
-440.9890520405916
 21
8.842567375418037
 31
0.0
  0
LINE
  5
DA
330
1F
100
AcDbEntity
  8
0
100
AcDbLine
 10
-440.9890520405916
 20
8.842567375418037
 30
0.0
 11
-441.3440096887825
 21
8.622420067029493
 31
0.0
  0
LINE
  5
DB
330
1F
100
AcDbEntity
  8
0
100
AcDbLine
 10
-441.3440096887825
 20
8.622420067029493
 30
0.0
 11
-441.62989413227
 21
8.317904296712367
 31
0.0
  0
LINE
  5
DC
330
1F
100
AcDbEntity
  8
0
100
AcDbLine
 10
-441.62989413227
 20
8.317904296712367
 30
0.0
 11
-441.8272228186767
 21
7.949772310977662
 31
0.0
  0
LINE
  5
DD
330
1F
100
AcDbEntity
  8
0
100
AcDbLine
 10
-441.8272228186767
 20
7.949772310977662
 30
0.0
 11
-441.9225481241251
 21
7.543111696286293
 31
0.0
  0
LINE
  5
DE
330
1F
100
AcDbEntity
  8
0
100
AcDbLine
 10
-441.9225481241251
 20
7.543111696286293
 30
0.0
 11
-441.9093737865813
 21
7.125635701491097
 31
0.0
  0
LINE
  5
DF
330
1F
100
AcDbEntity
  8
0
100
AcDbLine
 10
-441.9093737865813
 20
7.125635701491097
 30
0.0
 11
-441.7885976153773
 21
6.725794625725597
 31
0.0
  0
LINE
  5
E0
330
1F
100
AcDbEntity
  8
0
100
AcDbLine
 10
-441.7885976153773
 20
6.725794625725597
 30
0.0
 11
-441.5684503069889
 21
6.370836977534639
 31
0.0
  0
LINE
  5
E1
330
1F
100
AcDbEntity
  8
0
100
AcDbLine
 10
-441.5684503069889
 20
6.370836977534639
 30
0.0
 11
-441.2639345366717
 21
6.084952534047165
 31
0.0
  0
LINE
  5
E2
330
1F
100
AcDbEntity
  8
0
100
AcDbLine
 10
-441.2639345366717
 20
6.084952534047165
 30
0.0
 11
-440.895802550937
 21
5.887623847640514
 31
0.0
  0
LINE
  5
E3
330
1F
100
AcDbEntity
  8
0
100
AcDbLine
 10
-440.895802550937
 20
5.887623847640514
 30
0.0
 11
-440.4891419362456
 21
5.792298542192139
 31
0.0
  0
LINE
  5
E4
330
1F
100
AcDbEntity
  8
0
100
AcDbLine
 10
-440.4891419362456
 20
5.792298542192139
 30
0.0
 11
-440.0716659414504
 21
5.805472879735886
 31
0.0
  0
LINE
  5
E5
330
1F
100
AcDbEntity
  8
0
100
AcDbLine
 10
-440.0716659414504
 20
5.805472879735886
 30
0.0
 11
-439.6718248656849
 21
5.926249050939781
 31
0.0
  0
LINE
  5
E6
330
1F
100
AcDbEntity
  8
0
100
AcDbLine
 10
-439.6718248656849
 20
5.926249050939781
 30
0.0
 11
-439.316867217494
 21
6.146396359328325
 31
0.0
  0
LINE
  5
E7
330
1F
100
AcDbEntity
  8
0
100
AcDbLine
 10
-439.316867217494
 20
6.146396359328325
 30
0.0
 11
-439.0309827740065
 21
6.450912129645451
 31
0.0
  0
LINE
  5
E8
330
1F
100
AcDbEntity
  8
0
100
AcDbLine
 10
-439.0309827740065
 20
6.450912129645451
 30
0.0
 11
-438.8336540875998
 21
6.819044115380156
 31
0.0
  0
LINE
  5
E9
330
1F
100
AcDbEntity
  8
0
100
AcDbLine
 10
-438.8336540875998
 20
6.819044115380156
 30
0.0
 11
-438.7383287821514
 21
7.225704730071524
 31
0.0
  0
LINE
  5
EA
330
1F
100
AcDbEntity
  8
0
100
AcDbLine
 10
-438.7383287821514
 20
7.225704730071524
 30
0.0
 11
-438.7515031196952
 21
7.643180724866721
 31
0.0
  0
LINE
  5
EB
330
1F
100
AcDbEntity
  8
0
100
AcDbLine
 10
-438.7515031196952
 20
7.643180724866721
 30
0.0
 11
-438.8722792908991
 21
8.04302180063222
 31
0.0
  0
LINE
  5
EC
330
1F
100
AcDbEntity
  8
0
100
AcDbLine
 10
-381.34595001145
 20
8.620828964757917
 30
0.0
 11
-381.6313565324753
 21
8.315865217475986
 31
0.0
  0
LINE
  5
ED
330
1F
100
AcDbEntity
  8
0
100
AcDbLine
 10
-381.6313565324753
 20
8.315865217475986
 30
0.0
 11
-381.8281076362625
 21
7.947424214656697
 31
0.0
  0
LINE
  5
EE
330
1F
100
AcDbEntity
  8
0
100
AcDbLine
 10
-381.8281076362625
 20
7.947424214656697
 30
0.0
 11
-381.9227950602351
 21
7.540614601764601
 31
0.0
  0
LINE
  5
EF
330
1F
100
AcDbEntity
  8
0
100
AcDbLine
 10
-381.9227950602351
 20
7.540614601764601
 30
0.0
 11
-381.9089660129278
 21
7.123159781633668
 31
0.0
  0
LINE
  5
F0
330
1F
100
AcDbEntity
  8
0
100
AcDbLine
 10
-381.9089660129278
 20
7.123159781633668
 30
0.0
 11
-381.787562921061
 21
6.723508610379111
 31
0.0
  0
LINE
  5
F1
330
1F
100
AcDbEntity
  8
0
100
AcDbLine
 10
-381.787562921061
 20
6.723508610379111
 30
0.0
 11
-381.5668592047173
 21
6.368896654867141
 31
0.0
  0
LINE
  5
F2
330
1F
100
AcDbEntity
  8
0
100
AcDbLine
 10
-381.5668592047173
 20
6.368896654867141
 30
0.0
 11
-381.2618954574353
 21
6.083490133841885
 31
0.0
  0
LINE
  5
F3
330
1F
100
AcDbEntity
  8
0
100
AcDbLine
 10
-381.2618954574353
 20
6.083490133841885
 30
0.0
 11
-380.893454454616
 21
5.88673903005466
 31
0.0
  0
LINE
  5
F4
330
1F
100
AcDbEntity
  8
0
100
AcDbLine
 10
-380.893454454616
 20
5.88673903005466
 30
0.0
 11
-380.4866448417239
 21
5.792051606082033
 31
0.0
  0
LINE
  5
F5
330
1F
100
AcDbEntity
  8
0
100
AcDbLine
 10
-380.4866448417239
 20
5.792051606082033
 30
0.0
 11
-380.069190021593
 21
5.805880653389353
 31
0.0
  0
LINE
  5
F6
330
1F
100
AcDbEntity
  8
0
100
AcDbLine
 10
-380.069190021593
 20
5.805880653389353
 30
0.0
 11
-379.6695388503385
 21
5.927283745256194
 31
0.0
  0
LINE
  5
F7
330
1F
100
AcDbEntity
  8
0
100
AcDbLine
 10
-379.6695388503385
 20
5.927283745256194
 30
0.0
 11
-379.3149268948264
 21
6.1479874615999
 31
0.0
  0
LINE
  5
F8
330
1F
100
AcDbEntity
  8
0
100
AcDbLine
 10
-379.3149268948264
 20
6.1479874615999
 30
0.0
 11
-379.0295203738012
 21
6.452951208881831
 31
0.0
  0
LINE
  5
F9
330
1F
100
AcDbEntity
  8
0
100
AcDbLine
 10
-379.0295203738012
 20
6.452951208881831
 30
0.0
 11
-378.832769270014
 21
6.82139221170112
 31
0.0
  0
LINE
  5
FA
330
1F
100
AcDbEntity
  8
0
100
AcDbLine
 10
-378.832769270014
 20
6.82139221170112
 30
0.0
 11
-378.7380818460413
 21
7.228201824593217
 31
0.0
  0
LINE
  5
FB
330
1F
100
AcDbEntity
  8
0
100
AcDbLine
 10
-378.7380818460413
 20
7.228201824593217
 30
0.0
 11
-378.7519108933487
 21
7.645656644724149
 31
0.0
  0
LINE
  5
FC
330
1F
100
AcDbEntity
  8
0
100
AcDbLine
 10
-378.7519108933487
 20
7.645656644724149
 30
0.0
 11
-378.8733139852155
 21
8.045307815978706
 31
0.0
  0
LINE
  5
FD
330
1F
100
AcDbEntity
  8
0
100
AcDbLine
 10
-378.8733139852155
 20
8.045307815978706
 30
0.0
 11
-379.0940177015593
 21
8.399919771490676
 31
0.0
  0
LINE
  5
FE
330
1F
100
AcDbEntity
  8
0
100
AcDbLine
 10
-379.0940177015593
 20
8.399919771490676
 30
0.0
 11
-379.3989814488411
 21
8.685326292515931
 31
0.0
  0
LINE
  5
FF
330
1F
100
AcDbEntity
  8
0
100
AcDbLine
 10
-379.3989814488411
 20
8.685326292515931
 30
0.0
 11
-379.7674224516605
 21
8.882077396303158
 31
0.0
  0
LINE
  5
100
330
1F
100
AcDbEntity
  8
0
100
AcDbLine
 10
-379.7674224516605
 20
8.882077396303158
 30
0.0
 11
-380.1742320645525
 21
8.976764820275784
 31
0.0
  0
LINE
  5
101
330
1F
100
AcDbEntity
  8
0
100
AcDbLine
 10
-380.1742320645525
 20
8.976764820275784
 30
0.0
 11
-380.5916868846834
 21
8.962935772968464
 31
0.0
  0
LINE
  5
102
330
1F
100
AcDbEntity
  8
0
100
AcDbLine
 10
-380.5916868846834
 20
8.962935772968464
 30
0.0
 11
-380.9913380559381
 21
8.841532681101624
 31
0.0
  0
LINE
  5
103
330
1F
100
AcDbEntity
  8
0
100
AcDbLine
 10
-380.9913380559381
 20
8.841532681101624
 30
0.0
 11
-381.34595001145
 21
8.620828964757917
 31
0.0
  0
LINE
  5
104
330
1F
100
AcDbEntity
  8
0
100
AcDbLine
 10
-431.8336540875998
 20
-73.18095588461983
 30
0.0
 11
-431.7383287821515
 21
-72.77429526992846
 31
0.0
  0
LINE
  5
105
330
1F
100
AcDbEntity
  8
0
100
AcDbLine
 10
-431.7515031196952
 20
-72.35681927513326
 30
0.0
 11
-431.8722792908991
 21
-71.95697819936777
 31
0.0
  0
LINE
  5
106
330
1F
100
AcDbEntity
  8
0
100
AcDbLine
 10
-432.0309827740065
 20
-73.54908787035454
 30
0.0
 11
-431.8336540875998
 21
-73.18095588461983
 31
0.0
  0
LINE
  5
107
330
1F
100
AcDbEntity
  8
0
100
AcDbLine
 10
-434.3440096887825
 20
-71.37757993297049
 30
0.0
 11
-434.62989413227
 21
-71.68209570328762
 31
0.0
  0
LINE
  5
108
330
1F
100
AcDbEntity
  8
0
100
AcDbLine
 10
-433.0716659414504
 20
-74.1945271202641
 30
0.0
 11
-432.6718248656849
 21
-74.07375094906021
 31
0.0
  0
LINE
  5
109
330
1F
100
AcDbEntity
  8
0
100
AcDbLine
 10
-434.9093737865812
 20
-72.8743642985089
 30
0.0
 11
-434.7885976153773
 21
-73.27420537427439
 31
0.0
  0
LINE
  5
10A
330
1F
100
AcDbEntity
  8
0
100
AcDbLine
 10
-434.5684503069888
 20
-73.62916302246535
 30
0.0
 11
-434.2639345366717
 21
-73.91504746595282
 31
0.0
  0
LINE
  5
10B
330
1F
100
AcDbEntity
  8
0
100
AcDbLine
 10
-431.8722792908991
 20
-71.95697819936777
 30
0.0
 11
-432.0924265992876
 21
-71.6020205511768
 31
0.0
  0
LINE
  5
10C
330
1F
100
AcDbEntity
  8
0
100
AcDbLine
 10
-433.9890520405915
 20
-71.15743262458196
 30
0.0
 11
-434.3440096887825
 21
-71.37757993297049
 31
0.0
  0
LINE
  5
10D
330
1F
100
AcDbEntity
  8
0
100
AcDbLine
 10
-431.7383287821515
 20
-72.77429526992846
 30
0.0
 11
-431.7515031196952
 21
-72.35681927513326
 31
0.0
  0
LINE
  5
10E
330
1F
100
AcDbEntity
  8
0
100
AcDbLine
 10
-432.316867217494
 20
-73.85360364067166
 30
0.0
 11
-432.0309827740065
 21
-73.54908787035454
 31
0.0
  0
LINE
  5
10F
330
1F
100
AcDbEntity
  8
0
100
AcDbLine
 10
-432.6718248656849
 20
-74.07375094906021
 30
0.0
 11
-432.316867217494
 21
-73.85360364067166
 31
0.0
  0
LINE
  5
110
330
1F
100
AcDbEntity
  8
0
100
AcDbLine
 10
-433.4891419362456
 20
-74.20770145780784
 30
0.0
 11
-433.0716659414504
 21
-74.1945271202641
 31
0.0
  0
LINE
  5
111
330
1F
100
AcDbEntity
  8
0
100
AcDbLine
 10
-433.8958025509369
 20
-74.11237615235947
 30
0.0
 11
-433.4891419362456
 21
-74.20770145780784
 31
0.0
  0
LINE
  5
112
330
1F
100
AcDbEntity
  8
0
100
AcDbLine
 10
-434.2639345366717
 20
-73.91504746595282
 30
0.0
 11
-433.8958025509369
 21
-74.11237615235947
 31
0.0
  0
LINE
  5
113
330
1F
100
AcDbEntity
  8
0
100
AcDbLine
 10
-434.7885976153773
 20
-73.27420537427439
 30
0.0
 11
-434.5684503069888
 21
-73.62916302246535
 31
0.0
  0
LINE
  5
114
330
1F
100
AcDbEntity
  8
0
100
AcDbLine
 10
-434.922548124125
 20
-72.4568883037137
 30
0.0
 11
-434.9093737865812
 21
-72.8743642985089
 31
0.0
  0
LINE
  5
115
330
1F
100
AcDbEntity
  8
0
100
AcDbLine
 10
-434.8272228186766
 20
-72.05022768902232
 30
0.0
 11
-434.922548124125
 21
-72.4568883037137
 31
0.0
  0
LINE
  5
116
330
1F
100
AcDbEntity
  8
0
100
AcDbLine
 10
-434.62989413227
 20
-71.68209570328762
 30
0.0
 11
-434.8272228186766
 21
-72.05022768902232
 31
0.0
  0
LINE
  5
117
330
1F
100
AcDbEntity
  8
0
100
AcDbLine
 10
-433.5892109648261
 20
-71.03665645337806
 30
0.0
 11
-433.9890520405915
 21
-71.15743262458196
 31
0.0
  0
LINE
  5
118
330
1F
100
AcDbEntity
  8
0
100
AcDbLine
 10
-433.1717349700308
 20
-71.02348211583431
 30
0.0
 11
-433.5892109648261
 21
-71.03665645337806
 31
0.0
  0
LINE
  5
119
330
1F
100
AcDbEntity
  8
0
100
AcDbLine
 10
-432.7650743553394
 20
-71.11880742128268
 30
0.0
 11
-433.1717349700308
 21
-71.02348211583431
 31
0.0
  0
LINE
  5
11A
330
1F
100
AcDbEntity
  8
0
100
AcDbLine
 10
-432.3969423696048
 20
-71.31613610768933
 30
0.0
 11
-432.7650743553394
 21
-71.11880742128268
 31
0.0
  0
LINE
  5
11B
330
1F
100
AcDbEntity
  8
0
100
AcDbLine
 10
-432.0924265992876
 20
-71.6020205511768
 30
0.0
 11
-432.3969423696048
 21
-71.31613610768933
 31
0.0
  0
LINE
  5
11C
330
1F
100
AcDbEntity
  8
0
100
AcDbLine
 10
-387.1717349700309
 20
-71.02348211583431
 30
0.0
 11
-387.5892109648261
 21
-71.03665645337806
 31
0.0
  0
LINE
  5
11D
330
1F
100
AcDbEntity
  8
0
100
AcDbLine
 10
-387.5892109648261
 20
-71.03665645337806
 30
0.0
 11
-387.9890520405916
 21
-71.15743262458196
 31
0.0
  0
LINE
  5
11E
330
1F
100
AcDbEntity
  8
0
100
AcDbLine
 10
-386.7650743553395
 20
-71.11880742128268
 30
0.0
 11
-387.1717349700309
 21
-71.02348211583431
 31
0.0
  0
LINE
  5
11F
330
1F
100
AcDbEntity
  8
0
100
AcDbLine
 10
-388.922548124125
 20
-72.4568883037137
 30
0.0
 11
-388.9093737865813
 21
-72.8743642985089
 31
0.0
  0
LINE
  5
120
330
1F
100
AcDbEntity
  8
0
100
AcDbLine
 10
-387.895802550937
 20
-74.11237615235947
 30
0.0
 11
-387.4891419362456
 21
-74.20770145780784
 31
0.0
  0
LINE
  5
121
330
1F
100
AcDbEntity
  8
0
100
AcDbLine
 10
-388.62989413227
 20
-71.68209570328762
 30
0.0
 11
-388.8272228186767
 21
-72.05022768902232
 31
0.0
  0
LINE
  5
122
330
1F
100
AcDbEntity
  8
0
100
AcDbLine
 10
-386.3969423696048
 20
-71.31613610768933
 30
0.0
 11
-386.7650743553395
 21
-71.11880742128268
 31
0.0
  0
LINE
  5
123
330
1F
100
AcDbEntity
  8
0
100
AcDbLine
 10
-388.7885976153774
 20
-73.27420537427439
 30
0.0
 11
-388.5684503069888
 21
-73.62916302246535
 31
0.0
  0
LINE
  5
124
330
1F
100
AcDbEntity
  8
0
100
AcDbLine
 10
-388.8272228186767
 20
-72.05022768902232
 30
0.0
 11
-388.922548124125
 21
-72.4568883037137
 31
0.0
  0
LINE
  5
125
330
1F
100
AcDbEntity
  8
0
100
AcDbLine
 10
-388.2639345366717
 20
-73.91504746595282
 30
0.0
 11
-387.895802550937
 21
-74.11237615235947
 31
0.0
  0
LINE
  5
126
330
1F
100
AcDbEntity
  8
0
100
AcDbLine
 10
-387.4891419362456
 20
-74.20770145780784
 30
0.0
 11
-387.0716659414504
 21
-74.1945271202641
 31
0.0
  0
LINE
  5
127
330
1F
100
AcDbEntity
  8
0
100
AcDbLine
 10
-386.0924265992876
 20
-71.6020205511768
 30
0.0
 11
-386.3969423696048
 21
-71.31613610768933
 31
0.0
  0
LINE
  5
128
330
1F
100
AcDbEntity
  8
0
100
AcDbLine
 10
-386.6718248656849
 20
-74.07375094906021
 30
0.0
 11
-386.316867217494
 21
-73.85360364067166
 31
0.0
  0
LINE
  5
129
330
1F
100
AcDbEntity
  8
0
100
AcDbLine
 10
-388.3440096887825
 20
-71.37757993297049
 30
0.0
 11
-388.62989413227
 21
-71.68209570328762
 31
0.0
  0
LINE
  5
12A
330
1F
100
AcDbEntity
  8
0
100
AcDbLine
 10
-385.8336540875998
 20
-73.18095588461983
 30
0.0
 11
-385.7383287821515
 21
-72.77429526992846
 31
0.0
  0
LINE
  5
12B
330
1F
100
AcDbEntity
  8
0
100
AcDbLine
 10
-385.7515031196952
 20
-72.35681927513326
 30
0.0
 11
-385.8722792908991
 21
-71.95697819936777
 31
0.0
  0
LINE
  5
12C
330
1F
100
AcDbEntity
  8
0
100
AcDbLine
 10
-386.0309827740065
 20
-73.54908787035454
 30
0.0
 11
-385.8336540875998
 21
-73.18095588461983
 31
0.0
  0
LINE
  5
12D
330
1F
100
AcDbEntity
  8
0
100
AcDbLine
 10
-388.9093737865813
 20
-72.8743642985089
 30
0.0
 11
-388.7885976153774
 21
-73.27420537427439
 31
0.0
  0
LINE
  5
12E
330
1F
100
AcDbEntity
  8
0
100
AcDbLine
 10
-385.8722792908991
 20
-71.95697819936777
 30
0.0
 11
-386.0924265992876
 21
-71.6020205511768
 31
0.0
  0
LINE
  5
12F
330
1F
100
AcDbEntity
  8
0
100
AcDbLine
 10
-387.9890520405916
 20
-71.15743262458196
 30
0.0
 11
-388.3440096887825
 21
-71.37757993297049
 31
0.0
  0
LINE
  5
130
330
1F
100
AcDbEntity
  8
0
100
AcDbLine
 10
-385.7383287821515
 20
-72.77429526992846
 30
0.0
 11
-385.7515031196952
 21
-72.35681927513326
 31
0.0
  0
LINE
  5
131
330
1F
100
AcDbEntity
  8
0
100
AcDbLine
 10
-386.316867217494
 20
-73.85360364067166
 30
0.0
 11
-386.0309827740065
 21
-73.54908787035454
 31
0.0
  0
LINE
  5
132
330
1F
100
AcDbEntity
  8
0
100
AcDbLine
 10
-387.0716659414504
 20
-74.1945271202641
 30
0.0
 11
-386.6718248656849
 21
-74.07375094906021
 31
0.0
  0
LINE
  5
133
330
1F
100
AcDbEntity
  8
0
100
AcDbLine
 10
-388.5684503069888
 20
-73.62916302246535
 30
0.0
 11
-388.2639345366717
 21
-73.91504746595282
 31
0.0
  0
LINE
  5
134
330
1F
100
AcDbEntity
  8
0
100
AcDbLine
 10
171.2695615468619
 20
72.38440821317889
 30
0.0
 11
171.2150428689244
 21
72.79851868534294
 31
0.0
  0
LINE
  5
135
330
1F
100
AcDbEntity
  8
0
100
AcDbLine
 10
171.2150428689244
 20
72.79851868534294
 30
0.0
 11
171.0552021929171
 21
73.18440821317888
 31
0.0
  0
LINE
  5
136
330
1F
100
AcDbEntity
  8
0
100
AcDbLine
 10
171.0552021929171
 20
73.18440821317888
 30
0.0
 11
170.8009323967604
 21
73.51577906307735
 31
0.0
  0
LINE
  5
137
330
1F
100
AcDbEntity
  8
0
100
AcDbLine
 10
170.8009323967604
 20
73.51577906307735
 30
0.0
 11
170.4695615468619
 21
73.77004885923397
 31
0.0
  0
LINE
  5
138
330
1F
100
AcDbEntity
  8
0
100
AcDbLine
 10
170.4695615468619
 20
73.77004885923397
 30
0.0
 11
170.083672019026
 21
73.9298895352414
 31
0.0
  0
LINE
  5
139
330
1F
100
AcDbEntity
  8
0
100
AcDbLine
 10
170.083672019026
 20
73.9298895352414
 30
0.0
 11
169.6695615468619
 21
73.98440821317888
 31
0.0
  0
LINE
  5
13A
330
1F
100
AcDbEntity
  8
0
100
AcDbLine
 10
169.6695615468619
 20
73.98440821317888
 30
0.0
 11
169.2554510746978
 21
73.9298895352414
 31
0.0
  0
LINE
  5
13B
330
1F
100
AcDbEntity
  8
0
100
AcDbLine
 10
169.2554510746978
 20
73.9298895352414
 30
0.0
 11
168.8695615468619
 21
73.77004885923397
 31
0.0
  0
LINE
  5
13C
330
1F
100
AcDbEntity
  8
0
100
AcDbLine
 10
168.8695615468619
 20
73.77004885923397
 30
0.0
 11
168.5381906969634
 21
73.51577906307735
 31
0.0
  0
LINE
  5
13D
330
1F
100
AcDbEntity
  8
0
100
AcDbLine
 10
168.5381906969634
 20
73.51577906307735
 30
0.0
 11
168.2839209008068
 21
73.18440821317888
 31
0.0
  0
LINE
  5
13E
330
1F
100
AcDbEntity
  8
0
100
AcDbLine
 10
168.2839209008068
 20
73.18440821317888
 30
0.0
 11
168.1240802247994
 21
72.79851868534294
 31
0.0
  0
LINE
  5
13F
330
1F
100
AcDbEntity
  8
0
100
AcDbLine
 10
168.1240802247994
 20
72.79851868534294
 30
0.0
 11
168.0695615468619
 21
72.38440821317889
 31
0.0
  0
LINE
  5
140
330
1F
100
AcDbEntity
  8
0
100
AcDbLine
 10
168.0695615468619
 20
72.38440821317889
 30
0.0
 11
168.1240802247994
 21
71.97029774101487
 31
0.0
  0
LINE
  5
141
330
1F
100
AcDbEntity
  8
0
100
AcDbLine
 10
168.1240802247994
 20
71.97029774101487
 30
0.0
 11
168.2839209008068
 21
71.58440821317888
 31
0.0
  0
LINE
  5
142
330
1F
100
AcDbEntity
  8
0
100
AcDbLine
 10
168.2839209008068
 20
71.58440821317888
 30
0.0
 11
168.5381906969634
 21
71.25303736328041
 31
0.0
  0
LINE
  5
143
330
1F
100
AcDbEntity
  8
0
100
AcDbLine
 10
168.5381906969634
 20
71.25303736328041
 30
0.0
 11
168.8695615468619
 21
70.99876756712379
 31
0.0
  0
LINE
  5
144
330
1F
100
AcDbEntity
  8
0
100
AcDbLine
 10
168.8695615468619
 20
70.99876756712379
 30
0.0
 11
169.2554510746978
 21
70.83892689111636
 31
0.0
  0
LINE
  5
145
330
1F
100
AcDbEntity
  8
0
100
AcDbLine
 10
169.2554510746978
 20
70.83892689111636
 30
0.0
 11
169.6695615468619
 21
70.78440821317888
 31
0.0
  0
LINE
  5
146
330
1F
100
AcDbEntity
  8
0
100
AcDbLine
 10
169.6695615468619
 20
70.78440821317888
 30
0.0
 11
170.083672019026
 21
70.83892689111636
 31
0.0
  0
LINE
  5
147
330
1F
100
AcDbEntity
  8
0
100
AcDbLine
 10
170.083672019026
 20
70.83892689111636
 30
0.0
 11
170.4695615468619
 21
70.99876756712379
 31
0.0
  0
LINE
  5
148
330
1F
100
AcDbEntity
  8
0
100
AcDbLine
 10
170.4695615468619
 20
70.99876756712379
 30
0.0
 11
170.8009323967604
 21
71.25303736328041
 31
0.0
  0
LINE
  5
149
330
1F
100
AcDbEntity
  8
0
100
AcDbLine
 10
170.8009323967604
 20
71.25303736328041
 30
0.0
 11
171.0552021929171
 21
71.58440821317888
 31
0.0
  0
LINE
  5
14A
330
1F
100
AcDbEntity
  8
0
100
AcDbLine
 10
171.0552021929171
 20
71.58440821317888
 30
0.0
 11
171.2150428689244
 21
71.97029774101483
 31
0.0
  0
LINE
  5
14B
330
1F
100
AcDbEntity
  8
0
100
AcDbLine
 10
171.2150428689244
 20
71.97029774101483
 30
0.0
 11
171.2695615468619
 21
72.38440821317889
 31
0.0
  0
LINE
  5
14C
330
1F
100
AcDbEntity
  8
0
100
AcDbLine
 10
301.269561546862
 20
72.38440821317889
 30
0.0
 11
301.2150428689245
 21
72.79851868534294
 31
0.0
  0
LINE
  5
14D
330
1F
100
AcDbEntity
  8
0
100
AcDbLine
 10
301.2150428689245
 20
72.79851868534294
 30
0.0
 11
301.0552021929171
 21
73.18440821317888
 31
0.0
  0
LINE
  5
14E
330
1F
100
AcDbEntity
  8
0
100
AcDbLine
 10
301.0552021929171
 20
73.18440821317888
 30
0.0
 11
300.8009323967605
 21
73.51577906307735
 31
0.0
  0
LINE
  5
14F
330
1F
100
AcDbEntity
  8
0
100
AcDbLine
 10
300.8009323967605
 20
73.51577906307735
 30
0.0
 11
300.4695615468619
 21
73.77004885923397
 31
0.0
  0
LINE
  5
150
330
1F
100
AcDbEntity
  8
0
100
AcDbLine
 10
300.4695615468619
 20
73.77004885923397
 30
0.0
 11
300.083672019026
 21
73.9298895352414
 31
0.0
  0
LINE
  5
151
330
1F
100
AcDbEntity
  8
0
100
AcDbLine
 10
300.083672019026
 20
73.9298895352414
 30
0.0
 11
299.6695615468619
 21
73.98440821317888
 31
0.0
  0
LINE
  5
152
330
1F
100
AcDbEntity
  8
0
100
AcDbLine
 10
299.6695615468619
 20
73.98440821317888
 30
0.0
 11
299.2554510746979
 21
73.9298895352414
 31
0.0
  0
LINE
  5
153
330
1F
100
AcDbEntity
  8
0
100
AcDbLine
 10
299.2554510746979
 20
73.9298895352414
 30
0.0
 11
298.8695615468619
 21
73.77004885923397
 31
0.0
  0
LINE
  5
154
330
1F
100
AcDbEntity
  8
0
100
AcDbLine
 10
298.8695615468619
 20
73.77004885923397
 30
0.0
 11
298.5381906969635
 21
73.51577906307735
 31
0.0
  0
LINE
  5
155
330
1F
100
AcDbEntity
  8
0
100
AcDbLine
 10
298.5381906969635
 20
73.51577906307735
 30
0.0
 11
298.2839209008068
 21
73.18440821317888
 31
0.0
  0
LINE
  5
156
330
1F
100
AcDbEntity
  8
0
100
AcDbLine
 10
298.2839209008068
 20
73.18440821317888
 30
0.0
 11
298.1240802247994
 21
72.79851868534294
 31
0.0
  0
LINE
  5
157
330
1F
100
AcDbEntity
  8
0
100
AcDbLine
 10
298.1240802247994
 20
72.79851868534294
 30
0.0
 11
298.069561546862
 21
72.38440821317889
 31
0.0
  0
LINE
  5
158
330
1F
100
AcDbEntity
  8
0
100
AcDbLine
 10
298.069561546862
 20
72.38440821317889
 30
0.0
 11
298.1240802247994
 21
71.97029774101487
 31
0.0
  0
LINE
  5
159
330
1F
100
AcDbEntity
  8
0
100
AcDbLine
 10
298.1240802247994
 20
71.97029774101487
 30
0.0
 11
298.2839209008068
 21
71.58440821317888
 31
0.0
  0
LINE
  5
15A
330
1F
100
AcDbEntity
  8
0
100
AcDbLine
 10
298.2839209008068
 20
71.58440821317888
 30
0.0
 11
298.5381906969635
 21
71.25303736328041
 31
0.0
  0
LINE
  5
15B
330
1F
100
AcDbEntity
  8
0
100
AcDbLine
 10
298.5381906969635
 20
71.25303736328041
 30
0.0
 11
298.8695615468619
 21
70.99876756712379
 31
0.0
  0
LINE
  5
15C
330
1F
100
AcDbEntity
  8
0
100
AcDbLine
 10
298.8695615468619
 20
70.99876756712379
 30
0.0
 11
299.2554510746979
 21
70.83892689111636
 31
0.0
  0
LINE
  5
15D
330
1F
100
AcDbEntity
  8
0
100
AcDbLine
 10
299.2554510746979
 20
70.83892689111636
 30
0.0
 11
299.6695615468619
 21
70.78440821317888
 31
0.0
  0
LINE
  5
15E
330
1F
100
AcDbEntity
  8
0
100
AcDbLine
 10
299.6695615468619
 20
70.78440821317888
 30
0.0
 11
300.083672019026
 21
70.83892689111636
 31
0.0
  0
LINE
  5
15F
330
1F
100
AcDbEntity
  8
0
100
AcDbLine
 10
300.083672019026
 20
70.83892689111636
 30
0.0
 11
300.4695615468619
 21
70.99876756712379
 31
0.0
  0
LINE
  5
160
330
1F
100
AcDbEntity
  8
0
100
AcDbLine
 10
300.4695615468619
 20
70.99876756712379
 30
0.0
 11
300.8009323967605
 21
71.25303736328041
 31
0.0
  0
LINE
  5
161
330
1F
100
AcDbEntity
  8
0
100
AcDbLine
 10
300.8009323967605
 20
71.25303736328041
 30
0.0
 11
301.0552021929171
 21
71.58440821317888
 31
0.0
  0
LINE
  5
162
330
1F
100
AcDbEntity
  8
0
100
AcDbLine
 10
301.0552021929171
 20
71.58440821317888
 30
0.0
 11
301.2150428689245
 21
71.97029774101483
 31
0.0
  0
LINE
  5
163
330
1F
100
AcDbEntity
  8
0
100
AcDbLine
 10
301.2150428689245
 20
71.97029774101483
 30
0.0
 11
301.269561546862
 21
72.38440821317889
 31
0.0
  0
LINE
  5
164
330
1F
100
AcDbEntity
  8
0
100
AcDbLine
 10
170.8418176024936
 20
1.295456542977326
 30
0.0
 11
171.0837153774647
 21
1.635963864284824
 31
0.0
  0
LINE
  5
165
330
1F
100
AcDbEntity
  8
0
100
AcDbLine
 10
171.0837153774647
 20
1.635963864284824
 30
0.0
 11
171.2292409058798
 21
2.027476431106694
 31
0.0
  0
LINE
  5
166
330
1F
100
AcDbEntity
  8
0
100
AcDbLine
 10
171.2292409058798
 20
2.027476431106694
 30
0.0
 11
171.26847686347
 21
2.443313309019106
 31
0.0
  0
LINE
  5
167
330
1F
100
AcDbEntity
  8
0
100
AcDbLine
 10
171.26847686347
 20
2.443313309019106
 30
0.0
 11
171.1987493845658
 21
2.855135901995303
 31
0.0
  0
LINE
  5
168
330
1F
100
AcDbEntity
  8
0
100
AcDbLine
 10
171.1987493845658
 20
2.855135901995303
 30
0.0
 11
171.0248102816244
 21
3.23487918089292
 31
0.0
  0
LINE
  5
169
330
1F
100
AcDbEntity
  8
0
100
AcDbLine
 10
171.0248102816244
 20
3.23487918089292
 30
0.0
 11
170.7585132170635
 21
3.556664268810575
 31
0.0
  0
LINE
  5
16A
330
1F
100
AcDbEntity
  8
0
100
AcDbLine
 10
170.7585132170635
 20
3.556664268810575
 30
0.0
 11
170.418005895756
 21
3.798562043781637
 31
0.0
  0
LINE
  5
16B
330
1F
100
AcDbEntity
  8
0
100
AcDbLine
 10
170.418005895756
 20
3.798562043781637
 30
0.0
 11
170.0264933289341
 21
3.94408757219685
 31
0.0
  0
LINE
  5
16C
330
1F
100
AcDbEntity
  8
0
100
AcDbLine
 10
170.0264933289341
 20
3.94408757219685
 30
0.0
 11
169.6106564510216
 21
3.983323529786968
 31
0.0
  0
LINE
  5
16D
330
1F
100
AcDbEntity
  8
0
100
AcDbLine
 10
169.6106564510216
 20
3.983323529786968
 30
0.0
 11
169.1988338580454
 21
3.913596050882753
 31
0.0
  0
LINE
  5
16E
330
1F
100
AcDbEntity
  8
0
100
AcDbLine
 10
169.1988338580454
 20
3.913596050882753
 30
0.0
 11
168.8190905791478
 21
3.739656947941404
 31
0.0
  0
LINE
  5
16F
330
1F
100
AcDbEntity
  8
0
100
AcDbLine
 10
168.8190905791478
 20
3.739656947941404
 30
0.0
 11
168.4973054912302
 21
3.473359883380419
 31
0.0
  0
LINE
  5
170
330
1F
100
AcDbEntity
  8
0
100
AcDbLine
 10
168.4973054912302
 20
3.473359883380419
 30
0.0
 11
168.2554077162591
 21
3.132852562072921
 31
0.0
  0
LINE
  5
171
330
1F
100
AcDbEntity
  8
0
100
AcDbLine
 10
168.2554077162591
 20
3.132852562072921
 30
0.0
 11
168.109882187844
 21
2.741339995251051
 31
0.0
  0
LINE
  5
172
330
1F
100
AcDbEntity
  8
0
100
AcDbLine
 10
168.109882187844
 20
2.741339995251051
 30
0.0
 11
168.0706462302538
 21
2.325503117338639
 31
0.0
  0
LINE
  5
173
330
1F
100
AcDbEntity
  8
0
100
AcDbLine
 10
168.0706462302538
 20
2.325503117338639
 30
0.0
 11
168.140373709158
 21
1.913680524362442
 31
0.0
  0
LINE
  5
174
330
1F
100
AcDbEntity
  8
0
100
AcDbLine
 10
168.140373709158
 20
1.913680524362442
 30
0.0
 11
168.3143128120994
 21
1.533937245464825
 31
0.0
  0
LINE
  5
175
330
1F
100
AcDbEntity
  8
0
100
AcDbLine
 10
168.3143128120994
 20
1.533937245464825
 30
0.0
 11
168.5806098766603
 21
1.212152157547171
 31
0.0
  0
LINE
  5
176
330
1F
100
AcDbEntity
  8
0
100
AcDbLine
 10
168.5806098766603
 20
1.212152157547171
 30
0.0
 11
168.9211171979678
 21
0.9702543825761084
 31
0.0
  0
LINE
  5
177
330
1F
100
AcDbEntity
  8
0
100
AcDbLine
 10
168.9211171979678
 20
0.9702543825761084
 30
0.0
 11
169.3126297647897
 21
0.8247288541608959
 31
0.0
  0
LINE
  5
178
330
1F
100
AcDbEntity
  8
0
100
AcDbLine
 10
169.3126297647897
 20
0.8247288541608959
 30
0.0
 11
169.7284666427022
 21
0.7854928965707768
 31
0.0
  0
LINE
  5
179
330
1F
100
AcDbEntity
  8
0
100
AcDbLine
 10
169.7284666427022
 20
0.7854928965707768
 30
0.0
 11
170.1402892356784
 21
0.8552203754749925
 31
0.0
  0
LINE
  5
17A
330
1F
100
AcDbEntity
  8
0
100
AcDbLine
 10
170.1402892356784
 20
0.8552203754749925
 30
0.0
 11
170.520032514576
 21
1.029159478416342
 31
0.0
  0
LINE
  5
17B
330
1F
100
AcDbEntity
  8
0
100
AcDbLine
 10
170.520032514576
 20
1.029159478416342
 30
0.0
 11
170.8418176024936
 21
1.295456542977326
 31
0.0
  0
LINE
  5
17C
330
1F
100
AcDbEntity
  8
0
100
AcDbLine
 10
298.069561546862
 20
2.384408213178872
 30
0.0
 11
298.1240802247994
 21
1.970297741014841
 31
0.0
  0
LINE
  5
17D
330
1F
100
AcDbEntity
  8
0
100
AcDbLine
 10
298.1240802247994
 20
1.970297741014841
 30
0.0
 11
298.2839209008068
 21
1.584408213178874
 31
0.0
  0
LINE
  5
17E
330
1F
100
AcDbEntity
  8
0
100
AcDbLine
 10
298.2839209008068
 20
1.584408213178874
 30
0.0
 11
298.5381906969635
 21
1.253037363280403
 31
0.0
  0
LINE
  5
17F
330
1F
100
AcDbEntity
  8
0
100
AcDbLine
 10
298.5381906969635
 20
1.253037363280403
 30
0.0
 11
298.8695615468619
 21
0.9987675671237655
 31
0.0
  0
LINE
  5
180
330
1F
100
AcDbEntity
  8
0
100
AcDbLine
 10
298.8695615468619
 20
0.9987675671237655
 30
0.0
 11
299.2554510746979
 21
0.8389268911163709
 31
0.0
  0
LINE
  5
181
330
1F
100
AcDbEntity
  8
0
100
AcDbLine
 10
299.2554510746979
 20
0.8389268911163709
 30
0.0
 11
299.6695615468619
 21
0.7844082131788755
 31
0.0
  0
LINE
  5
182
330
1F
100
AcDbEntity
  8
0
100
AcDbLine
 10
299.6695615468619
 20
0.7844082131788755
 30
0.0
 11
300.083672019026
 21
0.8389268911163709
 31
0.0
  0
LINE
  5
183
330
1F
100
AcDbEntity
  8
0
100
AcDbLine
 10
300.083672019026
 20
0.8389268911163709
 30
0.0
 11
300.4695615468619
 21
0.9987675671237655
 31
0.0
  0
LINE
  5
184
330
1F
100
AcDbEntity
  8
0
100
AcDbLine
 10
300.4695615468619
 20
0.9987675671237655
 30
0.0
 11
300.8009323967605
 21
1.253037363280403
 31
0.0
  0
LINE
  5
185
330
1F
100
AcDbEntity
  8
0
100
AcDbLine
 10
300.8009323967605
 20
1.253037363280403
 30
0.0
 11
301.0552021929171
 21
1.584408213178874
 31
0.0
  0
LINE
  5
186
330
1F
100
AcDbEntity
  8
0
100
AcDbLine
 10
301.0552021929171
 20
1.584408213178874
 30
0.0
 11
301.2150428689245
 21
1.970297741014841
 31
0.0
  0
LINE
  5
187
330
1F
100
AcDbEntity
  8
0
100
AcDbLine
 10
301.2150428689245
 20
1.970297741014841
 30
0.0
 11
301.269561546862
 21
2.384408213178872
 31
0.0
  0
LINE
  5
188
330
1F
100
AcDbEntity
  8
0
100
AcDbLine
 10
301.269561546862
 20
2.384408213178872
 30
0.0
 11
301.2150428689245
 21
2.798518685342905
 31
0.0
  0
LINE
  5
189
330
1F
100
AcDbEntity
  8
0
100
AcDbLine
 10
301.2150428689245
 20
2.798518685342905
 30
0.0
 11
301.0552021929171
 21
3.184408213178871
 31
0.0
  0
LINE
  5
18A
330
1F
100
AcDbEntity
  8
0
100
AcDbLine
 10
301.0552021929171
 20
3.184408213178871
 30
0.0
 11
300.8009323967605
 21
3.515779063077343
 31
0.0
  0
LINE
  5
18B
330
1F
100
AcDbEntity
  8
0
100
AcDbLine
 10
300.8009323967605
 20
3.515779063077343
 30
0.0
 11
300.4695615468619
 21
3.77004885923398
 31
0.0
  0
LINE
  5
18C
330
1F
100
AcDbEntity
  8
0
100
AcDbLine
 10
300.4695615468619
 20
3.77004885923398
 30
0.0
 11
300.083672019026
 21
3.929889535241375
 31
0.0
  0
LINE
  5
18D
330
1F
100
AcDbEntity
  8
0
100
AcDbLine
 10
300.083672019026
 20
3.929889535241375
 30
0.0
 11
299.6695615468619
 21
3.98440821317887
 31
0.0
  0
LINE
  5
18E
330
1F
100
AcDbEntity
  8
0
100
AcDbLine
 10
299.6695615468619
 20
3.98440821317887
 30
0.0
 11
299.2554510746979
 21
3.929889535241375
 31
0.0
  0
LINE
  5
18F
330
1F
100
AcDbEntity
  8
0
100
AcDbLine
 10
299.2554510746979
 20
3.929889535241375
 30
0.0
 11
298.8695615468619
 21
3.77004885923398
 31
0.0
  0
LINE
  5
190
330
1F
100
AcDbEntity
  8
0
100
AcDbLine
 10
298.8695615468619
 20
3.77004885923398
 30
0.0
 11
298.5381906969635
 21
3.515779063077343
 31
0.0
  0
LINE
  5
191
330
1F
100
AcDbEntity
  8
0
100
AcDbLine
 10
298.5381906969635
 20
3.515779063077343
 30
0.0
 11
298.2839209008068
 21
3.184408213178871
 31
0.0
  0
LINE
  5
192
330
1F
100
AcDbEntity
  8
0
100
AcDbLine
 10
298.2839209008068
 20
3.184408213178871
 30
0.0
 11
298.1240802247994
 21
2.798518685342905
 31
0.0
  0
LINE
  5
193
330
1F
100
AcDbEntity
  8
0
100
AcDbLine
 10
298.1240802247994
 20
2.798518685342905
 30
0.0
 11
298.069561546862
 21
2.384408213178872
 31
0.0
  0
LINE
  5
194
330
1F
100
AcDbEntity
  8
0
100
AcDbLine
 10
-492.7304384531382
 20
-47.61559178682113
 30
0.0
 11
-492.7849571310758
 21
-47.20148131465709
 31
0.0
  0
LINE
  5
195
330
1F
100
AcDbEntity
  8
0
100
AcDbLine
 10
-492.7849571310758
 20
-47.20148131465709
 30
0.0
 11
-492.9447978070831
 21
-46.81559178682113
 31
0.0
  0
LINE
  5
196
330
1F
100
AcDbEntity
  8
0
100
AcDbLine
 10
-492.9447978070831
 20
-46.81559178682113
 30
0.0
 11
-493.1990676032398
 21
-46.48422093692265
 31
0.0
  0
LINE
  5
197
330
1F
100
AcDbEntity
  8
0
100
AcDbLine
 10
-493.1990676032398
 20
-46.48422093692265
 30
0.0
 11
-493.5304384531382
 21
-46.22995114076602
 31
0.0
  0
LINE
  5
198
330
1F
100
AcDbEntity
  8
0
100
AcDbLine
 10
-493.5304384531382
 20
-46.22995114076602
 30
0.0
 11
-493.9163279809742
 21
-46.07011046475863
 31
0.0
  0
LINE
  5
199
330
1F
100
AcDbEntity
  8
0
100
AcDbLine
 10
-493.9163279809742
 20
-46.07011046475863
 30
0.0
 11
-494.3304384531382
 21
-46.01559178682113
 31
0.0
  0
LINE
  5
19A
330
1F
100
AcDbEntity
  8
0
100
AcDbLine
 10
-494.3304384531382
 20
-46.01559178682113
 30
0.0
 11
-494.7445489253023
 21
-46.07011046475863
 31
0.0
  0
LINE
  5
19B
330
1F
100
AcDbEntity
  8
0
100
AcDbLine
 10
-494.7445489253023
 20
-46.07011046475863
 30
0.0
 11
-495.1304384531383
 21
-46.22995114076602
 31
0.0
  0
LINE
  5
19C
330
1F
100
AcDbEntity
  8
0
100
AcDbLine
 10
-495.1304384531383
 20
-46.22995114076602
 30
0.0
 11
-495.4618093030367
 21
-46.48422093692265
 31
0.0
  0
LINE
  5
19D
330
1F
100
AcDbEntity
  8
0
100
AcDbLine
 10
-495.4618093030367
 20
-46.48422093692265
 30
0.0
 11
-495.7160790991933
 21
-46.81559178682113
 31
0.0
  0
LINE
  5
19E
330
1F
100
AcDbEntity
  8
0
100
AcDbLine
 10
-495.7160790991933
 20
-46.81559178682113
 30
0.0
 11
-495.8759197752007
 21
-47.20148131465709
 31
0.0
  0
LINE
  5
19F
330
1F
100
AcDbEntity
  8
0
100
AcDbLine
 10
-495.8759197752007
 20
-47.20148131465709
 30
0.0
 11
-495.9304384531382
 21
-47.61559178682113
 31
0.0
  0
LINE
  5
1A0
330
1F
100
AcDbEntity
  8
0
100
AcDbLine
 10
-495.9304384531382
 20
-47.61559178682113
 30
0.0
 11
-495.8759197752007
 21
-48.02970225898516
 31
0.0
  0
LINE
  5
1A1
330
1F
100
AcDbEntity
  8
0
100
AcDbLine
 10
-495.8759197752007
 20
-48.02970225898516
 30
0.0
 11
-495.7160790991933
 21
-48.41559178682112
 31
0.0
  0
LINE
  5
1A2
330
1F
100
AcDbEntity
  8
0
100
AcDbLine
 10
-495.7160790991933
 20
-48.41559178682112
 30
0.0
 11
-495.4618093030367
 21
-48.74696263671959
 31
0.0
  0
LINE
  5
1A3
330
1F
100
AcDbEntity
  8
0
100
AcDbLine
 10
-495.4618093030367
 20
-48.74696263671959
 30
0.0
 11
-495.1304384531383
 21
-49.00123243287624
 31
0.0
  0
LINE
  5
1A4
330
1F
100
AcDbEntity
  8
0
100
AcDbLine
 10
-495.1304384531383
 20
-49.00123243287624
 30
0.0
 11
-494.7445489253023
 21
-49.16107310888363
 31
0.0
  0
LINE
  5
1A5
330
1F
100
AcDbEntity
  8
0
100
AcDbLine
 10
-494.7445489253023
 20
-49.16107310888363
 30
0.0
 11
-494.3304384531382
 21
-49.21559178682112
 31
0.0
  0
LINE
  5
1A6
330
1F
100
AcDbEntity
  8
0
100
AcDbLine
 10
-494.3304384531382
 20
-49.21559178682112
 30
0.0
 11
-493.9163279809742
 21
-49.16107310888363
 31
0.0
  0
LINE
  5
1A7
330
1F
100
AcDbEntity
  8
0
100
AcDbLine
 10
-493.9163279809742
 20
-49.16107310888363
 30
0.0
 11
-493.5304384531382
 21
-49.00123243287624
 31
0.0
  0
LINE
  5
1A8
330
1F
100
AcDbEntity
  8
0
100
AcDbLine
 10
-493.5304384531382
 20
-49.00123243287624
 30
0.0
 11
-493.1990676032398
 21
-48.74696263671959
 31
0.0
  0
LINE
  5
1A9
330
1F
100
AcDbEntity
  8
0
100
AcDbLine
 10
-493.1990676032398
 20
-48.74696263671959
 30
0.0
 11
-492.9447978070831
 21
-48.41559178682112
 31
0.0
  0
LINE
  5
1AA
330
1F
100
AcDbEntity
  8
0
100
AcDbLine
 10
-492.9447978070831
 20
-48.41559178682112
 30
0.0
 11
-492.7849571310758
 21
-48.02970225898516
 31
0.0
  0
LINE
  5
1AB
330
1F
100
AcDbEntity
  8
0
100
AcDbLine
 10
-492.7849571310758
 20
-48.02970225898516
 30
0.0
 11
-492.7304384531382
 21
-47.61559178682113
 31
0.0
  0
LINE
  5
1AC
330
1F
100
AcDbEntity
  8
0
100
AcDbLine
 10
-495.9304384531382
 20
7.384408213178864
 30
0.0
 11
-495.8759197752007
 21
6.970297741014854
 31
0.0
  0
LINE
  5
1AD
330
1F
100
AcDbEntity
  8
0
100
AcDbLine
 10
-495.8759197752007
 20
7.798518685342873
 30
0.0
 11
-495.9304384531382
 21
7.384408213178864
 31
0.0
  0
LINE
  5
1AE
330
1F
100
AcDbEntity
  8
0
100
AcDbLine
 10
-494.7445489253023
 20
8.929889535241388
 30
0.0
 11
-495.1304384531383
 21
8.770048859233949
 31
0.0
  0
LINE
  5
1AF
330
1F
100
AcDbEntity
  8
0
100
AcDbLine
 10
-494.3304384531382
 20
8.984408213178861
 30
0.0
 11
-494.7445489253023
 21
8.929889535241388
 31
0.0
  0
LINE
  5
1B0
330
1F
100
AcDbEntity
  8
0
100
AcDbLine
 10
-493.9163279809742
 20
8.929889535241388
 30
0.0
 11
-494.3304384531382
 21
8.984408213178861
 31
0.0
  0
LINE
  5
1B1
330
1F
100
AcDbEntity
  8
0
100
AcDbLine
 10
-493.1990676032398
 20
8.515779063077334
 30
0.0
 11
-493.5304384531382
 21
8.770048859233949
 31
0.0
  0
LINE
  5
1B2
330
1F
100
AcDbEntity
  8
0
100
AcDbLine
 10
-493.5304384531382
 20
8.770048859233949
 30
0.0
 11
-493.9163279809742
 21
8.929889535241388
 31
0.0
  0
LINE
  5
1B3
330
1F
100
AcDbEntity
  8
0
100
AcDbLine
 10
-495.4618093030367
 20
8.515779063077334
 30
0.0
 11
-495.7160790991933
 21
8.184408213178862
 31
0.0
  0
LINE
  5
1B4
330
1F
100
AcDbEntity
  8
0
100
AcDbLine
 10
-495.1304384531383
 20
8.770048859233949
 30
0.0
 11
-495.4618093030367
 21
8.515779063077334
 31
0.0
  0
LINE
  5
1B5
330
1F
100
AcDbEntity
  8
0
100
AcDbLine
 10
-492.7304384531382
 20
7.384408213178864
 30
0.0
 11
-492.7849571310758
 21
7.798518685342873
 31
0.0
  0
LINE
  5
1B6
330
1F
100
AcDbEntity
  8
0
100
AcDbLine
 10
-492.7849571310758
 20
7.798518685342873
 30
0.0
 11
-492.9447978070831
 21
8.184408213178862
 31
0.0
  0
LINE
  5
1B7
330
1F
100
AcDbEntity
  8
0
100
AcDbLine
 10
-493.5304384531382
 20
5.998767567123779
 30
0.0
 11
-493.1990676032398
 21
6.253037363280393
 31
0.0
  0
LINE
  5
1B8
330
1F
100
AcDbEntity
  8
0
100
AcDbLine
 10
-492.7849571310758
 20
6.970297741014854
 30
0.0
 11
-492.7304384531382
 21
7.384408213178864
 31
0.0
  0
LINE
  5
1B9
330
1F
100
AcDbEntity
  8
0
100
AcDbLine
 10
-492.9447978070831
 20
6.584408213178865
 30
0.0
 11
-492.7849571310758
 21
6.970297741014854
 31
0.0
  0
LINE
  5
1BA
330
1F
100
AcDbEntity
  8
0
100
AcDbLine
 10
-493.1990676032398
 20
6.253037363280393
 30
0.0
 11
-492.9447978070831
 21
6.584408213178865
 31
0.0
  0
LINE
  5
1BB
330
1F
100
AcDbEntity
  8
0
100
AcDbLine
 10
-493.9163279809742
 20
5.838926891116339
 30
0.0
 11
-493.5304384531382
 21
5.998767567123779
 31
0.0
  0
LINE
  5
1BC
330
1F
100
AcDbEntity
  8
0
100
AcDbLine
 10
-494.3304384531382
 20
5.784408213178867
 30
0.0
 11
-493.9163279809742
 21
5.838926891116339
 31
0.0
  0
LINE
  5
1BD
330
1F
100
AcDbEntity
  8
0
100
AcDbLine
 10
-494.7445489253023
 20
5.838926891116339
 30
0.0
 11
-494.3304384531382
 21
5.784408213178867
 31
0.0
  0
LINE
  5
1BE
330
1F
100
AcDbEntity
  8
0
100
AcDbLine
 10
-495.1304384531383
 20
5.998767567123779
 30
0.0
 11
-494.7445489253023
 21
5.838926891116339
 31
0.0
  0
LINE
  5
1BF
330
1F
100
AcDbEntity
  8
0
100
AcDbLine
 10
-495.4618093030367
 20
6.253037363280393
 30
0.0
 11
-495.1304384531383
 21
5.998767567123779
 31
0.0
  0
LINE
  5
1C0
330
1F
100
AcDbEntity
  8
0
100
AcDbLine
 10
-495.7160790991933
 20
6.584408213178865
 30
0.0
 11
-495.4618093030367
 21
6.253037363280393
 31
0.0
  0
LINE
  5
1C1
330
1F
100
AcDbEntity
  8
0
100
AcDbLine
 10
-495.8759197752007
 20
6.970297741014854
 30
0.0
 11
-495.7160790991933
 21
6.584408213178865
 31
0.0
  0
LINE
  5
1C2
330
1F
100
AcDbEntity
  8
0
100
AcDbLine
 10
-495.7160790991933
 20
8.184408213178862
 30
0.0
 11
-495.8759197752007
 21
7.798518685342873
 31
0.0
  0
LINE
  5
1C3
330
1F
100
AcDbEntity
  8
0
100
AcDbLine
 10
-492.9447978070831
 20
8.184408213178862
 30
0.0
 11
-493.1990676032398
 21
8.515779063077334
 31
0.0
  0
LINE
  5
1C4
330
1F
100
AcDbEntity
  8
0
100
AcDbLine
 10
-485.3304384531382
 20
0.3844082131789214
 30
0.0
 11
-503.3304384531382
 21
0.3844082131789214
 31
0.0
  0
LINE
  5
1C5
330
1F
100
AcDbEntity
  8
0
100
AcDbLine
 10
-503.3304384531382
 20
0.3844082131789214
 30
0.0
 11
-503.3304384531382
 21
-40.61559178682114
 31
0.0
  0
LINE
  5
1C6
330
1F
100
AcDbEntity
  8
0
100
AcDbLine
 10
-503.3304384531382
 20
-40.61559178682114
 30
0.0
 11
-485.3304384531382
 21
-40.61559178682114
 31
0.0
  0
LINE
  5
1C7
330
1F
100
AcDbEntity
  8
0
100
AcDbLine
 10
-485.3304384531382
 20
-40.61559178682114
 30
0.0
 11
-485.3304384531382
 21
0.3844082131789214
 31
0.0
  0
LINE
  5
1C8
330
1F
100
AcDbEntity
  8
0
100
AcDbLine
 10
-498.9019377290235
 20
123.1050923889478
 30
0.0
 11
-499.1371395010362
 21
123.4502588644956
 31
0.0
  0
LINE
  5
1C9
330
1F
100
AcDbEntity
  8
0
100
AcDbLine
 10
-499.1371395010362
 20
123.4502588644956
 30
0.0
 11
-499.4536626246149
 21
123.7227893795576
 31
0.0
  0
LINE
  5
1CA
330
1F
100
AcDbEntity
  8
0
100
AcDbLine
 10
-499.4536626246149
 20
123.7227893795576
 30
0.0
 11
-499.829936571967
 21
123.9041114299104
 31
0.0
  0
LINE
  5
1CB
330
1F
100
AcDbEntity
  8
0
100
AcDbLine
 10
-499.829936571967
 20
123.9041114299104
 30
0.0
 11
-500.2403188954023
 21
123.9818682174711
 31
0.0
  0
LINE
  5
1CC
330
1F
100
AcDbEntity
  8
0
100
AcDbLine
 10
-500.2403188954023
 20
123.9818682174711
 30
0.0
 11
-500.6568427177677
 21
123.9507607456669
 31
0.0
  0
LINE
  5
1CD
330
1F
100
AcDbEntity
  8
0
100
AcDbLine
 10
-500.6568427177677
 20
123.9507607456669
 30
0.0
 11
-501.0511226289073
 21
123.8129089372936
 31
0.0
  0
LINE
  5
1CE
330
1F
100
AcDbEntity
  8
0
100
AcDbLine
 10
-501.0511226289073
 20
123.8129089372936
 30
0.0
 11
-501.3962891044549
 21
123.5777071652809
 31
0.0
  0
LINE
  5
1CF
330
1F
100
AcDbEntity
  8
0
100
AcDbLine
 10
-501.3962891044549
 20
123.5777071652809
 30
0.0
 11
-501.6688196195169
 21
123.2611840417022
 31
0.0
  0
LINE
  5
1D0
330
1F
100
AcDbEntity
  8
0
100
AcDbLine
 10
-501.6688196195169
 20
123.2611840417022
 30
0.0
 11
-501.8501416698697
 21
122.8849100943502
 31
0.0
  0
LINE
  5
1D1
330
1F
100
AcDbEntity
  8
0
100
AcDbLine
 10
-501.8501416698697
 20
122.8849100943502
 30
0.0
 11
-501.9278984574305
 21
122.4745277709149
 31
0.0
  0
LINE
  5
1D2
330
1F
100
AcDbEntity
  8
0
100
AcDbLine
 10
-501.9278984574305
 20
122.4745277709149
 30
0.0
 11
-501.8967909856263
 21
122.0580039485494
 31
0.0
  0
LINE
  5
1D3
330
1F
100
AcDbEntity
  8
0
100
AcDbLine
 10
-501.8967909856263
 20
122.0580039485494
 30
0.0
 11
-501.7589391772529
 21
121.6637240374099
 31
0.0
  0
LINE
  5
1D4
330
1F
100
AcDbEntity
  8
0
100
AcDbLine
 10
-501.7589391772529
 20
121.6637240374099
 30
0.0
 11
-501.5237374052402
 21
121.3185575618622
 31
0.0
  0
LINE
  5
1D5
330
1F
100
AcDbEntity
  8
0
100
AcDbLine
 10
-501.5237374052402
 20
121.3185575618622
 30
0.0
 11
-501.2072142816615
 21
121.0460270468002
 31
0.0
  0
LINE
  5
1D6
330
1F
100
AcDbEntity
  8
0
100
AcDbLine
 10
-501.2072142816615
 20
121.0460270468002
 30
0.0
 11
-500.8309403343096
 21
120.8647049964474
 31
0.0
  0
LINE
  5
1D7
330
1F
100
AcDbEntity
  8
0
100
AcDbLine
 10
-500.8309403343096
 20
120.8647049964474
 30
0.0
 11
-500.4205580108742
 21
120.7869482088866
 31
0.0
  0
LINE
  5
1D8
330
1F
100
AcDbEntity
  8
0
100
AcDbLine
 10
-500.4205580108742
 20
120.7869482088866
 30
0.0
 11
-500.0040341885087
 21
120.8180556806908
 31
0.0
  0
LINE
  5
1D9
330
1F
100
AcDbEntity
  8
0
100
AcDbLine
 10
-500.0040341885087
 20
120.8180556806908
 30
0.0
 11
-499.6097542773693
 21
120.9559074890642
 31
0.0
  0
LINE
  5
1DA
330
1F
100
AcDbEntity
  8
0
100
AcDbLine
 10
-499.6097542773693
 20
120.9559074890642
 30
0.0
 11
-499.2645878018215
 21
121.1911092610769
 31
0.0
  0
LINE
  5
1DB
330
1F
100
AcDbEntity
  8
0
100
AcDbLine
 10
-499.2645878018215
 20
121.1911092610769
 30
0.0
 11
-498.9920572867595
 21
121.5076323846556
 31
0.0
  0
LINE
  5
1DC
330
1F
100
AcDbEntity
  8
0
100
AcDbLine
 10
-498.9920572867595
 20
121.5076323846556
 30
0.0
 11
-498.8107352364067
 21
121.8839063320076
 31
0.0
  0
LINE
  5
1DD
330
1F
100
AcDbEntity
  8
0
100
AcDbLine
 10
-498.8107352364067
 20
121.8839063320076
 30
0.0
 11
-498.732978448846
 21
122.2942886554429
 31
0.0
  0
LINE
  5
1DE
330
1F
100
AcDbEntity
  8
0
100
AcDbLine
 10
-498.732978448846
 20
122.2942886554429
 30
0.0
 11
-498.7640859206502
 21
122.7108124778083
 31
0.0
  0
LINE
  5
1DF
330
1F
100
AcDbEntity
  8
0
100
AcDbLine
 10
-498.7640859206502
 20
122.7108124778083
 30
0.0
 11
-498.9019377290235
 21
123.1050923889478
 31
0.0
  0
LINE
  5
1E0
330
1F
100
AcDbEntity
  8
0
100
AcDbLine
 10
-476.0034317583027
 20
123.2783059880175
 30
0.0
 11
-476.2800061834411
 21
123.5913017655598
 31
0.0
  0
LINE
  5
1E1
330
1F
100
AcDbEntity
  8
0
100
AcDbLine
 10
-476.2800061834411
 20
123.5913017655598
 30
0.0
 11
-476.6281658318379
 21
123.8220497419933
 31
0.0
  0
LINE
  5
1E2
330
1F
100
AcDbEntity
  8
0
100
AcDbLine
 10
-476.6281658318379
 20
123.8220497419933
 30
0.0
 11
-477.024184198816
 21
123.954824824053
 31
0.0
  0
LINE
  5
1E3
330
1F
100
AcDbEntity
  8
0
100
AcDbLine
 10
-477.024184198816
 20
123.954824824053
 30
0.0
 11
-477.4410732871171
 21
123.9805786093178
 31
0.0
  0
LINE
  5
1E4
330
1F
100
AcDbEntity
  8
0
100
AcDbLine
 10
-477.4410732871171
 20
123.9805786093178
 30
0.0
 11
-477.8504227943152
 21
123.8975560198821
 31
0.0
  0
LINE
  5
1E5
330
1F
100
AcDbEntity
  8
0
100
AcDbLine
 10
-477.8504227943152
 20
123.8975560198821
 30
0.0
 11
-478.2243362279769
 21
123.7114149080145
 31
0.0
  0
LINE
  5
1E6
330
1F
100
AcDbEntity
  8
0
100
AcDbLine
 10
-478.2243362279769
 20
123.7114149080145
 30
0.0
 11
-478.5373320055192
 21
123.4348404828761
 31
0.0
  0
LINE
  5
1E7
330
1F
100
AcDbEntity
  8
0
100
AcDbLine
 10
-478.5373320055192
 20
123.4348404828761
 30
0.0
 11
-478.7680799819527
 21
123.0866808344792
 31
0.0
  0
LINE
  5
1E8
330
1F
100
AcDbEntity
  8
0
100
AcDbLine
 10
-478.7680799819527
 20
123.0866808344792
 30
0.0
 11
-478.9008550640124
 21
122.6906624675011
 31
0.0
  0
LINE
  5
1E9
330
1F
100
AcDbEntity
  8
0
100
AcDbLine
 10
-478.9008550640124
 20
122.6906624675011
 30
0.0
 11
-478.9266088492772
 21
122.2737733792
 31
0.0
  0
LINE
  5
1EA
330
1F
100
AcDbEntity
  8
0
100
AcDbLine
 10
-478.9266088492772
 20
122.2737733792
 30
0.0
 11
-478.8435862598414
 21
121.8644238720019
 31
0.0
  0
LINE
  5
1EB
330
1F
100
AcDbEntity
  8
0
100
AcDbLine
 10
-478.8435862598414
 20
121.8644238720019
 30
0.0
 11
-478.6574451479739
 21
121.4905104383402
 31
0.0
  0
LINE
  5
1EC
330
1F
100
AcDbEntity
  8
0
100
AcDbLine
 10
-478.6574451479739
 20
121.4905104383402
 30
0.0
 11
-478.3808707228355
 21
121.1775146607979
 31
0.0
  0
LINE
  5
1ED
330
1F
100
AcDbEntity
  8
0
100
AcDbLine
 10
-478.3808707228355
 20
121.1775146607979
 30
0.0
 11
-478.0327110744386
 21
120.9467666843644
 31
0.0
  0
LINE
  5
1EE
330
1F
100
AcDbEntity
  8
0
100
AcDbLine
 10
-478.0327110744386
 20
120.9467666843644
 30
0.0
 11
-477.6366927074605
 21
120.8139916023047
 31
0.0
  0
LINE
  5
1EF
330
1F
100
AcDbEntity
  8
0
100
AcDbLine
 10
-477.6366927074605
 20
120.8139916023047
 30
0.0
 11
-477.2198036191594
 21
120.7882378170399
 31
0.0
  0
LINE
  5
1F0
330
1F
100
AcDbEntity
  8
0
100
AcDbLine
 10
-477.2198036191594
 20
120.7882378170399
 30
0.0
 11
-476.8104541119612
 21
120.8712604064757
 31
0.0
  0
LINE
  5
1F1
330
1F
100
AcDbEntity
  8
0
100
AcDbLine
 10
-476.8104541119612
 20
120.8712604064757
 30
0.0
 11
-476.4365406782995
 21
121.0574015183433
 31
0.0
  0
LINE
  5
1F2
330
1F
100
AcDbEntity
  8
0
100
AcDbLine
 10
-476.4365406782995
 20
121.0574015183433
 30
0.0
 11
-476.1235449007573
 21
121.3339759434817
 31
0.0
  0
LINE
  5
1F3
330
1F
100
AcDbEntity
  8
0
100
AcDbLine
 10
-476.1235449007573
 20
121.3339759434817
 30
0.0
 11
-475.8927969243238
 21
121.6821355918786
 31
0.0
  0
LINE
  5
1F4
330
1F
100
AcDbEntity
  8
0
100
AcDbLine
 10
-475.8927969243238
 20
121.6821355918786
 30
0.0
 11
-475.7600218422641
 21
122.0781539588566
 31
0.0
  0
LINE
  5
1F5
330
1F
100
AcDbEntity
  8
0
100
AcDbLine
 10
-475.7600218422641
 20
122.0781539588566
 30
0.0
 11
-475.7342680569993
 21
122.4950430471577
 31
0.0
  0
LINE
  5
1F6
330
1F
100
AcDbEntity
  8
0
100
AcDbLine
 10
-475.7342680569993
 20
122.4950430471577
 30
0.0
 11
-475.817290646435
 21
122.9043925543558
 31
0.0
  0
LINE
  5
1F7
330
1F
100
AcDbEntity
  8
0
100
AcDbLine
 10
-475.817290646435
 20
122.9043925543558
 30
0.0
 11
-476.0034317583027
 21
123.2783059880175
 31
0.0
  0
LINE
  5
1F8
330
1F
100
AcDbEntity
  8
0
100
AcDbLine
 10
-499.1371395010362
 20
79.45025886449557
 30
0.0
 11
-499.4536626246149
 21
79.72278937955758
 31
0.0
  0
LINE
  5
1F9
330
1F
100
AcDbEntity
  8
0
100
AcDbLine
 10
-498.732978448846
 20
78.29428865544287
 30
0.0
 11
-498.7640859206502
 21
78.71081247780832
 31
0.0
  0
LINE
  5
1FA
330
1F
100
AcDbEntity
  8
0
100
AcDbLine
 10
-500.0040341885087
 20
76.81805568069082
 30
0.0
 11
-499.6097542773693
 21
76.95590748906416
 31
0.0
  0
LINE
  5
1FB
330
1F
100
AcDbEntity
  8
0
100
AcDbLine
 10
-501.5237374052402
 20
77.31855756186216
 30
0.0
 11
-501.2072142816615
 21
77.04602704680015
 31
0.0
  0
LINE
  5
1FC
330
1F
100
AcDbEntity
  8
0
100
AcDbLine
 10
-501.0511226289073
 20
79.81290893729359
 30
0.0
 11
-501.3962891044549
 21
79.57770716528086
 31
0.0
  0
LINE
  5
1FD
330
1F
100
AcDbEntity
  8
0
100
AcDbLine
 10
-501.8967909856263
 20
78.05800394854941
 30
0.0
 11
-501.7589391772529
 21
77.6637240374099
 31
0.0
  0
LINE
  5
1FE
330
1F
100
AcDbEntity
  8
0
100
AcDbLine
 10
-500.4205580108742
 20
76.7869482088866
 30
0.0
 11
-500.0040341885087
 21
76.81805568069082
 31
0.0
  0
LINE
  5
1FF
330
1F
100
AcDbEntity
  8
0
100
AcDbLine
 10
-478.8435862598414
 20
77.86442387200191
 30
0.0
 11
-478.6574451479739
 21
77.49051043834022
 31
0.0
  0
LINE
  5
200
330
1F
100
AcDbEntity
  8
0
100
AcDbLine
 10
-478.9008550640124
 20
78.69066246750111
 30
0.0
 11
-478.9266088492772
 21
78.27377337920002
 31
0.0
  0
LINE
  5
201
330
1F
100
AcDbEntity
  8
0
100
AcDbLine
 10
-478.0327110744386
 20
76.94676668436442
 30
0.0
 11
-477.6366927074605
 21
76.8139916023047
 31
0.0
  0
LINE
  5
202
330
1F
100
AcDbEntity
  8
0
100
AcDbLine
 10
-475.7342680569993
 20
78.49504304715771
 30
0.0
 11
-475.817290646435
 21
78.90439255435584
 31
0.0
  0
LINE
  5
203
330
1F
100
AcDbEntity
  8
0
100
AcDbLine
 10
-500.8309403343096
 20
76.86470499644739
 30
0.0
 11
-500.4205580108742
 21
76.7869482088866
 31
0.0
  0
LINE
  5
204
330
1F
100
AcDbEntity
  8
0
100
AcDbLine
 10
-500.2403188954023
 20
79.98186821747113
 30
0.0
 11
-500.6568427177677
 21
79.95076074566693
 31
0.0
  0
LINE
  5
205
330
1F
100
AcDbEntity
  8
0
100
AcDbLine
 10
-476.0034317583027
 20
79.27830598801752
 30
0.0
 11
-476.2800061834411
 21
79.59130176555983
 31
0.0
  0
LINE
  5
206
330
1F
100
AcDbEntity
  8
0
100
AcDbLine
 10
-478.9266088492772
 20
78.27377337920002
 30
0.0
 11
-478.8435862598414
 21
77.86442387200191
 31
0.0
  0
LINE
  5
207
330
1F
100
AcDbEntity
  8
0
100
AcDbLine
 10
-499.829936571967
 20
79.90411142991034
 30
0.0
 11
-500.2403188954023
 21
79.98186821747113
 31
0.0
  0
LINE
  5
208
330
1F
100
AcDbEntity
  8
0
100
AcDbLine
 10
-501.6688196195169
 20
79.26118404170217
 30
0.0
 11
-501.8501416698697
 21
78.88491009435018
 31
0.0
  0
LINE
  5
209
330
1F
100
AcDbEntity
  8
0
100
AcDbLine
 10
-476.1235449007573
 20
77.33397594348166
 30
0.0
 11
-475.8927969243238
 21
77.68213559187855
 31
0.0
  0
LINE
  5
20A
330
1F
100
AcDbEntity
  8
0
100
AcDbLine
 10
-478.5373320055192
 20
79.43484048287607
 30
0.0
 11
-478.7680799819527
 21
79.08668083447918
 31
0.0
  0
LINE
  5
20B
330
1F
100
AcDbEntity
  8
0
100
AcDbLine
 10
-478.7680799819527
 20
79.08668083447918
 30
0.0
 11
-478.9008550640124
 21
78.69066246750111
 31
0.0
  0
LINE
  5
20C
330
1F
100
AcDbEntity
  8
0
100
AcDbLine
 10
-501.3962891044549
 20
79.57770716528086
 30
0.0
 11
-501.6688196195169
 21
79.26118404170217
 31
0.0
  0
LINE
  5
20D
330
1F
100
AcDbEntity
  8
0
100
AcDbLine
 10
-498.7640859206502
 20
78.71081247780832
 30
0.0
 11
-498.9019377290235
 21
79.10509238894782
 31
0.0
  0
LINE
  5
20E
330
1F
100
AcDbEntity
  8
0
100
AcDbLine
 10
-499.2645878018215
 20
77.19110926107689
 30
0.0
 11
-498.9920572867595
 21
77.50763238465557
 31
0.0
  0
LINE
  5
20F
330
1F
100
AcDbEntity
  8
0
100
AcDbLine
 10
-500.6568427177677
 20
79.95076074566693
 30
0.0
 11
-501.0511226289073
 21
79.81290893729359
 31
0.0
  0
LINE
  5
210
330
1F
100
AcDbEntity
  8
0
100
AcDbLine
 10
-499.4536626246149
 20
79.72278937955758
 30
0.0
 11
-499.829936571967
 21
79.90411142991034
 31
0.0
  0
LINE
  5
211
330
1F
100
AcDbEntity
  8
0
100
AcDbLine
 10
-498.9019377290235
 20
79.10509238894782
 30
0.0
 11
-499.1371395010362
 21
79.45025886449557
 31
0.0
  0
LINE
  5
212
330
1F
100
AcDbEntity
  8
0
100
AcDbLine
 10
-498.8107352364067
 20
77.88390633200757
 30
0.0
 11
-498.732978448846
 21
78.29428865544287
 31
0.0
  0
LINE
  5
213
330
1F
100
AcDbEntity
  8
0
100
AcDbLine
 10
-498.9920572867595
 20
77.50763238465557
 30
0.0
 11
-498.8107352364067
 21
77.88390633200757
 31
0.0
  0
LINE
  5
214
330
1F
100
AcDbEntity
  8
0
100
AcDbLine
 10
-499.6097542773693
 20
76.95590748906416
 30
0.0
 11
-499.2645878018215
 21
77.19110926107689
 31
0.0
  0
LINE
  5
215
330
1F
100
AcDbEntity
  8
0
100
AcDbLine
 10
-501.2072142816615
 20
77.04602704680015
 30
0.0
 11
-500.8309403343096
 21
76.86470499644739
 31
0.0
  0
LINE
  5
216
330
1F
100
AcDbEntity
  8
0
100
AcDbLine
 10
-501.7589391772529
 20
77.6637240374099
 30
0.0
 11
-501.5237374052402
 21
77.31855756186216
 31
0.0
  0
LINE
  5
217
330
1F
100
AcDbEntity
  8
0
100
AcDbLine
 10
-501.9278984574305
 20
78.47452777091486
 30
0.0
 11
-501.8967909856263
 21
78.05800394854941
 31
0.0
  0
LINE
  5
218
330
1F
100
AcDbEntity
  8
0
100
AcDbLine
 10
-501.8501416698697
 20
78.88491009435018
 30
0.0
 11
-501.9278984574305
 21
78.47452777091486
 31
0.0
  0
LINE
  5
219
330
1F
100
AcDbEntity
  8
0
100
AcDbLine
 10
-477.2198036191594
 20
76.7882378170399
 30
0.0
 11
-476.8104541119612
 21
76.87126040647566
 31
0.0
  0
LINE
  5
21A
330
1F
100
AcDbEntity
  8
0
100
AcDbLine
 10
-478.6574451479739
 20
77.49051043834022
 30
0.0
 11
-478.3808707228355
 21
77.1775146607979
 31
0.0
  0
LINE
  5
21B
330
1F
100
AcDbEntity
  8
0
100
AcDbLine
 10
-475.8927969243238
 20
77.68213559187855
 30
0.0
 11
-475.7600218422641
 21
78.07815395885663
 31
0.0
  0
LINE
  5
21C
330
1F
100
AcDbEntity
  8
0
100
AcDbLine
 10
-477.4410732871171
 20
79.98057860931783
 30
0.0
 11
-477.8504227943152
 21
79.89755601988207
 31
0.0
  0
LINE
  5
21D
330
1F
100
AcDbEntity
  8
0
100
AcDbLine
 10
-478.2243362279769
 20
79.71141490801448
 30
0.0
 11
-478.5373320055192
 21
79.43484048287607
 31
0.0
  0
LINE
  5
21E
330
1F
100
AcDbEntity
  8
0
100
AcDbLine
 10
-476.2800061834411
 20
79.59130176555983
 30
0.0
 11
-476.6281658318379
 21
79.82204974199333
 31
0.0
  0
LINE
  5
21F
330
1F
100
AcDbEntity
  8
0
100
AcDbLine
 10
-478.3808707228355
 20
77.1775146607979
 30
0.0
 11
-478.0327110744386
 21
76.94676668436442
 31
0.0
  0
LINE
  5
220
330
1F
100
AcDbEntity
  8
0
100
AcDbLine
 10
-477.024184198816
 20
79.95482482405303
 30
0.0
 11
-477.4410732871171
 21
79.98057860931783
 31
0.0
  0
LINE
  5
221
330
1F
100
AcDbEntity
  8
0
100
AcDbLine
 10
-477.6366927074605
 20
76.8139916023047
 30
0.0
 11
-477.2198036191594
 21
76.7882378170399
 31
0.0
  0
LINE
  5
222
330
1F
100
AcDbEntity
  8
0
100
AcDbLine
 10
-477.8504227943152
 20
79.89755601988207
 30
0.0
 11
-478.2243362279769
 21
79.71141490801448
 31
0.0
  0
LINE
  5
223
330
1F
100
AcDbEntity
  8
0
100
AcDbLine
 10
-476.6281658318379
 20
79.82204974199333
 30
0.0
 11
-477.024184198816
 21
79.95482482405303
 31
0.0
  0
LINE
  5
224
330
1F
100
AcDbEntity
  8
0
100
AcDbLine
 10
-475.817290646435
 20
78.90439255435584
 30
0.0
 11
-476.0034317583027
 21
79.27830598801752
 31
0.0
  0
LINE
  5
225
330
1F
100
AcDbEntity
  8
0
100
AcDbLine
 10
-475.7600218422641
 20
78.07815395885663
 30
0.0
 11
-475.7342680569993
 21
78.49504304715771
 31
0.0
  0
LINE
  5
226
330
1F
100
AcDbEntity
  8
0
100
AcDbLine
 10
-476.4365406782995
 20
77.05740151834326
 30
0.0
 11
-476.1235449007573
 21
77.33397594348166
 31
0.0
  0
LINE
  5
227
330
1F
100
AcDbEntity
  8
0
100
AcDbLine
 10
-476.8104541119612
 20
76.87126040647566
 30
0.0
 11
-476.4365406782995
 21
77.05740151834326
 31
0.0
  0
LINE
  5
228
330
1F
100
AcDbEntity
  8
0
100
AcDbLine
 10
-387.9654717237252
 20
120.5080703387358
 30
0.0
 11
-389.024890127998
 21
122.3078277889739
 31
0.0
  0
LINE
  5
229
330
1F
100
AcDbEntity
  8
0
100
AcDbLine
 10
-389.024890127998
 20
122.3078277889739
 30
0.0
 11
-390.5140212302178
 21
123.772062331457
 31
0.0
  0
LINE
  5
22A
330
1F
100
AcDbEntity
  8
0
100
AcDbLine
 10
-390.5140212302178
 20
123.772062331457
 30
0.0
 11
-392.3313832066739
 21
124.800988801877
 31
0.0
  0
LINE
  5
22B
330
1F
100
AcDbEntity
  8
0
100
AcDbLine
 10
-392.3313832066739
 20
124.800988801877
 30
0.0
 11
-394.3531258420034
 21
125.3244875616562
 31
0.0
  0
LINE
  5
22C
330
1F
100
AcDbEntity
  8
0
100
AcDbLine
 10
-394.3531258420034
 20
125.3244875616562
 30
0.0
 11
-396.4414707166962
 21
125.3068830354382
 31
0.0
  0
LINE
  5
22D
330
1F
100
AcDbEntity
  8
0
100
AcDbLine
 10
-396.4414707166962
 20
125.3068830354382
 30
0.0
 11
-398.4541005786952
 21
124.7493749425919
 31
0.0
  0
LINE
  5
22E
330
1F
100
AcDbEntity
  8
0
100
AcDbLine
 10
-398.4541005786952
 20
124.7493749425919
 30
0.0
 11
-400.2538580289332
 21
123.6899565383191
 31
0.0
  0
LINE
  5
22F
330
1F
100
AcDbEntity
  8
0
100
AcDbLine
 10
-400.2538580289332
 20
123.6899565383191
 30
0.0
 11
-401.7180925714164
 21
122.2008254360993
 31
0.0
  0
LINE
  5
230
330
1F
100
AcDbEntity
  8
0
100
AcDbLine
 10
-401.7180925714164
 20
122.2008254360993
 30
0.0
 11
-402.7470190418364
 21
120.3834634596433
 31
0.0
  0
LINE
  5
231
330
1F
100
AcDbEntity
  8
0
100
AcDbLine
 10
-402.7470190418364
 20
120.3834634596433
 30
0.0
 11
-403.2705178016156
 21
118.3617208243138
 31
0.0
  0
LINE
  5
232
330
1F
100
AcDbEntity
  8
0
100
AcDbLine
 10
-403.2705178016156
 20
118.3617208243138
 30
0.0
 11
-403.2529132753976
 21
116.2733759496209
 31
0.0
  0
LINE
  5
233
330
1F
100
AcDbEntity
  8
0
100
AcDbLine
 10
-403.2529132753976
 20
116.2733759496209
 30
0.0
 11
-402.6954051825513
 21
114.2607460876219
 31
0.0
  0
LINE
  5
234
330
1F
100
AcDbEntity
  8
0
100
AcDbLine
 10
-402.6954051825513
 20
114.2607460876219
 30
0.0
 11
-401.6359867782785
 21
112.4609886373839
 31
0.0
  0
LINE
  5
235
330
1F
100
AcDbEntity
  8
0
100
AcDbLine
 10
-401.6359867782785
 20
112.4609886373839
 30
0.0
 11
-400.1468556760587
 21
110.9967540949008
 31
0.0
  0
LINE
  5
236
330
1F
100
AcDbEntity
  8
0
100
AcDbLine
 10
-400.1468556760587
 20
110.9967540949008
 30
0.0
 11
-398.3294936996026
 21
109.9678276244807
 31
0.0
  0
LINE
  5
237
330
1F
100
AcDbEntity
  8
0
100
AcDbLine
 10
-398.3294936996026
 20
109.9678276244807
 30
0.0
 11
-396.3077510642732
 21
109.4443288647015
 31
0.0
  0
LINE
  5
238
330
1F
100
AcDbEntity
  8
0
100
AcDbLine
 10
-396.3077510642732
 20
109.4443288647015
 30
0.0
 11
-394.2194061895803
 21
109.4619333909196
 31
0.0
  0
LINE
  5
239
330
1F
100
AcDbEntity
  8
0
100
AcDbLine
 10
-394.2194061895803
 20
109.4619333909196
 30
0.0
 11
-392.2067763275813
 21
110.0194414837658
 31
0.0
  0
LINE
  5
23A
330
1F
100
AcDbEntity
  8
0
100
AcDbLine
 10
-392.2067763275813
 20
110.0194414837658
 30
0.0
 11
-390.4070188773433
 21
111.0788598880387
 31
0.0
  0
LINE
  5
23B
330
1F
100
AcDbEntity
  8
0
100
AcDbLine
 10
-390.4070188773433
 20
111.0788598880387
 30
0.0
 11
-388.9427843348601
 21
112.5679909902585
 31
0.0
  0
LINE
  5
23C
330
1F
100
AcDbEntity
  8
0
100
AcDbLine
 10
-388.9427843348601
 20
112.5679909902585
 30
0.0
 11
-387.9138578644401
 21
114.3853529667145
 31
0.0
  0
LINE
  5
23D
330
1F
100
AcDbEntity
  8
0
100
AcDbLine
 10
-387.9138578644401
 20
114.3853529667145
 30
0.0
 11
-387.3903591046609
 21
116.407095602044
 31
0.0
  0
LINE
  5
23E
330
1F
100
AcDbEntity
  8
0
100
AcDbLine
 10
-387.3903591046609
 20
116.407095602044
 30
0.0
 11
-387.4079636308789
 21
118.4954404767368
 31
0.0
  0
LINE
  5
23F
330
1F
100
AcDbEntity
  8
0
100
AcDbLine
 10
-387.4079636308789
 20
118.4954404767368
 30
0.0
 11
-387.9654717237252
 21
120.5080703387358
 31
0.0
  0
LINE
  5
240
330
1F
100
AcDbEntity
  8
0
100
AcDbLine
 10
-375.1468556760587
 20
110.9967540949008
 30
0.0
 11
-373.3294936996026
 21
109.9678276244807
 31
0.0
  0
LINE
  5
241
330
1F
100
AcDbEntity
  8
0
100
AcDbLine
 10
-363.9427843348601
 20
112.5679909902585
 30
0.0
 11
-362.9138578644401
 21
114.3853529667145
 31
0.0
  0
LINE
  5
242
330
1F
100
AcDbEntity
  8
0
100
AcDbLine
 10
-367.2067763275813
 20
110.0194414837658
 30
0.0
 11
-365.4070188773433
 21
111.0788598880387
 31
0.0
  0
LINE
  5
243
330
1F
100
AcDbEntity
  8
0
100
AcDbLine
 10
-375.2538580289332
 20
123.6899565383191
 30
0.0
 11
-376.7180925714164
 21
122.2008254360993
 31
0.0
  0
LINE
  5
244
330
1F
100
AcDbEntity
  8
0
100
AcDbLine
 10
-373.3294936996026
 20
109.9678276244807
 30
0.0
 11
-371.3077510642732
 21
109.4443288647015
 31
0.0
  0
LINE
  5
245
330
1F
100
AcDbEntity
  8
0
100
AcDbLine
 10
-378.2705178016156
 20
118.3617208243138
 30
0.0
 11
-378.2529132753976
 21
116.2733759496209
 31
0.0
  0
LINE
  5
246
330
1F
100
AcDbEntity
  8
0
100
AcDbLine
 10
-371.3077510642732
 20
109.4443288647015
 30
0.0
 11
-369.2194061895803
 21
109.4619333909196
 31
0.0
  0
LINE
  5
247
330
1F
100
AcDbEntity
  8
0
100
AcDbLine
 10
-365.4070188773433
 20
111.0788598880387
 30
0.0
 11
-363.9427843348601
 21
112.5679909902585
 31
0.0
  0
LINE
  5
248
330
1F
100
AcDbEntity
  8
0
100
AcDbLine
 10
-376.6359867782785
 20
112.4609886373839
 30
0.0
 11
-375.1468556760587
 21
110.9967540949008
 31
0.0
  0
LINE
  5
249
330
1F
100
AcDbEntity
  8
0
100
AcDbLine
 10
-367.3313832066739
 20
124.800988801877
 30
0.0
 11
-369.3531258420034
 21
125.3244875616562
 31
0.0
  0
LINE
  5
24A
330
1F
100
AcDbEntity
  8
0
100
AcDbLine
 10
-365.5140212302178
 20
123.772062331457
 30
0.0
 11
-367.3313832066739
 21
124.800988801877
 31
0.0
  0
LINE
  5
24B
330
1F
100
AcDbEntity
  8
0
100
AcDbLine
 10
-362.9138578644401
 20
114.3853529667145
 30
0.0
 11
-362.3903591046609
 21
116.407095602044
 31
0.0
  0
LINE
  5
24C
330
1F
100
AcDbEntity
  8
0
100
AcDbLine
 10
-376.7180925714164
 20
122.2008254360993
 30
0.0
 11
-377.7470190418364
 21
120.3834634596433
 31
0.0
  0
LINE
  5
24D
330
1F
100
AcDbEntity
  8
0
100
AcDbLine
 10
-378.2529132753976
 20
116.2733759496209
 30
0.0
 11
-377.6954051825513
 21
114.2607460876219
 31
0.0
  0
LINE
  5
24E
330
1F
100
AcDbEntity
  8
0
100
AcDbLine
 10
-362.9654717237252
 20
120.5080703387358
 30
0.0
 11
-364.024890127998
 21
122.3078277889739
 31
0.0
  0
LINE
  5
24F
330
1F
100
AcDbEntity
  8
0
100
AcDbLine
 10
-377.7470190418364
 20
120.3834634596433
 30
0.0
 11
-378.2705178016156
 21
118.3617208243138
 31
0.0
  0
LINE
  5
250
330
1F
100
AcDbEntity
  8
0
100
AcDbLine
 10
-369.2194061895803
 20
109.4619333909196
 30
0.0
 11
-367.2067763275813
 21
110.0194414837658
 31
0.0
  0
LINE
  5
251
330
1F
100
AcDbEntity
  8
0
100
AcDbLine
 10
-371.4414707166962
 20
125.3068830354382
 30
0.0
 11
-373.4541005786952
 21
124.7493749425919
 31
0.0
  0
LINE
  5
252
330
1F
100
AcDbEntity
  8
0
100
AcDbLine
 10
-377.6954051825513
 20
114.2607460876219
 30
0.0
 11
-376.6359867782785
 21
112.4609886373839
 31
0.0
  0
LINE
  5
253
330
1F
100
AcDbEntity
  8
0
100
AcDbLine
 10
-364.024890127998
 20
122.3078277889739
 30
0.0
 11
-365.5140212302178
 21
123.772062331457
 31
0.0
  0
LINE
  5
254
330
1F
100
AcDbEntity
  8
0
100
AcDbLine
 10
-362.4079636308789
 20
118.4954404767368
 30
0.0
 11
-362.9654717237252
 21
120.5080703387358
 31
0.0
  0
LINE
  5
255
330
1F
100
AcDbEntity
  8
0
100
AcDbLine
 10
-362.3903591046609
 20
116.407095602044
 30
0.0
 11
-362.4079636308789
 21
118.4954404767368
 31
0.0
  0
LINE
  5
256
330
1F
100
AcDbEntity
  8
0
100
AcDbLine
 10
-369.3531258420034
 20
125.3244875616562
 30
0.0
 11
-371.4414707166962
 21
125.3068830354382
 31
0.0
  0
LINE
  5
257
330
1F
100
AcDbEntity
  8
0
100
AcDbLine
 10
-373.4541005786952
 20
124.7493749425919
 30
0.0
 11
-375.2538580289332
 21
123.6899565383191
 31
0.0
  0
LINE
  5
258
330
1F
100
AcDbEntity
  8
0
100
AcDbLine
 10
-337.4079636308789
 20
118.4954404767368
 30
0.0
 11
-337.9654717237252
 21
120.5080703387358
 31
0.0
  0
LINE
  5
259
330
1F
100
AcDbEntity
  8
0
100
AcDbLine
 10
-338.9427843348601
 20
112.5679909902585
 30
0.0
 11
-337.9138578644401
 21
114.3853529667145
 31
0.0
  0
LINE
  5
25A
330
1F
100
AcDbEntity
  8
0
100
AcDbLine
 10
-353.2529132753976
 20
116.2733759496209
 30
0.0
 11
-352.6954051825513
 21
114.2607460876219
 31
0.0
  0
LINE
  5
25B
330
1F
100
AcDbEntity
  8
0
100
AcDbLine
 10
-337.9654717237252
 20
120.5080703387358
 30
0.0
 11
-339.024890127998
 21
122.3078277889739
 31
0.0
  0
LINE
  5
25C
330
1F
100
AcDbEntity
  8
0
100
AcDbLine
 10
-346.3077510642732
 20
109.4443288647015
 30
0.0
 11
-344.2194061895803
 21
109.4619333909196
 31
0.0
  0
LINE
  5
25D
330
1F
100
AcDbEntity
  8
0
100
AcDbLine
 10
-342.3313832066739
 20
124.800988801877
 30
0.0
 11
-344.3531258420034
 21
125.3244875616562
 31
0.0
  0
LINE
  5
25E
330
1F
100
AcDbEntity
  8
0
100
AcDbLine
 10
-337.3903591046609
 20
116.407095602044
 30
0.0
 11
-337.4079636308789
 21
118.4954404767368
 31
0.0
  0
LINE
  5
25F
330
1F
100
AcDbEntity
  8
0
100
AcDbLine
 10
-351.6359867782785
 20
112.4609886373839
 30
0.0
 11
-350.1468556760587
 21
110.9967540949008
 31
0.0
  0
LINE
  5
260
330
1F
100
AcDbEntity
  8
0
100
AcDbLine
 10
-339.024890127998
 20
122.3078277889739
 30
0.0
 11
-340.5140212302178
 21
123.772062331457
 31
0.0
  0
LINE
  5
261
330
1F
100
AcDbEntity
  8
0
100
AcDbLine
 10
-346.4414707166962
 20
125.3068830354382
 30
0.0
 11
-348.4541005786952
 21
124.7493749425919
 31
0.0
  0
LINE
  5
262
330
1F
100
AcDbEntity
  8
0
100
AcDbLine
 10
-348.3294936996026
 20
109.9678276244807
 30
0.0
 11
-346.3077510642732
 21
109.4443288647015
 31
0.0
  0
LINE
  5
263
330
1F
100
AcDbEntity
  8
0
100
AcDbLine
 10
-337.9138578644401
 20
114.3853529667145
 30
0.0
 11
-337.3903591046609
 21
116.407095602044
 31
0.0
  0
LINE
  5
264
330
1F
100
AcDbEntity
  8
0
100
AcDbLine
 10
-344.2194061895803
 20
109.4619333909196
 30
0.0
 11
-342.2067763275813
 21
110.0194414837658
 31
0.0
  0
LINE
  5
265
330
1F
100
AcDbEntity
  8
0
100
AcDbLine
 10
-340.5140212302178
 20
123.772062331457
 30
0.0
 11
-342.3313832066739
 21
124.800988801877
 31
0.0
  0
LINE
  5
266
330
1F
100
AcDbEntity
  8
0
100
AcDbLine
 10
-340.4070188773433
 20
111.0788598880387
 30
0.0
 11
-338.9427843348601
 21
112.5679909902585
 31
0.0
  0
LINE
  5
267
330
1F
100
AcDbEntity
  8
0
100
AcDbLine
 10
-352.7470190418364
 20
120.3834634596433
 30
0.0
 11
-353.2705178016156
 21
118.3617208243138
 31
0.0
  0
LINE
  5
268
330
1F
100
AcDbEntity
  8
0
100
AcDbLine
 10
-352.6954051825513
 20
114.2607460876219
 30
0.0
 11
-351.6359867782785
 21
112.4609886373839
 31
0.0
  0
LINE
  5
269
330
1F
100
AcDbEntity
  8
0
100
AcDbLine
 10
-351.7180925714164
 20
122.2008254360993
 30
0.0
 11
-352.7470190418364
 21
120.3834634596433
 31
0.0
  0
LINE
  5
26A
330
1F
100
AcDbEntity
  8
0
100
AcDbLine
 10
-350.1468556760587
 20
110.9967540949008
 30
0.0
 11
-348.3294936996026
 21
109.9678276244807
 31
0.0
  0
LINE
  5
26B
330
1F
100
AcDbEntity
  8
0
100
AcDbLine
 10
-350.2538580289332
 20
123.6899565383191
 30
0.0
 11
-351.7180925714164
 21
122.2008254360993
 31
0.0
  0
LINE
  5
26C
330
1F
100
AcDbEntity
  8
0
100
AcDbLine
 10
-353.2705178016156
 20
118.3617208243138
 30
0.0
 11
-353.2529132753976
 21
116.2733759496209
 31
0.0
  0
LINE
  5
26D
330
1F
100
AcDbEntity
  8
0
100
AcDbLine
 10
-342.2067763275813
 20
110.0194414837658
 30
0.0
 11
-340.4070188773433
 21
111.0788598880387
 31
0.0
  0
LINE
  5
26E
330
1F
100
AcDbEntity
  8
0
100
AcDbLine
 10
-344.3531258420034
 20
125.3244875616562
 30
0.0
 11
-346.4414707166962
 21
125.3068830354382
 31
0.0
  0
LINE
  5
26F
330
1F
100
AcDbEntity
  8
0
100
AcDbLine
 10
-348.4541005786952
 20
124.7493749425919
 30
0.0
 11
-350.2538580289332
 21
123.6899565383191
 31
0.0
  0
LINE
  5
270
330
1F
100
AcDbEntity
  8
0
100
AcDbLine
 10
-327.7470190418364
 20
120.3834634596433
 30
0.0
 11
-328.2705178016156
 21
118.3617208243138
 31
0.0
  0
LINE
  5
271
330
1F
100
AcDbEntity
  8
0
100
AcDbLine
 10
-312.3903591046609
 20
116.407095602044
 30
0.0
 11
-312.4079636308789
 21
118.4954404767368
 31
0.0
  0
LINE
  5
272
330
1F
100
AcDbEntity
  8
0
100
AcDbLine
 10
-312.9654717237252
 20
120.5080703387358
 30
0.0
 11
-314.024890127998
 21
122.3078277889739
 31
0.0
  0
LINE
  5
273
330
1F
100
AcDbEntity
  8
0
100
AcDbLine
 10
-317.3313832066739
 20
124.800988801877
 30
0.0
 11
-319.3531258420034
 21
125.3244875616562
 31
0.0
  0
LINE
  5
274
330
1F
100
AcDbEntity
  8
0
100
AcDbLine
 10
-314.024890127998
 20
122.3078277889739
 30
0.0
 11
-315.5140212302178
 21
123.772062331457
 31
0.0
  0
LINE
  5
275
330
1F
100
AcDbEntity
  8
0
100
AcDbLine
 10
-319.3531258420034
 20
125.3244875616562
 30
0.0
 11
-321.4414707166962
 21
125.3068830354382
 31
0.0
  0
LINE
  5
276
330
1F
100
AcDbEntity
  8
0
100
AcDbLine
 10
-319.2194061895803
 20
109.4619333909196
 30
0.0
 11
-317.2067763275813
 21
110.0194414837658
 31
0.0
  0
LINE
  5
277
330
1F
100
AcDbEntity
  8
0
100
AcDbLine
 10
-321.4414707166962
 20
125.3068830354382
 30
0.0
 11
-323.4541005786952
 21
124.7493749425919
 31
0.0
  0
LINE
  5
278
330
1F
100
AcDbEntity
  8
0
100
AcDbLine
 10
-321.3077510642732
 20
109.4443288647015
 30
0.0
 11
-319.2194061895803
 21
109.4619333909196
 31
0.0
  0
LINE
  5
279
330
1F
100
AcDbEntity
  8
0
100
AcDbLine
 10
-315.4070188773433
 20
111.0788598880387
 30
0.0
 11
-313.9427843348601
 21
112.5679909902585
 31
0.0
  0
LINE
  5
27A
330
1F
100
AcDbEntity
  8
0
100
AcDbLine
 10
-328.2705178016156
 20
118.3617208243138
 30
0.0
 11
-328.2529132753976
 21
116.2733759496209
 31
0.0
  0
LINE
  5
27B
330
1F
100
AcDbEntity
  8
0
100
AcDbLine
 10
-325.2538580289332
 20
123.6899565383191
 30
0.0
 11
-326.7180925714164
 21
122.2008254360993
 31
0.0
  0
LINE
  5
27C
330
1F
100
AcDbEntity
  8
0
100
AcDbLine
 10
-312.9138578644401
 20
114.3853529667145
 30
0.0
 11
-312.3903591046609
 21
116.407095602044
 31
0.0
  0
LINE
  5
27D
330
1F
100
AcDbEntity
  8
0
100
AcDbLine
 10
-327.6954051825513
 20
114.2607460876219
 30
0.0
 11
-326.6359867782785
 21
112.4609886373839
 31
0.0
  0
LINE
  5
27E
330
1F
100
AcDbEntity
  8
0
100
AcDbLine
 10
-328.2529132753976
 20
116.2733759496209
 30
0.0
 11
-327.6954051825513
 21
114.2607460876219
 31
0.0
  0
LINE
  5
27F
330
1F
100
AcDbEntity
  8
0
100
AcDbLine
 10
-326.7180925714164
 20
122.2008254360993
 30
0.0
 11
-327.7470190418364
 21
120.3834634596433
 31
0.0
  0
LINE
  5
280
330
1F
100
AcDbEntity
  8
0
100
AcDbLine
 10
-323.3294936996026
 20
109.9678276244807
 30
0.0
 11
-321.3077510642732
 21
109.4443288647015
 31
0.0
  0
LINE
  5
281
330
1F
100
AcDbEntity
  8
0
100
AcDbLine
 10
-312.4079636308789
 20
118.4954404767368
 30
0.0
 11
-312.9654717237252
 21
120.5080703387358
 31
0.0
  0
LINE
  5
282
330
1F
100
AcDbEntity
  8
0
100
AcDbLine
 10
-325.1468556760587
 20
110.9967540949008
 30
0.0
 11
-323.3294936996026
 21
109.9678276244807
 31
0.0
  0
LINE
  5
283
330
1F
100
AcDbEntity
  8
0
100
AcDbLine
 10
-326.6359867782785
 20
112.4609886373839
 30
0.0
 11
-325.1468556760587
 21
110.9967540949008
 31
0.0
  0
LINE
  5
284
330
1F
100
AcDbEntity
  8
0
100
AcDbLine
 10
-313.9427843348601
 20
112.5679909902585
 30
0.0
 11
-312.9138578644401
 21
114.3853529667145
 31
0.0
  0
LINE
  5
285
330
1F
100
AcDbEntity
  8
0
100
AcDbLine
 10
-317.2067763275813
 20
110.0194414837658
 30
0.0
 11
-315.4070188773433
 21
111.0788598880387
 31
0.0
  0
LINE
  5
286
330
1F
100
AcDbEntity
  8
0
100
AcDbLine
 10
-315.5140212302178
 20
123.772062331457
 30
0.0
 11
-317.3313832066739
 21
124.800988801877
 31
0.0
  0
LINE
  5
287
330
1F
100
AcDbEntity
  8
0
100
AcDbLine
 10
-323.4541005786952
 20
124.7493749425919
 30
0.0
 11
-325.2538580289332
 21
123.6899565383191
 31
0.0
  0
LINE
  5
288
330
1F
100
AcDbEntity
  8
0
100
AcDbLine
 10
-337.9138578644401
 20
89.38535296671454
 30
0.0
 11
-337.3903591046609
 21
91.407095602044
 31
0.0
  0
LINE
  5
289
330
1F
100
AcDbEntity
  8
0
100
AcDbLine
 10
-340.4070188773433
 20
86.07885988803868
 30
0.0
 11
-338.9427843348601
 21
87.5679909902585
 31
0.0
  0
LINE
  5
28A
330
1F
100
AcDbEntity
  8
0
100
AcDbLine
 10
-338.9427843348601
 20
87.5679909902585
 30
0.0
 11
-337.9138578644401
 21
89.38535296671454
 31
0.0
  0
LINE
  5
28B
330
1F
100
AcDbEntity
  8
0
100
AcDbLine
 10
-342.2067763275813
 20
85.01944148376585
 30
0.0
 11
-340.4070188773433
 21
86.07885988803868
 31
0.0
  0
LINE
  5
28C
330
1F
100
AcDbEntity
  8
0
100
AcDbLine
 10
-346.3077510642732
 20
84.44432886470155
 30
0.0
 11
-344.2194061895803
 21
84.46193339091955
 31
0.0
  0
LINE
  5
28D
330
1F
100
AcDbEntity
  8
0
100
AcDbLine
 10
-344.2194061895803
 20
84.46193339091955
 30
0.0
 11
-342.2067763275813
 21
85.01944148376585
 31
0.0
  0
LINE
  5
28E
330
1F
100
AcDbEntity
  8
0
100
AcDbLine
 10
-375.1468556760587
 20
85.99675409490075
 30
0.0
 11
-373.3294936996026
 21
84.96782762448073
 31
0.0
  0
LINE
  5
28F
330
1F
100
AcDbEntity
  8
0
100
AcDbLine
 10
-371.3077510642732
 20
84.44432886470155
 30
0.0
 11
-369.2194061895803
 21
84.46193339091955
 31
0.0
  0
LINE
  5
290
330
1F
100
AcDbEntity
  8
0
100
AcDbLine
 10
-373.3294936996026
 20
84.96782762448073
 30
0.0
 11
-371.3077510642732
 21
84.44432886470155
 31
0.0
  0
LINE
  5
291
330
1F
100
AcDbEntity
  8
0
100
AcDbLine
 10
-327.7470190418364
 20
95.38346345964325
 30
0.0
 11
-328.2705178016156
 21
93.36172082431378
 31
0.0
  0
LINE
  5
292
330
1F
100
AcDbEntity
  8
0
100
AcDbLine
 10
-367.2067763275813
 20
85.01944148376585
 30
0.0
 11
-365.4070188773433
 21
86.07885988803868
 31
0.0
  0
LINE
  5
293
330
1F
100
AcDbEntity
  8
0
100
AcDbLine
 10
-312.3903591046609
 20
91.407095602044
 30
0.0
 11
-312.4079636308789
 21
93.49544047673685
 31
0.0
  0
LINE
  5
294
330
1F
100
AcDbEntity
  8
0
100
AcDbLine
 10
-337.4079636308789
 20
93.49544047673685
 30
0.0
 11
-337.9654717237252
 21
95.50807033873583
 31
0.0
  0
LINE
  5
295
330
1F
100
AcDbEntity
  8
0
100
AcDbLine
 10
-317.3313832066739
 20
99.80098880187704
 30
0.0
 11
-319.3531258420034
 21
100.3244875616562
 31
0.0
  0
LINE
  5
296
330
1F
100
AcDbEntity
  8
0
100
AcDbLine
 10
-314.024890127998
 20
97.30782778897385
 30
0.0
 11
-315.5140212302178
 21
98.77206233145704
 31
0.0
  0
LINE
  5
297
330
1F
100
AcDbEntity
  8
0
100
AcDbLine
 10
-378.2705178016156
 20
93.36172082431378
 30
0.0
 11
-378.2529132753976
 21
91.27337594962094
 31
0.0
  0
LINE
  5
298
330
1F
100
AcDbEntity
  8
0
100
AcDbLine
 10
-365.4070188773433
 20
86.07885988803868
 30
0.0
 11
-363.9427843348601
 21
87.5679909902585
 31
0.0
  0
LINE
  5
299
330
1F
100
AcDbEntity
  8
0
100
AcDbLine
 10
-363.9427843348601
 20
87.5679909902585
 30
0.0
 11
-362.9138578644401
 21
89.38535296671454
 31
0.0
  0
LINE
  5
29A
330
1F
100
AcDbEntity
  8
0
100
AcDbLine
 10
-376.6359867782785
 20
87.46098863738392
 30
0.0
 11
-375.1468556760587
 21
85.99675409490075
 31
0.0
  0
LINE
  5
29B
330
1F
100
AcDbEntity
  8
0
100
AcDbLine
 10
-337.3903591046609
 20
91.407095602044
 30
0.0
 11
-337.4079636308789
 21
93.49544047673685
 31
0.0
  0
LINE
  5
29C
330
1F
100
AcDbEntity
  8
0
100
AcDbLine
 10
-348.3294936996026
 20
84.96782762448073
 30
0.0
 11
-346.3077510642732
 21
84.44432886470155
 31
0.0
  0
LINE
  5
29D
330
1F
100
AcDbEntity
  8
0
100
AcDbLine
 10
-350.1468556760587
 20
85.99675409490075
 30
0.0
 11
-348.3294936996026
 21
84.96782762448073
 31
0.0
  0
LINE
  5
29E
330
1F
100
AcDbEntity
  8
0
100
AcDbLine
 10
-351.6359867782785
 20
87.46098863738392
 30
0.0
 11
-350.1468556760587
 21
85.99675409490075
 31
0.0
  0
LINE
  5
29F
330
1F
100
AcDbEntity
  8
0
100
AcDbLine
 10
-352.6954051825513
 20
89.26074608762194
 30
0.0
 11
-351.6359867782785
 21
87.46098863738392
 31
0.0
  0
LINE
  5
2A0
330
1F
100
AcDbEntity
  8
0
100
AcDbLine
 10
-353.2529132753976
 20
91.27337594962094
 30
0.0
 11
-352.6954051825513
 21
89.26074608762194
 31
0.0
  0
LINE
  5
2A1
330
1F
100
AcDbEntity
  8
0
100
AcDbLine
 10
-353.2705178016156
 20
93.36172082431378
 30
0.0
 11
-353.2529132753976
 21
91.27337594962094
 31
0.0
  0
LINE
  5
2A2
330
1F
100
AcDbEntity
  8
0
100
AcDbLine
 10
-352.7470190418364
 20
95.38346345964325
 30
0.0
 11
-353.2705178016156
 21
93.36172082431378
 31
0.0
  0
LINE
  5
2A3
330
1F
100
AcDbEntity
  8
0
100
AcDbLine
 10
-351.7180925714164
 20
97.20082543609928
 30
0.0
 11
-352.7470190418364
 21
95.38346345964325
 31
0.0
  0
LINE
  5
2A4
330
1F
100
AcDbEntity
  8
0
100
AcDbLine
 10
-350.2538580289332
 20
98.6899565383191
 30
0.0
 11
-351.7180925714164
 21
97.20082543609928
 31
0.0
  0
LINE
  5
2A5
330
1F
100
AcDbEntity
  8
0
100
AcDbLine
 10
-348.4541005786952
 20
99.74937494259193
 30
0.0
 11
-350.2538580289332
 21
98.6899565383191
 31
0.0
  0
LINE
  5
2A6
330
1F
100
AcDbEntity
  8
0
100
AcDbLine
 10
-346.4414707166962
 20
100.3068830354382
 30
0.0
 11
-348.4541005786952
 21
99.74937494259193
 31
0.0
  0
LINE
  5
2A7
330
1F
100
AcDbEntity
  8
0
100
AcDbLine
 10
-344.3531258420034
 20
100.3244875616562
 30
0.0
 11
-346.4414707166962
 21
100.3068830354382
 31
0.0
  0
LINE
  5
2A8
330
1F
100
AcDbEntity
  8
0
100
AcDbLine
 10
-342.3313832066739
 20
99.80098880187704
 30
0.0
 11
-344.3531258420034
 21
100.3244875616562
 31
0.0
  0
LINE
  5
2A9
330
1F
100
AcDbEntity
  8
0
100
AcDbLine
 10
-340.5140212302178
 20
98.77206233145704
 30
0.0
 11
-342.3313832066739
 21
99.80098880187704
 31
0.0
  0
LINE
  5
2AA
330
1F
100
AcDbEntity
  8
0
100
AcDbLine
 10
-339.024890127998
 20
97.30782778897385
 30
0.0
 11
-340.5140212302178
 21
98.77206233145704
 31
0.0
  0
LINE
  5
2AB
330
1F
100
AcDbEntity
  8
0
100
AcDbLine
 10
-337.9654717237252
 20
95.50807033873583
 30
0.0
 11
-339.024890127998
 21
97.30782778897385
 31
0.0
  0
LINE
  5
2AC
330
1F
100
AcDbEntity
  8
0
100
AcDbLine
 10
-312.9654717237252
 20
95.50807033873583
 30
0.0
 11
-314.024890127998
 21
97.30782778897385
 31
0.0
  0
LINE
  5
2AD
330
1F
100
AcDbEntity
  8
0
100
AcDbLine
 10
-319.2194061895803
 20
84.46193339091955
 30
0.0
 11
-317.2067763275813
 21
85.01944148376585
 31
0.0
  0
LINE
  5
2AE
330
1F
100
AcDbEntity
  8
0
100
AcDbLine
 10
-319.3531258420034
 20
100.3244875616562
 30
0.0
 11
-321.4414707166962
 21
100.3068830354382
 31
0.0
  0
LINE
  5
2AF
330
1F
100
AcDbEntity
  8
0
100
AcDbLine
 10
-375.2538580289332
 20
98.6899565383191
 30
0.0
 11
-376.7180925714164
 21
97.20082543609928
 31
0.0
  0
LINE
  5
2B0
330
1F
100
AcDbEntity
  8
0
100
AcDbLine
 10
-312.9138578644401
 20
89.38535296671454
 30
0.0
 11
-312.3903591046609
 21
91.407095602044
 31
0.0
  0
LINE
  5
2B1
330
1F
100
AcDbEntity
  8
0
100
AcDbLine
 10
-315.4070188773433
 20
86.07885988803868
 30
0.0
 11
-313.9427843348601
 21
87.5679909902585
 31
0.0
  0
LINE
  5
2B2
330
1F
100
AcDbEntity
  8
0
100
AcDbLine
 10
-312.4079636308789
 20
93.49544047673685
 30
0.0
 11
-312.9654717237252
 21
95.50807033873583
 31
0.0
  0
LINE
  5
2B3
330
1F
100
AcDbEntity
  8
0
100
AcDbLine
 10
-313.9427843348601
 20
87.5679909902585
 30
0.0
 11
-312.9138578644401
 21
89.38535296671454
 31
0.0
  0
LINE
  5
2B4
330
1F
100
AcDbEntity
  8
0
100
AcDbLine
 10
-369.3531258420034
 20
100.3244875616562
 30
0.0
 11
-371.4414707166962
 21
100.3068830354382
 31
0.0
  0
LINE
  5
2B5
330
1F
100
AcDbEntity
  8
0
100
AcDbLine
 10
-369.2194061895803
 20
84.46193339091955
 30
0.0
 11
-367.2067763275813
 21
85.01944148376585
 31
0.0
  0
LINE
  5
2B6
330
1F
100
AcDbEntity
  8
0
100
AcDbLine
 10
-326.7180925714164
 20
97.20082543609928
 30
0.0
 11
-327.7470190418364
 21
95.38346345964325
 31
0.0
  0
LINE
  5
2B7
330
1F
100
AcDbEntity
  8
0
100
AcDbLine
 10
-326.6359867782785
 20
87.46098863738392
 30
0.0
 11
-325.1468556760587
 21
85.99675409490075
 31
0.0
  0
LINE
  5
2B8
330
1F
100
AcDbEntity
  8
0
100
AcDbLine
 10
-377.6954051825513
 20
89.26074608762194
 30
0.0
 11
-376.6359867782785
 21
87.46098863738392
 31
0.0
  0
LINE
  5
2B9
330
1F
100
AcDbEntity
  8
0
100
AcDbLine
 10
-365.5140212302178
 20
98.77206233145704
 30
0.0
 11
-367.3313832066739
 21
99.80098880187704
 31
0.0
  0
LINE
  5
2BA
330
1F
100
AcDbEntity
  8
0
100
AcDbLine
 10
-378.2529132753976
 20
91.27337594962094
 30
0.0
 11
-377.6954051825513
 21
89.26074608762194
 31
0.0
  0
LINE
  5
2BB
330
1F
100
AcDbEntity
  8
0
100
AcDbLine
 10
-376.7180925714164
 20
97.20082543609928
 30
0.0
 11
-377.7470190418364
 21
95.38346345964325
 31
0.0
  0
LINE
  5
2BC
330
1F
100
AcDbEntity
  8
0
100
AcDbLine
 10
-373.4541005786952
 20
99.74937494259193
 30
0.0
 11
-375.2538580289332
 21
98.6899565383191
 31
0.0
  0
LINE
  5
2BD
330
1F
100
AcDbEntity
  8
0
100
AcDbLine
 10
-362.4079636308789
 20
93.49544047673685
 30
0.0
 11
-362.9654717237252
 21
95.50807033873583
 31
0.0
  0
LINE
  5
2BE
330
1F
100
AcDbEntity
  8
0
100
AcDbLine
 10
-371.4414707166962
 20
100.3068830354382
 30
0.0
 11
-373.4541005786952
 21
99.74937494259193
 31
0.0
  0
LINE
  5
2BF
330
1F
100
AcDbEntity
  8
0
100
AcDbLine
 10
-362.9138578644401
 20
89.38535296671454
 30
0.0
 11
-362.3903591046609
 21
91.407095602044
 31
0.0
  0
LINE
  5
2C0
330
1F
100
AcDbEntity
  8
0
100
AcDbLine
 10
-328.2705178016156
 20
93.36172082431378
 30
0.0
 11
-328.2529132753976
 21
91.27337594962094
 31
0.0
  0
LINE
  5
2C1
330
1F
100
AcDbEntity
  8
0
100
AcDbLine
 10
-325.2538580289332
 20
98.6899565383191
 30
0.0
 11
-326.7180925714164
 21
97.20082543609928
 31
0.0
  0
LINE
  5
2C2
330
1F
100
AcDbEntity
  8
0
100
AcDbLine
 10
-364.024890127998
 20
97.30782778897385
 30
0.0
 11
-365.5140212302178
 21
98.77206233145704
 31
0.0
  0
LINE
  5
2C3
330
1F
100
AcDbEntity
  8
0
100
AcDbLine
 10
-362.3903591046609
 20
91.407095602044
 30
0.0
 11
-362.4079636308789
 21
93.49544047673685
 31
0.0
  0
LINE
  5
2C4
330
1F
100
AcDbEntity
  8
0
100
AcDbLine
 10
-377.7470190418364
 20
95.38346345964325
 30
0.0
 11
-378.2705178016156
 21
93.36172082431378
 31
0.0
  0
LINE
  5
2C5
330
1F
100
AcDbEntity
  8
0
100
AcDbLine
 10
-367.3313832066739
 20
99.80098880187704
 30
0.0
 11
-369.3531258420034
 21
100.3244875616562
 31
0.0
  0
LINE
  5
2C6
330
1F
100
AcDbEntity
  8
0
100
AcDbLine
 10
-362.9654717237252
 20
95.50807033873583
 30
0.0
 11
-364.024890127998
 21
97.30782778897385
 31
0.0
  0
LINE
  5
2C7
330
1F
100
AcDbEntity
  8
0
100
AcDbLine
 10
-327.6954051825513
 20
89.26074608762194
 30
0.0
 11
-326.6359867782785
 21
87.46098863738392
 31
0.0
  0
LINE
  5
2C8
330
1F
100
AcDbEntity
  8
0
100
AcDbLine
 10
-321.3077510642732
 20
84.44432886470155
 30
0.0
 11
-319.2194061895803
 21
84.46193339091955
 31
0.0
  0
LINE
  5
2C9
330
1F
100
AcDbEntity
  8
0
100
AcDbLine
 10
-328.2529132753976
 20
91.27337594962094
 30
0.0
 11
-327.6954051825513
 21
89.26074608762194
 31
0.0
  0
LINE
  5
2CA
330
1F
100
AcDbEntity
  8
0
100
AcDbLine
 10
-321.4414707166962
 20
100.3068830354382
 30
0.0
 11
-323.4541005786952
 21
99.74937494259193
 31
0.0
  0
LINE
  5
2CB
330
1F
100
AcDbEntity
  8
0
100
AcDbLine
 10
-323.3294936996026
 20
84.96782762448073
 30
0.0
 11
-321.3077510642732
 21
84.44432886470155
 31
0.0
  0
LINE
  5
2CC
330
1F
100
AcDbEntity
  8
0
100
AcDbLine
 10
-325.1468556760587
 20
85.99675409490075
 30
0.0
 11
-323.3294936996026
 21
84.96782762448073
 31
0.0
  0
LINE
  5
2CD
330
1F
100
AcDbEntity
  8
0
100
AcDbLine
 10
-390.4070188773433
 20
86.07885988803868
 30
0.0
 11
-388.9427843348601
 21
87.5679909902585
 31
0.0
  0
LINE
  5
2CE
330
1F
100
AcDbEntity
  8
0
100
AcDbLine
 10
-315.5140212302178
 20
98.77206233145704
 30
0.0
 11
-317.3313832066739
 21
99.80098880187704
 31
0.0
  0
LINE
  5
2CF
330
1F
100
AcDbEntity
  8
0
100
AcDbLine
 10
-392.3313832066739
 20
99.80098880187704
 30
0.0
 11
-394.3531258420034
 21
100.3244875616562
 31
0.0
  0
LINE
  5
2D0
330
1F
100
AcDbEntity
  8
0
100
AcDbLine
 10
-387.9138578644401
 20
89.38535296671454
 30
0.0
 11
-387.3903591046609
 21
91.407095602044
 31
0.0
  0
LINE
  5
2D1
330
1F
100
AcDbEntity
  8
0
100
AcDbLine
 10
-403.2529132753976
 20
91.27337594962094
 30
0.0
 11
-402.6954051825513
 21
89.26074608762194
 31
0.0
  0
LINE
  5
2D2
330
1F
100
AcDbEntity
  8
0
100
AcDbLine
 10
-398.3294936996026
 20
84.96782762448073
 30
0.0
 11
-396.3077510642732
 21
84.44432886470155
 31
0.0
  0
LINE
  5
2D3
330
1F
100
AcDbEntity
  8
0
100
AcDbLine
 10
-401.7180925714164
 20
97.20082543609928
 30
0.0
 11
-402.7470190418364
 21
95.38346345964325
 31
0.0
  0
LINE
  5
2D4
330
1F
100
AcDbEntity
  8
0
100
AcDbLine
 10
-394.3531258420034
 20
100.3244875616562
 30
0.0
 11
-396.4414707166962
 21
100.3068830354382
 31
0.0
  0
LINE
  5
2D5
330
1F
100
AcDbEntity
  8
0
100
AcDbLine
 10
-390.5140212302178
 20
98.77206233145704
 30
0.0
 11
-392.3313832066739
 21
99.80098880187704
 31
0.0
  0
LINE
  5
2D6
330
1F
100
AcDbEntity
  8
0
100
AcDbLine
 10
-392.2067763275813
 20
85.01944148376585
 30
0.0
 11
-390.4070188773433
 21
86.07885988803868
 31
0.0
  0
LINE
  5
2D7
330
1F
100
AcDbEntity
  8
0
100
AcDbLine
 10
-403.2705178016156
 20
93.36172082431378
 30
0.0
 11
-403.2529132753976
 21
91.27337594962094
 31
0.0
  0
LINE
  5
2D8
330
1F
100
AcDbEntity
  8
0
100
AcDbLine
 10
-387.9654717237252
 20
95.50807033873583
 30
0.0
 11
-389.024890127998
 21
97.30782778897385
 31
0.0
  0
LINE
  5
2D9
330
1F
100
AcDbEntity
  8
0
100
AcDbLine
 10
-387.3903591046609
 20
91.407095602044
 30
0.0
 11
-387.4079636308789
 21
93.49544047673685
 31
0.0
  0
LINE
  5
2DA
330
1F
100
AcDbEntity
  8
0
100
AcDbLine
 10
-398.4541005786952
 20
99.74937494259193
 30
0.0
 11
-400.2538580289332
 21
98.6899565383191
 31
0.0
  0
LINE
  5
2DB
330
1F
100
AcDbEntity
  8
0
100
AcDbLine
 10
-394.2194061895803
 20
84.46193339091955
 30
0.0
 11
-392.2067763275813
 21
85.01944148376585
 31
0.0
  0
LINE
  5
2DC
330
1F
100
AcDbEntity
  8
0
100
AcDbLine
 10
-396.3077510642732
 20
84.44432886470155
 30
0.0
 11
-394.2194061895803
 21
84.46193339091955
 31
0.0
  0
LINE
  5
2DD
330
1F
100
AcDbEntity
  8
0
100
AcDbLine
 10
-400.2538580289332
 20
98.6899565383191
 30
0.0
 11
-401.7180925714164
 21
97.20082543609928
 31
0.0
  0
LINE
  5
2DE
330
1F
100
AcDbEntity
  8
0
100
AcDbLine
 10
-388.9427843348601
 20
87.5679909902585
 30
0.0
 11
-387.9138578644401
 21
89.38535296671454
 31
0.0
  0
LINE
  5
2DF
330
1F
100
AcDbEntity
  8
0
100
AcDbLine
 10
-400.1468556760587
 20
85.99675409490075
 30
0.0
 11
-398.3294936996026
 21
84.96782762448073
 31
0.0
  0
LINE
  5
2E0
330
1F
100
AcDbEntity
  8
0
100
AcDbLine
 10
-401.6359867782785
 20
87.46098863738392
 30
0.0
 11
-400.1468556760587
 21
85.99675409490075
 31
0.0
  0
LINE
  5
2E1
330
1F
100
AcDbEntity
  8
0
100
AcDbLine
 10
-402.6954051825513
 20
89.26074608762194
 30
0.0
 11
-401.6359867782785
 21
87.46098863738392
 31
0.0
  0
LINE
  5
2E2
330
1F
100
AcDbEntity
  8
0
100
AcDbLine
 10
-402.7470190418364
 20
95.38346345964325
 30
0.0
 11
-403.2705178016156
 21
93.36172082431378
 31
0.0
  0
LINE
  5
2E3
330
1F
100
AcDbEntity
  8
0
100
AcDbLine
 10
-396.4414707166962
 20
100.3068830354382
 30
0.0
 11
-398.4541005786952
 21
99.74937494259193
 31
0.0
  0
LINE
  5
2E4
330
1F
100
AcDbEntity
  8
0
100
AcDbLine
 10
-389.024890127998
 20
97.30782778897385
 30
0.0
 11
-390.5140212302178
 21
98.77206233145704
 31
0.0
  0
LINE
  5
2E5
330
1F
100
AcDbEntity
  8
0
100
AcDbLine
 10
-387.4079636308789
 20
93.49544047673685
 30
0.0
 11
-387.9654717237252
 21
95.50807033873583
 31
0.0
  0
LINE
  5
2E6
330
1F
100
AcDbEntity
  8
0
100
AcDbLine
 10
-323.4541005786952
 20
99.74937494259193
 30
0.0
 11
-325.2538580289332
 21
98.6899565383191
 31
0.0
  0
LINE
  5
2E7
330
1F
100
AcDbEntity
  8
0
100
AcDbLine
 10
-317.2067763275813
 20
85.01944148376585
 30
0.0
 11
-315.4070188773433
 21
86.07885988803868
 31
0.0
  0
LINE
  5
2E8
330
1F
100
AcDbEntity
  8
0
100
AcDbLine
 10
-380.7304384531383
 20
66.38440821317889
 30
0.0
 11
-380.7849571310758
 21
66.79851868534294
 31
0.0
  0
LINE
  5
2E9
330
1F
100
AcDbEntity
  8
0
100
AcDbLine
 10
-380.7849571310758
 20
66.79851868534294
 30
0.0
 11
-380.9447978070831
 21
67.18440821317888
 31
0.0
  0
LINE
  5
2EA
330
1F
100
AcDbEntity
  8
0
100
AcDbLine
 10
-380.9447978070831
 20
67.18440821317888
 30
0.0
 11
-381.1990676032398
 21
67.51577906307736
 31
0.0
  0
LINE
  5
2EB
330
1F
100
AcDbEntity
  8
0
100
AcDbLine
 10
-381.1990676032398
 20
67.51577906307736
 30
0.0
 11
-381.5304384531382
 21
67.77004885923398
 31
0.0
  0
LINE
  5
2EC
330
1F
100
AcDbEntity
  8
0
100
AcDbLine
 10
-381.5304384531382
 20
67.77004885923398
 30
0.0
 11
-381.9163279809742
 21
67.92988953524141
 31
0.0
  0
LINE
  5
2ED
330
1F
100
AcDbEntity
  8
0
100
AcDbLine
 10
-381.9163279809742
 20
67.92988953524141
 30
0.0
 11
-382.3304384531382
 21
67.98440821317888
 31
0.0
  0
LINE
  5
2EE
330
1F
100
AcDbEntity
  8
0
100
AcDbLine
 10
-382.3304384531382
 20
67.98440821317888
 30
0.0
 11
-382.7445489253023
 21
67.92988953524141
 31
0.0
  0
LINE
  5
2EF
330
1F
100
AcDbEntity
  8
0
100
AcDbLine
 10
-382.7445489253023
 20
67.92988953524141
 30
0.0
 11
-383.1304384531383
 21
67.77004885923398
 31
0.0
  0
LINE
  5
2F0
330
1F
100
AcDbEntity
  8
0
100
AcDbLine
 10
-383.1304384531383
 20
67.77004885923398
 30
0.0
 11
-383.4618093030367
 21
67.51577906307736
 31
0.0
  0
LINE
  5
2F1
330
1F
100
AcDbEntity
  8
0
100
AcDbLine
 10
-383.4618093030367
 20
67.51577906307736
 30
0.0
 11
-383.7160790991934
 21
67.18440821317888
 31
0.0
  0
LINE
  5
2F2
330
1F
100
AcDbEntity
  8
0
100
AcDbLine
 10
-383.7160790991934
 20
67.18440821317888
 30
0.0
 11
-383.8759197752007
 21
66.79851868534294
 31
0.0
  0
LINE
  5
2F3
330
1F
100
AcDbEntity
  8
0
100
AcDbLine
 10
-383.8759197752007
 20
66.79851868534294
 30
0.0
 11
-383.9304384531383
 21
66.38440821317889
 31
0.0
  0
LINE
  5
2F4
330
1F
100
AcDbEntity
  8
0
100
AcDbLine
 10
-383.9304384531383
 20
66.38440821317889
 30
0.0
 11
-383.8759197752007
 21
65.97029774101487
 31
0.0
  0
LINE
  5
2F5
330
1F
100
AcDbEntity
  8
0
100
AcDbLine
 10
-383.8759197752007
 20
65.97029774101487
 30
0.0
 11
-383.7160790991934
 21
65.58440821317889
 31
0.0
  0
LINE
  5
2F6
330
1F
100
AcDbEntity
  8
0
100
AcDbLine
 10
-383.7160790991934
 20
65.58440821317889
 30
0.0
 11
-383.4618093030367
 21
65.25303736328043
 31
0.0
  0
LINE
  5
2F7
330
1F
100
AcDbEntity
  8
0
100
AcDbLine
 10
-383.4618093030367
 20
65.25303736328043
 30
0.0
 11
-383.1304384531383
 21
64.9987675671238
 31
0.0
  0
LINE
  5
2F8
330
1F
100
AcDbEntity
  8
0
100
AcDbLine
 10
-383.1304384531383
 20
64.9987675671238
 30
0.0
 11
-382.7445489253023
 21
64.83892689111637
 31
0.0
  0
LINE
  5
2F9
330
1F
100
AcDbEntity
  8
0
100
AcDbLine
 10
-382.7445489253023
 20
64.83892689111637
 30
0.0
 11
-382.3304384531382
 21
64.78440821317889
 31
0.0
  0
LINE
  5
2FA
330
1F
100
AcDbEntity
  8
0
100
AcDbLine
 10
-382.3304384531382
 20
64.78440821317889
 30
0.0
 11
-381.9163279809742
 21
64.83892689111637
 31
0.0
  0
LINE
  5
2FB
330
1F
100
AcDbEntity
  8
0
100
AcDbLine
 10
-381.9163279809742
 20
64.83892689111637
 30
0.0
 11
-381.5304384531382
 21
64.9987675671238
 31
0.0
  0
LINE
  5
2FC
330
1F
100
AcDbEntity
  8
0
100
AcDbLine
 10
-381.5304384531382
 20
64.9987675671238
 30
0.0
 11
-381.1990676032398
 21
65.25303736328043
 31
0.0
  0
LINE
  5
2FD
330
1F
100
AcDbEntity
  8
0
100
AcDbLine
 10
-381.1990676032398
 20
65.25303736328043
 30
0.0
 11
-380.9447978070831
 21
65.58440821317889
 31
0.0
  0
LINE
  5
2FE
330
1F
100
AcDbEntity
  8
0
100
AcDbLine
 10
-380.9447978070831
 20
65.58440821317889
 30
0.0
 11
-380.7849571310758
 21
65.97029774101483
 31
0.0
  0
LINE
  5
2FF
330
1F
100
AcDbEntity
  8
0
100
AcDbLine
 10
-380.7849571310758
 20
65.97029774101483
 30
0.0
 11
-380.7304384531383
 21
66.38440821317889
 31
0.0
  0
LINE
  5
300
330
1F
100
AcDbEntity
  8
0
100
AcDbLine
 10
-274.7445489253023
 20
64.83892689111637
 30
0.0
 11
-274.3304384531382
 21
64.78440821317889
 31
0.0
  0
LINE
  5
301
330
1F
100
AcDbEntity
  8
0
100
AcDbLine
 10
-273.1990676032398
 20
65.25303736328043
 30
0.0
 11
-272.9447978070831
 21
65.58440821317889
 31
0.0
  0
LINE
  5
302
330
1F
100
AcDbEntity
  8
0
100
AcDbLine
 10
-273.5304384531383
 20
64.9987675671238
 30
0.0
 11
-273.1990676032398
 21
65.25303736328043
 31
0.0
  0
LINE
  5
303
330
1F
100
AcDbEntity
  8
0
100
AcDbLine
 10
-273.9163279809742
 20
64.83892689111637
 30
0.0
 11
-273.5304384531383
 21
64.9987675671238
 31
0.0
  0
LINE
  5
304
330
1F
100
AcDbEntity
  8
0
100
AcDbLine
 10
-274.3304384531382
 20
64.78440821317889
 30
0.0
 11
-273.9163279809742
 21
64.83892689111637
 31
0.0
  0
LINE
  5
305
330
1F
100
AcDbEntity
  8
0
100
AcDbLine
 10
-275.1304384531383
 20
64.9987675671238
 30
0.0
 11
-274.7445489253023
 21
64.83892689111637
 31
0.0
  0
LINE
  5
306
330
1F
100
AcDbEntity
  8
0
100
AcDbLine
 10
-275.4618093030367
 20
65.25303736328043
 30
0.0
 11
-275.1304384531383
 21
64.9987675671238
 31
0.0
  0
LINE
  5
307
330
1F
100
AcDbEntity
  8
0
100
AcDbLine
 10
-275.7160790991934
 20
65.58440821317889
 30
0.0
 11
-275.4618093030367
 21
65.25303736328043
 31
0.0
  0
LINE
  5
308
330
1F
100
AcDbEntity
  8
0
100
AcDbLine
 10
-275.8759197752008
 20
65.97029774101487
 30
0.0
 11
-275.7160790991934
 21
65.58440821317889
 31
0.0
  0
LINE
  5
309
330
1F
100
AcDbEntity
  8
0
100
AcDbLine
 10
-275.9304384531383
 20
66.38440821317889
 30
0.0
 11
-275.8759197752008
 21
65.97029774101487
 31
0.0
  0
LINE
  5
30A
330
1F
100
AcDbEntity
  8
0
100
AcDbLine
 10
-275.8759197752008
 20
66.79851868534294
 30
0.0
 11
-275.9304384531383
 21
66.38440821317889
 31
0.0
  0
LINE
  5
30B
330
1F
100
AcDbEntity
  8
0
100
AcDbLine
 10
-275.7160790991934
 20
67.18440821317888
 30
0.0
 11
-275.8759197752008
 21
66.79851868534294
 31
0.0
  0
LINE
  5
30C
330
1F
100
AcDbEntity
  8
0
100
AcDbLine
 10
-275.4618093030367
 20
67.51577906307736
 30
0.0
 11
-275.7160790991934
 21
67.18440821317888
 31
0.0
  0
LINE
  5
30D
330
1F
100
AcDbEntity
  8
0
100
AcDbLine
 10
-275.1304384531383
 20
67.77004885923398
 30
0.0
 11
-275.4618093030367
 21
67.51577906307736
 31
0.0
  0
LINE
  5
30E
330
1F
100
AcDbEntity
  8
0
100
AcDbLine
 10
-274.7445489253023
 20
67.92988953524141
 30
0.0
 11
-275.1304384531383
 21
67.77004885923398
 31
0.0
  0
LINE
  5
30F
330
1F
100
AcDbEntity
  8
0
100
AcDbLine
 10
-274.3304384531382
 20
67.98440821317888
 30
0.0
 11
-274.7445489253023
 21
67.92988953524141
 31
0.0
  0
LINE
  5
310
330
1F
100
AcDbEntity
  8
0
100
AcDbLine
 10
-273.9163279809742
 20
67.92988953524141
 30
0.0
 11
-274.3304384531382
 21
67.98440821317888
 31
0.0
  0
LINE
  5
311
330
1F
100
AcDbEntity
  8
0
100
AcDbLine
 10
-273.5304384531383
 20
67.77004885923398
 30
0.0
 11
-273.9163279809742
 21
67.92988953524141
 31
0.0
  0
LINE
  5
312
330
1F
100
AcDbEntity
  8
0
100
AcDbLine
 10
-273.1990676032398
 20
67.51577906307736
 30
0.0
 11
-273.5304384531383
 21
67.77004885923398
 31
0.0
  0
LINE
  5
313
330
1F
100
AcDbEntity
  8
0
100
AcDbLine
 10
-272.9447978070831
 20
67.18440821317888
 30
0.0
 11
-273.1990676032398
 21
67.51577906307736
 31
0.0
  0
LINE
  5
314
330
1F
100
AcDbEntity
  8
0
100
AcDbLine
 10
-272.7849571310758
 20
66.79851868534294
 30
0.0
 11
-272.9447978070831
 21
67.18440821317888
 31
0.0
  0
LINE
  5
315
330
1F
100
AcDbEntity
  8
0
100
AcDbLine
 10
-272.7304384531383
 20
66.38440821317889
 30
0.0
 11
-272.7849571310758
 21
66.79851868534294
 31
0.0
  0
LINE
  5
316
330
1F
100
AcDbEntity
  8
0
100
AcDbLine
 10
-272.7849571310758
 20
65.97029774101483
 30
0.0
 11
-272.7304384531383
 21
66.38440821317889
 31
0.0
  0
LINE
  5
317
330
1F
100
AcDbEntity
  8
0
100
AcDbLine
 10
-272.9447978070831
 20
65.58440821317889
 30
0.0
 11
-272.7849571310758
 21
65.97029774101483
 31
0.0
  0
LINE
  5
318
330
1F
100
AcDbEntity
  8
0
100
AcDbLine
 10
-383.9304384531383
 20
18.38440821317889
 30
0.0
 11
-383.8759197752007
 21
17.97029774101488
 31
0.0
  0
LINE
  5
319
330
1F
100
AcDbEntity
  8
0
100
AcDbLine
 10
-383.7160790991934
 20
19.18440821317889
 30
0.0
 11
-383.8759197752007
 21
18.79851868534294
 31
0.0
  0
LINE
  5
31A
330
1F
100
AcDbEntity
  8
0
100
AcDbLine
 10
-382.3304384531382
 20
16.78440821317889
 30
0.0
 11
-381.9163279809742
 21
16.83892689111637
 31
0.0
  0
LINE
  5
31B
330
1F
100
AcDbEntity
  8
0
100
AcDbLine
 10
-383.1304384531383
 20
16.9987675671238
 30
0.0
 11
-382.7445489253023
 21
16.83892689111637
 31
0.0
  0
LINE
  5
31C
330
1F
100
AcDbEntity
  8
0
100
AcDbLine
 10
-383.8759197752007
 20
18.79851868534294
 30
0.0
 11
-383.9304384531383
 21
18.38440821317889
 31
0.0
  0
LINE
  5
31D
330
1F
100
AcDbEntity
  8
0
100
AcDbLine
 10
-382.3304384531382
 20
19.98440821317888
 30
0.0
 11
-382.7445489253023
 21
19.92988953524141
 31
0.0
  0
LINE
  5
31E
330
1F
100
AcDbEntity
  8
0
100
AcDbLine
 10
-381.9163279809742
 20
19.92988953524141
 30
0.0
 11
-382.3304384531382
 21
19.98440821317888
 31
0.0
  0
LINE
  5
31F
330
1F
100
AcDbEntity
  8
0
100
AcDbLine
 10
-381.5304384531382
 20
19.77004885923397
 30
0.0
 11
-381.9163279809742
 21
19.92988953524141
 31
0.0
  0
LINE
  5
320
330
1F
100
AcDbEntity
  8
0
100
AcDbLine
 10
-381.1990676032398
 20
19.51577906307736
 30
0.0
 11
-381.5304384531382
 21
19.77004885923397
 31
0.0
  0
LINE
  5
321
330
1F
100
AcDbEntity
  8
0
100
AcDbLine
 10
-381.5304384531382
 20
16.9987675671238
 30
0.0
 11
-381.1990676032398
 21
17.25303736328042
 31
0.0
  0
LINE
  5
322
330
1F
100
AcDbEntity
  8
0
100
AcDbLine
 10
-380.9447978070831
 20
19.18440821317889
 30
0.0
 11
-381.1990676032398
 21
19.51577906307736
 31
0.0
  0
LINE
  5
323
330
1F
100
AcDbEntity
  8
0
100
AcDbLine
 10
-273.1990676032398
 20
17.25303736328042
 30
0.0
 11
-272.9447978070831
 21
17.58440821317889
 31
0.0
  0
LINE
  5
324
330
1F
100
AcDbEntity
  8
0
100
AcDbLine
 10
-273.9163279809742
 20
16.83892689111637
 30
0.0
 11
-273.5304384531383
 21
16.9987675671238
 31
0.0
  0
LINE
  5
325
330
1F
100
AcDbEntity
  8
0
100
AcDbLine
 10
-275.1304384531383
 20
16.9987675671238
 30
0.0
 11
-274.7445489253023
 21
16.83892689111637
 31
0.0
  0
LINE
  5
326
330
1F
100
AcDbEntity
  8
0
100
AcDbLine
 10
-275.4618093030367
 20
17.25303736328042
 30
0.0
 11
-275.1304384531383
 21
16.9987675671238
 31
0.0
  0
LINE
  5
327
330
1F
100
AcDbEntity
  8
0
100
AcDbLine
 10
-275.8759197752008
 20
17.97029774101488
 30
0.0
 11
-275.7160790991934
 21
17.58440821317889
 31
0.0
  0
LINE
  5
328
330
1F
100
AcDbEntity
  8
0
100
AcDbLine
 10
-275.7160790991934
 20
19.18440821317889
 30
0.0
 11
-275.8759197752008
 21
18.79851868534294
 31
0.0
  0
LINE
  5
329
330
1F
100
AcDbEntity
  8
0
100
AcDbLine
 10
-275.8759197752008
 20
18.79851868534294
 30
0.0
 11
-275.9304384531383
 21
18.38440821317889
 31
0.0
  0
LINE
  5
32A
330
1F
100
AcDbEntity
  8
0
100
AcDbLine
 10
-275.9304384531383
 20
18.38440821317889
 30
0.0
 11
-275.8759197752008
 21
17.97029774101488
 31
0.0
  0
LINE
  5
32B
330
1F
100
AcDbEntity
  8
0
100
AcDbLine
 10
-275.1304384531383
 20
19.77004885923397
 30
0.0
 11
-275.4618093030367
 21
19.51577906307736
 31
0.0
  0
LINE
  5
32C
330
1F
100
AcDbEntity
  8
0
100
AcDbLine
 10
-273.5304384531383
 20
16.9987675671238
 30
0.0
 11
-273.1990676032398
 21
17.25303736328042
 31
0.0
  0
LINE
  5
32D
330
1F
100
AcDbEntity
  8
0
100
AcDbLine
 10
-274.7445489253023
 20
19.92988953524141
 30
0.0
 11
-275.1304384531383
 21
19.77004885923397
 31
0.0
  0
LINE
  5
32E
330
1F
100
AcDbEntity
  8
0
100
AcDbLine
 10
-273.5304384531383
 20
19.77004885923397
 30
0.0
 11
-273.9163279809742
 21
19.92988953524141
 31
0.0
  0
LINE
  5
32F
330
1F
100
AcDbEntity
  8
0
100
AcDbLine
 10
-274.7445489253023
 20
16.83892689111637
 30
0.0
 11
-274.3304384531382
 21
16.78440821317889
 31
0.0
  0
LINE
  5
330
330
1F
100
AcDbEntity
  8
0
100
AcDbLine
 10
-275.4618093030367
 20
19.51577906307736
 30
0.0
 11
-275.7160790991934
 21
19.18440821317889
 31
0.0
  0
LINE
  5
331
330
1F
100
AcDbEntity
  8
0
100
AcDbLine
 10
-274.3304384531382
 20
16.78440821317889
 30
0.0
 11
-273.9163279809742
 21
16.83892689111637
 31
0.0
  0
LINE
  5
332
330
1F
100
AcDbEntity
  8
0
100
AcDbLine
 10
-273.1990676032398
 20
19.51577906307736
 30
0.0
 11
-273.5304384531383
 21
19.77004885923397
 31
0.0
  0
LINE
  5
333
330
1F
100
AcDbEntity
  8
0
100
AcDbLine
 10
-272.7304384531383
 20
18.38440821317889
 30
0.0
 11
-272.7849571310758
 21
18.79851868534294
 31
0.0
  0
LINE
  5
334
330
1F
100
AcDbEntity
  8
0
100
AcDbLine
 10
-272.9447978070831
 20
17.58440821317889
 30
0.0
 11
-272.7849571310758
 21
17.97029774101484
 31
0.0
  0
LINE
  5
335
330
1F
100
AcDbEntity
  8
0
100
AcDbLine
 10
-381.1990676032398
 20
17.25303736328042
 30
0.0
 11
-380.9447978070831
 21
17.58440821317889
 31
0.0
  0
LINE
  5
336
330
1F
100
AcDbEntity
  8
0
100
AcDbLine
 10
-381.9163279809742
 20
16.83892689111637
 30
0.0
 11
-381.5304384531382
 21
16.9987675671238
 31
0.0
  0
LINE
  5
337
330
1F
100
AcDbEntity
  8
0
100
AcDbLine
 10
-382.7445489253023
 20
16.83892689111637
 30
0.0
 11
-382.3304384531382
 21
16.78440821317889
 31
0.0
  0
LINE
  5
338
330
1F
100
AcDbEntity
  8
0
100
AcDbLine
 10
-383.4618093030367
 20
17.25303736328042
 30
0.0
 11
-383.1304384531383
 21
16.9987675671238
 31
0.0
  0
LINE
  5
339
330
1F
100
AcDbEntity
  8
0
100
AcDbLine
 10
-383.7160790991934
 20
17.58440821317889
 30
0.0
 11
-383.4618093030367
 21
17.25303736328042
 31
0.0
  0
LINE
  5
33A
330
1F
100
AcDbEntity
  8
0
100
AcDbLine
 10
-383.8759197752007
 20
17.97029774101488
 30
0.0
 11
-383.7160790991934
 21
17.58440821317889
 31
0.0
  0
LINE
  5
33B
330
1F
100
AcDbEntity
  8
0
100
AcDbLine
 10
-383.4618093030367
 20
19.51577906307736
 30
0.0
 11
-383.7160790991934
 21
19.18440821317889
 31
0.0
  0
LINE
  5
33C
330
1F
100
AcDbEntity
  8
0
100
AcDbLine
 10
-383.1304384531383
 20
19.77004885923397
 30
0.0
 11
-383.4618093030367
 21
19.51577906307736
 31
0.0
  0
LINE
  5
33D
330
1F
100
AcDbEntity
  8
0
100
AcDbLine
 10
-382.7445489253023
 20
19.92988953524141
 30
0.0
 11
-383.1304384531383
 21
19.77004885923397
 31
0.0
  0
LINE
  5
33E
330
1F
100
AcDbEntity
  8
0
100
AcDbLine
 10
-380.7849571310758
 20
18.79851868534294
 30
0.0
 11
-380.9447978070831
 21
19.18440821317889
 31
0.0
  0
LINE
  5
33F
330
1F
100
AcDbEntity
  8
0
100
AcDbLine
 10
-380.7304384531383
 20
18.38440821317889
 30
0.0
 11
-380.7849571310758
 21
18.79851868534294
 31
0.0
  0
LINE
  5
340
330
1F
100
AcDbEntity
  8
0
100
AcDbLine
 10
-380.7849571310758
 20
17.97029774101484
 30
0.0
 11
-380.7304384531383
 21
18.38440821317889
 31
0.0
  0
LINE
  5
341
330
1F
100
AcDbEntity
  8
0
100
AcDbLine
 10
-380.9447978070831
 20
17.58440821317889
 30
0.0
 11
-380.7849571310758
 21
17.97029774101484
 31
0.0
  0
LINE
  5
342
330
1F
100
AcDbEntity
  8
0
100
AcDbLine
 10
-274.3304384531382
 20
19.98440821317888
 30
0.0
 11
-274.7445489253023
 21
19.92988953524141
 31
0.0
  0
LINE
  5
343
330
1F
100
AcDbEntity
  8
0
100
AcDbLine
 10
-275.7160790991934
 20
17.58440821317889
 30
0.0
 11
-275.4618093030367
 21
17.25303736328042
 31
0.0
  0
LINE
  5
344
330
1F
100
AcDbEntity
  8
0
100
AcDbLine
 10
-273.9163279809742
 20
19.92988953524141
 30
0.0
 11
-274.3304384531382
 21
19.98440821317888
 31
0.0
  0
LINE
  5
345
330
1F
100
AcDbEntity
  8
0
100
AcDbLine
 10
-272.9447978070831
 20
19.18440821317889
 30
0.0
 11
-273.1990676032398
 21
19.51577906307736
 31
0.0
  0
LINE
  5
346
330
1F
100
AcDbEntity
  8
0
100
AcDbLine
 10
-272.7849571310758
 20
18.79851868534294
 30
0.0
 11
-272.9447978070831
 21
19.18440821317889
 31
0.0
  0
LINE
  5
347
330
1F
100
AcDbEntity
  8
0
100
AcDbLine
 10
-272.7849571310758
 20
17.97029774101484
 30
0.0
 11
-272.7304384531383
 21
18.38440821317889
 31
0.0
  0
LINE
  5
348
330
1F
100
AcDbEntity
  8
0
100
AcDbLine
 10
-261.7304384531383
 20
119.3844082131789
 30
0.0
 11
-261.7849571310757
 21
119.7985186853429
 31
0.0
  0
LINE
  5
349
330
1F
100
AcDbEntity
  8
0
100
AcDbLine
 10
-261.7849571310757
 20
119.7985186853429
 30
0.0
 11
-261.9447978070831
 21
120.1844082131789
 31
0.0
  0
LINE
  5
34A
330
1F
100
AcDbEntity
  8
0
100
AcDbLine
 10
-261.9447978070831
 20
120.1844082131789
 30
0.0
 11
-262.1990676032398
 21
120.5157790630774
 31
0.0
  0
LINE
  5
34B
330
1F
100
AcDbEntity
  8
0
100
AcDbLine
 10
-262.1990676032398
 20
120.5157790630774
 30
0.0
 11
-262.5304384531382
 21
120.770048859234
 31
0.0
  0
LINE
  5
34C
330
1F
100
AcDbEntity
  8
0
100
AcDbLine
 10
-262.5304384531382
 20
120.770048859234
 30
0.0
 11
-262.9163279809742
 21
120.9298895352414
 31
0.0
  0
LINE
  5
34D
330
1F
100
AcDbEntity
  8
0
100
AcDbLine
 10
-262.9163279809742
 20
120.9298895352414
 30
0.0
 11
-263.3304384531382
 21
120.9844082131789
 31
0.0
  0
LINE
  5
34E
330
1F
100
AcDbEntity
  8
0
100
AcDbLine
 10
-263.3304384531382
 20
120.9844082131789
 30
0.0
 11
-263.7445489253023
 21
120.9298895352414
 31
0.0
  0
LINE
  5
34F
330
1F
100
AcDbEntity
  8
0
100
AcDbLine
 10
-263.7445489253023
 20
120.9298895352414
 30
0.0
 11
-264.1304384531383
 21
120.770048859234
 31
0.0
  0
LINE
  5
350
330
1F
100
AcDbEntity
  8
0
100
AcDbLine
 10
-264.1304384531383
 20
120.770048859234
 30
0.0
 11
-264.4618093030367
 21
120.5157790630774
 31
0.0
  0
LINE
  5
351
330
1F
100
AcDbEntity
  8
0
100
AcDbLine
 10
-264.4618093030367
 20
120.5157790630774
 30
0.0
 11
-264.7160790991933
 21
120.1844082131789
 31
0.0
  0
LINE
  5
352
330
1F
100
AcDbEntity
  8
0
100
AcDbLine
 10
-264.7160790991933
 20
120.1844082131789
 30
0.0
 11
-264.8759197752008
 21
119.7985186853429
 31
0.0
  0
LINE
  5
353
330
1F
100
AcDbEntity
  8
0
100
AcDbLine
 10
-264.8759197752008
 20
119.7985186853429
 30
0.0
 11
-264.9304384531383
 21
119.3844082131789
 31
0.0
  0
LINE
  5
354
330
1F
100
AcDbEntity
  8
0
100
AcDbLine
 10
-264.9304384531383
 20
119.3844082131789
 30
0.0
 11
-264.8759197752008
 21
118.9702977410149
 31
0.0
  0
LINE
  5
355
330
1F
100
AcDbEntity
  8
0
100
AcDbLine
 10
-264.8759197752008
 20
118.9702977410149
 30
0.0
 11
-264.7160790991933
 21
118.5844082131789
 31
0.0
  0
LINE
  5
356
330
1F
100
AcDbEntity
  8
0
100
AcDbLine
 10
-264.7160790991933
 20
118.5844082131789
 30
0.0
 11
-264.4618093030367
 21
118.2530373632804
 31
0.0
  0
LINE
  5
357
330
1F
100
AcDbEntity
  8
0
100
AcDbLine
 10
-264.4618093030367
 20
118.2530373632804
 30
0.0
 11
-264.1304384531383
 21
117.9987675671238
 31
0.0
  0
LINE
  5
358
330
1F
100
AcDbEntity
  8
0
100
AcDbLine
 10
-264.1304384531383
 20
117.9987675671238
 30
0.0
 11
-263.7445489253023
 21
117.8389268911164
 31
0.0
  0
LINE
  5
359
330
1F
100
AcDbEntity
  8
0
100
AcDbLine
 10
-263.7445489253023
 20
117.8389268911164
 30
0.0
 11
-263.3304384531382
 21
117.7844082131789
 31
0.0
  0
LINE
  5
35A
330
1F
100
AcDbEntity
  8
0
100
AcDbLine
 10
-263.3304384531382
 20
117.7844082131789
 30
0.0
 11
-262.9163279809742
 21
117.8389268911164
 31
0.0
  0
LINE
  5
35B
330
1F
100
AcDbEntity
  8
0
100
AcDbLine
 10
-262.9163279809742
 20
117.8389268911164
 30
0.0
 11
-262.5304384531382
 21
117.9987675671238
 31
0.0
  0
LINE
  5
35C
330
1F
100
AcDbEntity
  8
0
100
AcDbLine
 10
-262.5304384531382
 20
117.9987675671238
 30
0.0
 11
-262.1990676032398
 21
118.2530373632804
 31
0.0
  0
LINE
  5
35D
330
1F
100
AcDbEntity
  8
0
100
AcDbLine
 10
-262.1990676032398
 20
118.2530373632804
 30
0.0
 11
-261.9447978070831
 21
118.5844082131789
 31
0.0
  0
LINE
  5
35E
330
1F
100
AcDbEntity
  8
0
100
AcDbLine
 10
-261.9447978070831
 20
118.5844082131789
 30
0.0
 11
-261.7849571310757
 21
118.9702977410148
 31
0.0
  0
LINE
  5
35F
330
1F
100
AcDbEntity
  8
0
100
AcDbLine
 10
-261.7849571310757
 20
118.9702977410148
 30
0.0
 11
-261.7304384531383
 21
119.3844082131789
 31
0.0
  0
LINE
  5
360
330
1F
100
AcDbEntity
  8
0
100
AcDbLine
 10
-217.4618093030367
 20
118.2530373632804
 30
0.0
 11
-217.1304384531383
 21
117.9987675671238
 31
0.0
  0
LINE
  5
361
330
1F
100
AcDbEntity
  8
0
100
AcDbLine
 10
-217.1304384531383
 20
120.770048859234
 30
0.0
 11
-217.4618093030367
 21
120.5157790630774
 31
0.0
  0
LINE
  5
362
330
1F
100
AcDbEntity
  8
0
100
AcDbLine
 10
-214.7849571310757
 20
119.7985186853429
 30
0.0
 11
-214.9447978070831
 21
120.1844082131789
 31
0.0
  0
LINE
  5
363
330
1F
100
AcDbEntity
  8
0
100
AcDbLine
 10
-215.9163279809742
 20
120.9298895352414
 30
0.0
 11
-216.3304384531382
 21
120.9844082131789
 31
0.0
  0
LINE
  5
364
330
1F
100
AcDbEntity
  8
0
100
AcDbLine
 10
-215.5304384531382
 20
117.9987675671238
 30
0.0
 11
-215.1990676032398
 21
118.2530373632804
 31
0.0
  0
LINE
  5
365
330
1F
100
AcDbEntity
  8
0
100
AcDbLine
 10
-217.7160790991933
 20
118.5844082131789
 30
0.0
 11
-217.4618093030367
 21
118.2530373632804
 31
0.0
  0
LINE
  5
366
330
1F
100
AcDbEntity
  8
0
100
AcDbLine
 10
-217.9304384531382
 20
119.3844082131789
 30
0.0
 11
-217.8759197752008
 21
118.9702977410149
 31
0.0
  0
LINE
  5
367
330
1F
100
AcDbEntity
  8
0
100
AcDbLine
 10
-217.8759197752008
 20
119.7985186853429
 30
0.0
 11
-217.9304384531382
 21
119.3844082131789
 31
0.0
  0
LINE
  5
368
330
1F
100
AcDbEntity
  8
0
100
AcDbLine
 10
-217.7160790991933
 20
120.1844082131789
 30
0.0
 11
-217.8759197752008
 21
119.7985186853429
 31
0.0
  0
LINE
  5
369
330
1F
100
AcDbEntity
  8
0
100
AcDbLine
 10
-217.4618093030367
 20
120.5157790630774
 30
0.0
 11
-217.7160790991933
 21
120.1844082131789
 31
0.0
  0
LINE
  5
36A
330
1F
100
AcDbEntity
  8
0
100
AcDbLine
 10
-216.7445489253023
 20
120.9298895352414
 30
0.0
 11
-217.1304384531383
 21
120.770048859234
 31
0.0
  0
LINE
  5
36B
330
1F
100
AcDbEntity
  8
0
100
AcDbLine
 10
-216.3304384531382
 20
120.9844082131789
 30
0.0
 11
-216.7445489253023
 21
120.9298895352414
 31
0.0
  0
LINE
  5
36C
330
1F
100
AcDbEntity
  8
0
100
AcDbLine
 10
-215.5304384531382
 20
120.770048859234
 30
0.0
 11
-215.9163279809742
 21
120.9298895352414
 31
0.0
  0
LINE
  5
36D
330
1F
100
AcDbEntity
  8
0
100
AcDbLine
 10
-215.1990676032398
 20
120.5157790630774
 30
0.0
 11
-215.5304384531382
 21
120.770048859234
 31
0.0
  0
LINE
  5
36E
330
1F
100
AcDbEntity
  8
0
100
AcDbLine
 10
-214.9447978070831
 20
120.1844082131789
 30
0.0
 11
-215.1990676032398
 21
120.5157790630774
 31
0.0
  0
LINE
  5
36F
330
1F
100
AcDbEntity
  8
0
100
AcDbLine
 10
-214.7304384531382
 20
119.3844082131789
 30
0.0
 11
-214.7849571310757
 21
119.7985186853429
 31
0.0
  0
LINE
  5
370
330
1F
100
AcDbEntity
  8
0
100
AcDbLine
 10
-214.7849571310757
 20
118.9702977410148
 30
0.0
 11
-214.7304384531382
 21
119.3844082131789
 31
0.0
  0
LINE
  5
371
330
1F
100
AcDbEntity
  8
0
100
AcDbLine
 10
-214.9447978070831
 20
118.5844082131789
 30
0.0
 11
-214.7849571310757
 21
118.9702977410148
 31
0.0
  0
LINE
  5
372
330
1F
100
AcDbEntity
  8
0
100
AcDbLine
 10
-215.1990676032398
 20
118.2530373632804
 30
0.0
 11
-214.9447978070831
 21
118.5844082131789
 31
0.0
  0
LINE
  5
373
330
1F
100
AcDbEntity
  8
0
100
AcDbLine
 10
-215.9163279809742
 20
117.8389268911164
 30
0.0
 11
-215.5304384531382
 21
117.9987675671238
 31
0.0
  0
LINE
  5
374
330
1F
100
AcDbEntity
  8
0
100
AcDbLine
 10
-216.3304384531382
 20
117.7844082131789
 30
0.0
 11
-215.9163279809742
 21
117.8389268911164
 31
0.0
  0
LINE
  5
375
330
1F
100
AcDbEntity
  8
0
100
AcDbLine
 10
-216.7445489253023
 20
117.8389268911164
 30
0.0
 11
-216.3304384531382
 21
117.7844082131789
 31
0.0
  0
LINE
  5
376
330
1F
100
AcDbEntity
  8
0
100
AcDbLine
 10
-217.1304384531383
 20
117.9987675671238
 30
0.0
 11
-216.7445489253023
 21
117.8389268911164
 31
0.0
  0
LINE
  5
377
330
1F
100
AcDbEntity
  8
0
100
AcDbLine
 10
-217.8759197752008
 20
118.9702977410149
 30
0.0
 11
-217.7160790991933
 21
118.5844082131789
 31
0.0
  0
LINE
  5
378
330
1F
100
AcDbEntity
  8
0
100
AcDbLine
 10
-215.1990676032398
 20
12.25303736328043
 30
0.0
 11
-214.9447978070831
 21
12.5844082131789
 31
0.0
  0
LINE
  5
379
330
1F
100
AcDbEntity
  8
0
100
AcDbLine
 10
-216.7445489253023
 20
11.83892689111637
 30
0.0
 11
-216.3304384531382
 21
11.7844082131789
 31
0.0
  0
LINE
  5
37A
330
1F
100
AcDbEntity
  8
0
100
AcDbLine
 10
-216.3304384531382
 20
11.7844082131789
 30
0.0
 11
-215.9163279809742
 21
11.83892689111637
 31
0.0
  0
LINE
  5
37B
330
1F
100
AcDbEntity
  8
0
100
AcDbLine
 10
-215.9163279809742
 20
11.83892689111637
 30
0.0
 11
-215.5304384531382
 21
11.99876756712381
 31
0.0
  0
LINE
  5
37C
330
1F
100
AcDbEntity
  8
0
100
AcDbLine
 10
-217.1304384531383
 20
11.99876756712381
 30
0.0
 11
-216.7445489253023
 21
11.83892689111637
 31
0.0
  0
LINE
  5
37D
330
1F
100
AcDbEntity
  8
0
100
AcDbLine
 10
-217.8759197752008
 20
12.97029774101489
 30
0.0
 11
-217.7160790991933
 21
12.5844082131789
 31
0.0
  0
LINE
  5
37E
330
1F
100
AcDbEntity
  8
0
100
AcDbLine
 10
-262.9163279809742
 20
11.83892689111637
 30
0.0
 11
-262.5304384531382
 21
11.99876756712381
 31
0.0
  0
LINE
  5
37F
330
1F
100
AcDbEntity
  8
0
100
AcDbLine
 10
-217.4618093030367
 20
12.25303736328043
 30
0.0
 11
-217.1304384531383
 21
11.99876756712381
 31
0.0
  0
LINE
  5
380
330
1F
100
AcDbEntity
  8
0
100
AcDbLine
 10
-215.1990676032398
 20
14.51577906307737
 30
0.0
 11
-215.5304384531382
 21
14.77004885923398
 31
0.0
  0
LINE
  5
381
330
1F
100
AcDbEntity
  8
0
100
AcDbLine
 10
-217.9304384531382
 20
13.3844082131789
 30
0.0
 11
-217.8759197752008
 21
12.97029774101489
 31
0.0
  0
LINE
  5
382
330
1F
100
AcDbEntity
  8
0
100
AcDbLine
 10
-217.8759197752008
 20
13.79851868534295
 30
0.0
 11
-217.9304384531382
 21
13.3844082131789
 31
0.0
  0
LINE
  5
383
330
1F
100
AcDbEntity
  8
0
100
AcDbLine
 10
-217.7160790991933
 20
14.1844082131789
 30
0.0
 11
-217.8759197752008
 21
13.79851868534295
 31
0.0
  0
LINE
  5
384
330
1F
100
AcDbEntity
  8
0
100
AcDbLine
 10
-217.4618093030367
 20
14.51577906307737
 30
0.0
 11
-217.7160790991933
 21
14.1844082131789
 31
0.0
  0
LINE
  5
385
330
1F
100
AcDbEntity
  8
0
100
AcDbLine
 10
-217.1304384531383
 20
14.77004885923398
 30
0.0
 11
-217.4618093030367
 21
14.51577906307737
 31
0.0
  0
LINE
  5
386
330
1F
100
AcDbEntity
  8
0
100
AcDbLine
 10
-216.7445489253023
 20
14.92988953524142
 30
0.0
 11
-217.1304384531383
 21
14.77004885923398
 31
0.0
  0
LINE
  5
387
330
1F
100
AcDbEntity
  8
0
100
AcDbLine
 10
-216.3304384531382
 20
14.9844082131789
 30
0.0
 11
-216.7445489253023
 21
14.92988953524142
 31
0.0
  0
LINE
  5
388
330
1F
100
AcDbEntity
  8
0
100
AcDbLine
 10
-215.9163279809742
 20
14.92988953524142
 30
0.0
 11
-216.3304384531382
 21
14.9844082131789
 31
0.0
  0
LINE
  5
389
330
1F
100
AcDbEntity
  8
0
100
AcDbLine
 10
-215.5304384531382
 20
14.77004885923398
 30
0.0
 11
-215.9163279809742
 21
14.92988953524142
 31
0.0
  0
LINE
  5
38A
330
1F
100
AcDbEntity
  8
0
100
AcDbLine
 10
-214.9447978070831
 20
14.1844082131789
 30
0.0
 11
-215.1990676032398
 21
14.51577906307737
 31
0.0
  0
LINE
  5
38B
330
1F
100
AcDbEntity
  8
0
100
AcDbLine
 10
-214.7849571310757
 20
13.79851868534295
 30
0.0
 11
-214.9447978070831
 21
14.1844082131789
 31
0.0
  0
LINE
  5
38C
330
1F
100
AcDbEntity
  8
0
100
AcDbLine
 10
-214.7304384531382
 20
13.3844082131789
 30
0.0
 11
-214.7849571310757
 21
13.79851868534295
 31
0.0
  0
LINE
  5
38D
330
1F
100
AcDbEntity
  8
0
100
AcDbLine
 10
-214.7849571310757
 20
12.97029774101484
 30
0.0
 11
-214.7304384531382
 21
13.3844082131789
 31
0.0
  0
LINE
  5
38E
330
1F
100
AcDbEntity
  8
0
100
AcDbLine
 10
-214.9447978070831
 20
12.5844082131789
 30
0.0
 11
-214.7849571310757
 21
12.97029774101484
 31
0.0
  0
LINE
  5
38F
330
1F
100
AcDbEntity
  8
0
100
AcDbLine
 10
-215.5304384531382
 20
11.99876756712381
 30
0.0
 11
-215.1990676032398
 21
12.25303736328043
 31
0.0
  0
LINE
  5
390
330
1F
100
AcDbEntity
  8
0
100
AcDbLine
 10
-217.7160790991933
 20
12.5844082131789
 30
0.0
 11
-217.4618093030367
 21
12.25303736328043
 31
0.0
  0
LINE
  5
391
330
1F
100
AcDbEntity
  8
0
100
AcDbLine
 10
-264.9304384531383
 20
13.3844082131789
 30
0.0
 11
-264.8759197752008
 21
12.97029774101489
 31
0.0
  0
LINE
  5
392
330
1F
100
AcDbEntity
  8
0
100
AcDbLine
 10
-264.7160790991933
 20
14.1844082131789
 30
0.0
 11
-264.8759197752008
 21
13.79851868534295
 31
0.0
  0
LINE
  5
393
330
1F
100
AcDbEntity
  8
0
100
AcDbLine
 10
-264.1304384531383
 20
11.99876756712381
 30
0.0
 11
-263.7445489253023
 21
11.83892689111637
 31
0.0
  0
LINE
  5
394
330
1F
100
AcDbEntity
  8
0
100
AcDbLine
 10
-264.8759197752008
 20
12.97029774101489
 30
0.0
 11
-264.7160790991933
 21
12.5844082131789
 31
0.0
  0
LINE
  5
395
330
1F
100
AcDbEntity
  8
0
100
AcDbLine
 10
-261.7849571310757
 20
12.97029774101484
 30
0.0
 11
-261.7304384531383
 21
13.3844082131789
 31
0.0
  0
LINE
  5
396
330
1F
100
AcDbEntity
  8
0
100
AcDbLine
 10
-262.5304384531382
 20
11.99876756712381
 30
0.0
 11
-262.1990676032398
 21
12.25303736328043
 31
0.0
  0
LINE
  5
397
330
1F
100
AcDbEntity
  8
0
100
AcDbLine
 10
-263.3304384531382
 20
14.9844082131789
 30
0.0
 11
-263.7445489253023
 21
14.92988953524142
 31
0.0
  0
LINE
  5
398
330
1F
100
AcDbEntity
  8
0
100
AcDbLine
 10
-264.4618093030367
 20
14.51577906307737
 30
0.0
 11
-264.7160790991933
 21
14.1844082131789
 31
0.0
  0
LINE
  5
399
330
1F
100
AcDbEntity
  8
0
100
AcDbLine
 10
-263.3304384531382
 20
11.7844082131789
 30
0.0
 11
-262.9163279809742
 21
11.83892689111637
 31
0.0
  0
LINE
  5
39A
330
1F
100
AcDbEntity
  8
0
100
AcDbLine
 10
-262.5304384531382
 20
14.77004885923398
 30
0.0
 11
-262.9163279809742
 21
14.92988953524142
 31
0.0
  0
LINE
  5
39B
330
1F
100
AcDbEntity
  8
0
100
AcDbLine
 10
-264.7160790991933
 20
12.5844082131789
 30
0.0
 11
-264.4618093030367
 21
12.25303736328043
 31
0.0
  0
LINE
  5
39C
330
1F
100
AcDbEntity
  8
0
100
AcDbLine
 10
-262.1990676032398
 20
14.51577906307737
 30
0.0
 11
-262.5304384531382
 21
14.77004885923398
 31
0.0
  0
LINE
  5
39D
330
1F
100
AcDbEntity
  8
0
100
AcDbLine
 10
-264.1304384531383
 20
14.77004885923398
 30
0.0
 11
-264.4618093030367
 21
14.51577906307737
 31
0.0
  0
LINE
  5
39E
330
1F
100
AcDbEntity
  8
0
100
AcDbLine
 10
-261.7304384531383
 20
13.3844082131789
 30
0.0
 11
-261.7849571310757
 21
13.79851868534295
 31
0.0
  0
LINE
  5
39F
330
1F
100
AcDbEntity
  8
0
100
AcDbLine
 10
-261.9447978070831
 20
12.5844082131789
 30
0.0
 11
-261.7849571310757
 21
12.97029774101484
 31
0.0
  0
LINE
  5
3A0
330
1F
100
AcDbEntity
  8
0
100
AcDbLine
 10
-263.7445489253023
 20
14.92988953524142
 30
0.0
 11
-264.1304384531383
 21
14.77004885923398
 31
0.0
  0
LINE
  5
3A1
330
1F
100
AcDbEntity
  8
0
100
AcDbLine
 10
-262.9163279809742
 20
14.92988953524142
 30
0.0
 11
-263.3304384531382
 21
14.9844082131789
 31
0.0
  0
LINE
  5
3A2
330
1F
100
AcDbEntity
  8
0
100
AcDbLine
 10
-262.1990676032398
 20
12.25303736328043
 30
0.0
 11
-261.9447978070831
 21
12.5844082131789
 31
0.0
  0
LINE
  5
3A3
330
1F
100
AcDbEntity
  8
0
100
AcDbLine
 10
-264.8759197752008
 20
13.79851868534295
 30
0.0
 11
-264.9304384531383
 21
13.3844082131789
 31
0.0
  0
LINE
  5
3A4
330
1F
100
AcDbEntity
  8
0
100
AcDbLine
 10
-261.9447978070831
 20
14.1844082131789
 30
0.0
 11
-262.1990676032398
 21
14.51577906307737
 31
0.0
  0
LINE
  5
3A5
330
1F
100
AcDbEntity
  8
0
100
AcDbLine
 10
-261.7849571310757
 20
13.79851868534295
 30
0.0
 11
-261.9447978070831
 21
14.1844082131789
 31
0.0
  0
LINE
  5
3A6
330
1F
100
AcDbEntity
  8
0
100
AcDbLine
 10
-263.7445489253023
 20
11.83892689111637
 30
0.0
 11
-263.3304384531382
 21
11.7844082131789
 31
0.0
  0
LINE
  5
3A7
330
1F
100
AcDbEntity
  8
0
100
AcDbLine
 10
-264.4618093030367
 20
12.25303736328043
 30
0.0
 11
-264.1304384531383
 21
11.99876756712381
 31
0.0
  0
ENDSEC
  0
SECTION
  2
OBJECTS
  0
DICTIONARY
  5
C
330
0
100
AcDbDictionary
  3
ACAD_GROUP
350
D
  3
ACAD_LAYOUT
350
1A
  3
ACAD_MATERIAL
350
43
  3
ACAD_MLEADERSTYLE
350
6B
  3
ACAD_MLINESTYLE
350
17
  3
ACAD_PLOTSETTINGS
350
19
  3
ACAD_SCALELIST
350
47
  3
ACAD_VISUALSTYLE
350
2A
  3
ACDBHEADERROUNDTRIPXREC
350
3A8
  3
ACDBVARIABLEDICTIONARY
350
3C9
  0
DICTIONARY
  5
3D0
330
8
100
AcDbDictionary
280
     1
  3
ACAD_XREC_ROUNDTRIP
360
3D1
  0
DICTIONARY
  5
D
102
{ACAD_REACTORS
330
C
102
}
330
C
100
AcDbDictionary
  0
DICTIONARY
  5
1A
102
{ACAD_REACTORS
330
C
102
}
330
C
100
AcDbDictionary
  0
DICTIONARY
  5
43
102
{ACAD_REACTORS
330
C
102
}
330
C
100
AcDbDictionary
  3
BYBLOCK
350
45
  3
BYLAYER
350
44
  3
GLOBAL
350
46
  0
DICTIONARY
  5
6B
102
{ACAD_REACTORS
330
C
102
}
330
C
100
AcDbDictionary
  3
STANDARD
350
6C
  0
DICTIONARY
  5
17
102
{ACAD_REACTORS
330
C
102
}
330
C
100
AcDbDictionary
  3
STANDARD
350
18
  0
DICTIONARY
  5
19
102
{ACAD_REACTORS
330
C
102
}
330
C
100
AcDbDictionary
  0
DICTIONARY
  5
47
102
{ACAD_REACTORS
330
C
102
}
330
C
100
AcDbDictionary
  3
A0
350
48
  3
A1
350
49
  3
A2
350
4A
  3
A3
350
4B
  3
A4
350
4C
  3
A5
350
4D
  3
A6
350
4E
  3
A7
350
4F
  3
A8
350
50
  3
A9
350
51
  3
B0
350
52
  3
B1
350
53
  3
B2
350
54
  3
B3
350
55
  3
B4
350
56
  3
B5
350
57
  3
B6
350
58
  3
B7
350
59
  3
B8
350
5A
  3
B9
350
5B
  3
C0
350
5C
  3
C1
350
5D
  3
C2
350
5E
  3
C3
350
5F
  3
C4
350
60
  3
C5
350
61
  3
C6
350
62
  3
C7
350
63
  3
C8
350
64
  3
C9
350
65
  3
D0
350
66
  3
D1
350
67
  3
D2
350
68
  0
DICTIONARY
  5
2A
102
{ACAD_REACTORS
330
C
102
}
330
C
100
AcDbDictionary
  3
2DWIREFRAME
350
2F
  3
BASIC
350
32
  3
BRIGHTEN
350
36
  3
COLORCHANGE
350
3A
  3
CONCEPTUAL
350
34
  3
DIM
350
35
  3
EDGECOLOROFF
350
3D
  3
FACEPATTERN
350
39
  3
FLAT
350
2B
  3
FLATWITHEDGES
350
2C
  3
GOURAUD
350
2D
  3
GOURAUDWITHEDGES
350
2E
  3
HIDDEN
350
31
  3
JITTEROFF
350
3B
  3
LINEPATTERN
350
38
  3
OVERHANGOFF
350
3C
  3
REALISTIC
350
33
  3
SHADED
350
42
  3
SHADED_WITH_EDGES
350
41
  3
SHADES_OF_GRAY
350
3E
  3
SKETCHY
350
3F
  3
THICKEN
350
37
  3
WIREFRAME
350
30
  3
X-RAY
350
40
  0
DICTIONARY
  5
3A8
102
{ACAD_REACTORS
330
C
102
}
330
C
100
AcDbDictionary
  3
CEPSNID
350
3B2
  3
CEPSNTYPE
350
3B1
  3
DIMSTYLEDATA
350
3C8
  3
FINGERPRINTGUID
350
3B3
  3
HYPERLINKBASE
350
3AB
  3
INSUNITS
350
3B0
  3
LAYOUTDICT
350
3AD
  3
LWETCUNION
350
3AF
  3
PLOTSETDICT
350
3AE
  3
PSVPSCALE
350
3B5
  3
PUCSBASE
350
3B8
  3
PUCSORGBACK
350
3BE
  3
PUCSORGBOTTOM
350
3BA
  3
PUCSORGFRONT
350
3BD
  3
PUCSORGLEFT
350
3BB
  3
PUCSORGRIGHT
350
3BC
  3
PUCSORGTOP
350
3B9
  3
PUCSORTHOREF
350
3B6
  3
PUCSORTHOVIEW
350
3B7
  3
STYLESHEET
350
3AC
  3
TSTACKALIGN
350
3A9
  3
TSTACKSIZE
350
3AA
  3
UCSBASE
350
3C1
  3
UCSORGBACK
350
3C7
  3
UCSORGBOTTOM
350
3C3
  3
UCSORGFRONT
350
3C6
  3
UCSORGLEFT
350
3C4
  3
UCSORGRIGHT
350
3C5
  3
UCSORGTOP
350
3C2
  3
UCSORTHOREF
350
3BF
  3
UCSORTHOVIEW
350
3C0
  3
VERSIONGUID
350
3B4
  0
DICTIONARY
  5
3C9
102
{ACAD_REACTORS
330
C
102
}
330
C
100
AcDbDictionary
  3
CANNOSCALE
350
3D2
  3
CMLEADERSTYLE
350
3CB
  3
CTABLESTYLE
350
3CA
  3
DIMASSOC
350
3CE
  3
HIDETEXT
350
3CF
  3
MSLTSCALE
350
3D3
  0
XRECORD
  5
3D1
102
{ACAD_REACTORS
330
3D0
102
}
330
3D0
100
AcDbXrecord
102
VTR_0.000_0.000_1.000_1.000_VISUALSTYLE
340
2F
102
VTR_0.000_0.000_1.000_1.000_GRIDDISPLAY
 70
     3
102
VTR_0.000_0.000_1.000_1.000_GRIDMAJOR
 70
     5
102
VTR_0.000_0.000_1.000_1.000_DEFAULTLIGHTING
280
     1
102
VTR_0.000_0.000_1.000_1.000_DEFAULTLIGHTINGTYPE
 70
     1
102
VTR_0.000_0.000_1.000_1.000_BRIGHTNESS
141
0.0
102
VTR_0.000_0.000_1.000_1.000_CONTRAST
142
0.0
  0
MATERIAL
  5
45
102
{ACAD_REACTORS
330
43
102
}
102
{ACAD_XDICTIONARY
360
3D6
102
}
330
43
100
AcDbMaterial
  1
BYBLOCK
  0
MATERIAL
  5
44
102
{ACAD_REACTORS
330
43
102
}
102
{ACAD_XDICTIONARY
360
3D4
102
}
330
43
100
AcDbMaterial
  1
BYLAYER
  0
MATERIAL
  5
46
102
{ACAD_REACTORS
330
43
102
}
102
{ACAD_XDICTIONARY
360
3D8
102
}
330
43
100
AcDbMaterial
  1
GLOBAL
  0
ACAD_PROXY_OBJECT
  5
6C
102
{ACAD_REACTORS
330
6B
102
}
330
6B
100
AcDbProxyObject
 90
      499
 91
      505
 93
      610
310
40901902A4063FBFFFFFE056BD1B81E855B9FC0AD7A3703D0AD73F4214DD185B99185C9900AD7A3703D0AC73F90141901A02B5E8DC0F42B1CFC02B5E8DC0F42B1CFE5764000000000000300FC0
340
14
340
0
340
11
340
0
 94
        0
1001
ACAD_MLEADERVER
1070
     2
  0
MLINESTYLE
  5
18
102
{ACAD_REACTORS
330
17
102
}
330
17
100
AcDbMlineStyle
  2
Standard
 70
     0
  3

 62
   256
 51
90.0
 52
90.0
 71
     2
 49
0.5
 62
   256
  6
BYLAYER
 49
-0.5
 62
   256
  6
BYLAYER
  0
ACAD_PROXY_OBJECT
  5
48
102
{ACAD_REACTORS
330
47
102
}
330
47
100
AcDbProxyObject
 90
      499
 91
      503
 93
       41
310
903313A31580
  0
ACAD_PROXY_OBJECT
  5
49
102
{ACAD_REACTORS
330
47
102
}
330
47
100
AcDbProxyObject
 90
      499
 91
      503
 93
      105
310
903313A324000000000000004000
  0
ACAD_PROXY_OBJECT
  5
4A
102
{ACAD_REACTORS
330
47
102
}
330
47
100
AcDbProxyObject
 90
      499
 91
      503
 93
      105
310
903313A344000000000000104000
  0
ACAD_PROXY_OBJECT
  5
4B
102
{ACAD_REACTORS
330
47
102
}
330
47
100
AcDbProxyObject
 90
      499
 91
      503
 93
      105
310
903313A354000000000000144000
  0
ACAD_PROXY_OBJECT
  5
4C
102
{ACAD_REACTORS
330
47
102
}
330
47
100
AcDbProxyObject
 90
      499
 91
      503
 93
      105
310
903313A384000000000000204000
  0
ACAD_PROXY_OBJECT
  5
4D
102
{ACAD_REACTORS
330
47
102
}
330
47
100
AcDbProxyObject
 90
      499
 91
      503
 93
      113
310
904313A31304000000000000244000
  0
ACAD_PROXY_OBJECT
  5
4E
102
{ACAD_REACTORS
330
47
102
}
330
47
100
AcDbProxyObject
 90
      499
 91
      503
 93
      113
310
904313A31364000000000000304000
  0
ACAD_PROXY_OBJECT
  5
4F
102
{ACAD_REACTORS
330
47
102
}
330
47
100
AcDbProxyObject
 90
      499
 91
      503
 93
      113
310
904313A32304000000000000344000
  0
ACAD_PROXY_OBJECT
  5
50
102
{ACAD_REACTORS
330
47
102
}
330
47
100
AcDbProxyObject
 90
      499
 91
      503
 93
      113
310
904313A333040000000000003E4000
  0
ACAD_PROXY_OBJECT
  5
51
102
{ACAD_REACTORS
330
47
102
}
330
47
100
AcDbProxyObject
 90
      499
 91
      503
 93
      113
310
904313A34304000000000000444000
  0
ACAD_PROXY_OBJECT
  5
52
102
{ACAD_REACTORS
330
47
102
}
330
47
100
AcDbProxyObject
 90
      499
 91
      503
 93
      113
310
904313A35304000000000000494000
  0
ACAD_PROXY_OBJECT
  5
53
102
{ACAD_REACTORS
330
47
102
}
330
47
100
AcDbProxyObject
 90
      499
 91
      503
 93
      121
310
905313A3130304000000000000594000
  0
ACAD_PROXY_OBJECT
  5
54
102
{ACAD_REACTORS
330
47
102
}
330
47
100
AcDbProxyObject
 90
      499
 91
      503
 93
      105
310
903323A310000000000000010100
  0
ACAD_PROXY_OBJECT
  5
55
102
{ACAD_REACTORS
330
47
102
}
330
47
100
AcDbProxyObject
 90
      499
 91
      503
 93
      105
310
903343A310000000000000410100
  0
ACAD_PROXY_OBJECT
  5
56
102
{ACAD_REACTORS
330
47
102
}
330
47
100
AcDbProxyObject
 90
      499
 91
      503
 93
      105
310
903383A310000000000000810100
  0
ACAD_PROXY_OBJECT
  5
57
102
{ACAD_REACTORS
330
47
102
}
330
47
100
AcDbProxyObject
 90
      499
 91
      503
 93
      113
310
90431303A310000000000000910100
  0
ACAD_PROXY_OBJECT
  5
58
102
{ACAD_REACTORS
330
47
102
}
330
47
100
AcDbProxyObject
 90
      499
 91
      503
 93
      121
310
9053130303A310000000000001650100
  0
ACAD_PROXY_OBJECT
  5
59
102
{ACAD_REACTORS
330
47
102
}
330
47
100
AcDbProxyObject
 90
      499
 91
      503
 93
      257
310
90E312F31323822203D2031272D3022000000000000200FC000000000000284000
  0
ACAD_PROXY_OBJECT
  5
5A
102
{ACAD_REACTORS
330
47
102
}
330
47
100
AcDbProxyObject
 90
      499
 91
      503
 93
      249
310
90D312F363422203D2031272D3022000000000000240FC000000000000284000
  0
ACAD_PROXY_OBJECT
  5
5B
102
{ACAD_REACTORS
330
47
102
}
330
47
100
AcDbProxyObject
 90
      499
 91
      503
 93
      249
310
90D312F333222203D2031272D3022000000000000280FC000000000000284000
  0
ACAD_PROXY_OBJECT
  5
5C
102
{ACAD_REACTORS
330
47
102
}
330
47
100
AcDbProxyObject
 90
      499
 91
      503
 93
      249
310
90D312F313622203D2031272D30220000000000002C0FC000000000000284000
  0
ACAD_PROXY_OBJECT
  5
5D
102
{ACAD_REACTORS
330
47
102
}
330
47
100
AcDbProxyObject
 90
      499
 91
      503
 93
      249
310
90D332F333222203D2031272D30220000000000002E0FC000000000000284000
  0
ACAD_PROXY_OBJECT
  5
5E
102
{ACAD_REACTORS
330
47
102
}
330
47
100
AcDbProxyObject
 90
      499
 91
      503
 93
      241
310
90C312F3822203D2031272D3022000000000000300FC000000000000284000
  0
ACAD_PROXY_OBJECT
  5
5F
102
{ACAD_REACTORS
330
47
102
}
330
47
100
AcDbProxyObject
 90
      499
 91
      503
 93
      249
310
90D332F313622203D2031272D3022000000000000320FC000000000000284000
  0
ACAD_PROXY_OBJECT
  5
60
102
{ACAD_REACTORS
330
47
102
}
330
47
100
AcDbProxyObject
 90
      499
 91
      503
 93
      241
310
90C312F3422203D2031272D3022000000000000340FC000000000000284000
  0
ACAD_PROXY_OBJECT
  5
61
102
{ACAD_REACTORS
330
47
102
}
330
47
100
AcDbProxyObject
 90
      499
 91
      503
 93
      241
310
90C332F3822203D2031272D3022000000000000360FC000000000000284000
  0
ACAD_PROXY_OBJECT
  5
62
102
{ACAD_REACTORS
330
47
102
}
330
47
100
AcDbProxyObject
 90
      499
 91
      503
 93
      241
310
90C312F3222203D2031272D3022000000000000380FC000000000000284000
  0
ACAD_PROXY_OBJECT
  5
63
102
{ACAD_REACTORS
330
47
102
}
330
47
100
AcDbProxyObject
 90
      499
 91
      503
 93
      241
310
90C332F3422203D2031272D30220000000000003A0FC000000000000284000
  0
ACAD_PROXY_OBJECT
  5
64
102
{ACAD_REACTORS
330
47
102
}
330
47
100
AcDbProxyObject
 90
      499
 91
      503
 93
      161
310
90A3122203D2031272D30224000000000000284000
  0
ACAD_PROXY_OBJECT
  5
65
102
{ACAD_REACTORS
330
47
102
}
330
47
100
AcDbProxyObject
 90
      499
 91
      503
 93
      257
310
90E312D312F3222203D2031272D30220000000000003E0FC000000000000284000
  0
ACAD_PROXY_OBJECT
  5
66
102
{ACAD_REACTORS
330
47
102
}
330
47
100
AcDbProxyObject
 90
      499
 91
      503
 93
      225
310
90A3322203D2031272D302200000000000002100000000000000284000
  0
ACAD_PROXY_OBJECT
  5
67
102
{ACAD_REACTORS
330
47
102
}
330
47
100
AcDbProxyObject
 90
      499
 91
      503
 93
      225
310
90A3622203D2031272D302200000000000006100000000000000284000
  0
ACAD_PROXY_OBJECT
  5
68
102
{ACAD_REACTORS
330
47
102
}
330
47
100
AcDbProxyObject
 90
      499
 91
      503
 93
      249
310
90D31272D3022203D2031272D30220000000000000A100000000000000284000
  0
ACAD_PROXY_OBJECT
  5
2F
102
{ACAD_REACTORS
330
2A
102
}
330
2A
100
AcDbProxyObject
 90
      499
 91
      501
 93
      436
310
42CC9915DA5C99599C985B595049028333333333333E33F0000000000000F90107901411070040501600405405064090741402480A0340
1001
ACAD
1000
AcDbSavedByObjectVersion
1070
     0
  0
ACAD_PROXY_OBJECT
  5
32
102
{ACAD_REACTORS
330
2A
102
}
330
2A
100
AcDbProxyObject
 90
      499
 91
      501
 93
      388
310
4150985CDA58D07406404333333333333E33F0000000000000F90107A41107004050150841D405064090741402480A0350
1001
ACAD
1000
AcDbSavedByObjectVersion
1070
     0
  0
ACAD_PROXY_OBJECT
  5
36
102
{ACAD_REACTORS
330
2A
102
}
330
2A
100
AcDbProxyObject
 90
      499
 91
      501
 93
      428
310
42109C9A59DA1D195B90C409028333333333333E33F0000000000000F9010790141107004050150841D405064090741402480A029950
1001
ACAD
1000
AcDbSavedByObjectVersion
1070
     0
  0
ACAD_PROXY_OBJECT
  5
3A
102
{ACAD_REACTORS
330
2A
102
}
330
2A
100
AcDbProxyObject
 90
      499
 91
      501
 93
      452
310
42D0DBDB1BDC90DA185B99D95104090240C333333333333E33F0000000000000F90108901411070040501508421405064090741402480A0350
1001
ACAD
1000
AcDbSavedByObjectVersion
1070
     0
  0
ACAD_PROXY_OBJECT
  5
34
102
{ACAD_REACTORS
330
2A
102
}
330
2A
100
AcDbProxyObject
 90
      499
 91
      501
 93
      500
310
4290DBDB98D95C1D1D585B10940D028333333333333E33F0000000000000F90107902409070040501000000000018199010841D405064090740C02480A0340
1001
ACAD
1000
AcDbSavedByObjectVersion
1070
     0
  0
ACAD_PROXY_OBJECT
  5
35
102
{ACAD_REACTORS
330
2A
102
}
330
2A
100
AcDbProxyObject
 90
      499
 91
      501
 93
      412
310
40D11A5B50B409028333333333333E33F0000000000000F9010790141107004050150841D405064090741402480A02677FFFFFD0
1001
ACAD
1000
AcDbSavedByObjectVersion
1070
     0
  0
ACAD_PROXY_OBJECT
  5
3D
102
{ACAD_REACTORS
330
2A
102
}
330
2A
100
AcDbProxyObject
 90
      499
 91
      501
 93
      452
310
43115919D950DBDB1BDC93D999916409028333333333333E33F0000000000000F9010790141107004050150841D405064090741402480A0350
1001
ACAD
1000
AcDbSavedByObjectVersion
1070
     0
  0
ACAD_PROXY_OBJECT
  5
39
102
{ACAD_REACTORS
330
2A
102
}
330
2A
100
AcDbProxyObject
 90
      499
 91
      501
 93
      444
310
42D19858D95C185D1D195C9B90F409028333333333333E33F0000000000000F9010790141107004050150841D405064090741402480A0350
1001
ACAD
1000
AcDbSavedByObjectVersion
1070
     0
  0
ACAD_PROXY_OBJECT
  5
2B
102
{ACAD_REACTORS
330
2A
102
}
330
2A
100
AcDbProxyObject
 90
      499
 91
      501
 93
      380
310
41119B185D240901404333333333333E33F0000000000000F9010740A907004050150841D405064090741402480A1B50
1001
ACAD
1000
AcDbSavedByObjectVersion
1070
     0
  0
ACAD_PROXY_OBJECT
  5
2C
102
{ACAD_REACTORS
330
2A
102
}
330
2A
100
AcDbProxyObject
 90
      499
 91
      501
 93
      468
310
43519B185D15DA5D1A115919D95CD0140901404333333333333E33F0000000000000F90107409019070040501600405405064090741402480A1B50
1001
ACAD
1000
AcDbSavedByObjectVersion
1070
     0
  0
ACAD_PROXY_OBJECT
  5
2D
102
{ACAD_REACTORS
330
2A
102
}
330
2A
100
AcDbProxyObject
 90
      499
 91
      501
 93
      404
310
41D1DBDD5C985D5910240902404333333333333E33F0000000000000F9010740A9070040501641D405064090741402480A1B50
1001
ACAD
1000
AcDbSavedByObjectVersion
1070
     0
  0
ACAD_PROXY_OBJECT
  5
2E
102
{ACAD_REACTORS
330
2A
102
}
330
2A
100
AcDbProxyObject
 90
      499
 91
      501
 93
      492
310
4411DBDD5C985D5915DA5D1A115919D95CD0340902404333333333333E33F0000000000000F90107409019070040501600405405064090741402480A1B50
1001
ACAD
1000
AcDbSavedByObjectVersion
1070
     0
  0
ACAD_PROXY_OBJECT
  5
31
102
{ACAD_REACTORS
330
2A
102
}
330
2A
100
AcDbProxyObject
 90
      499
 91
      501
 93
      476
310
41921A5919195B90640502408333333333333E33F0000000000000F901079024090700405020000000000001110200405405064090740C02480A0340
1001
ACAD
1000
AcDbSavedByObjectVersion
1070
     0
  0
ACAD_PROXY_OBJECT
  5
3B
102
{ACAD_REACTORS
330
2A
102
}
330
2A
100
AcDbProxyObject
 90
      499
 91
      501
 93
      428
310
42529A5D1D195C93D999914409028333333333333E33F0000000000000F9010790141107004050150A41D405064090741402480A0350
1001
ACAD
1000
AcDbSavedByObjectVersion
1070
     0
  0
ACAD_PROXY_OBJECT
  5
38
102
{ACAD_REACTORS
330
2A
102
}
330
2A
100
AcDbProxyObject
 90
      499
 91
      501
 93
      444
310
42D31A5B995C185D1D195C9B90E409028333333333333E33F0000000000000F9010790141107004050750841D405064090741402483A0350
1001
ACAD
1000
AcDbSavedByObjectVersion
1070
     0
  0
ACAD_PROXY_OBJECT
  5
3C
102
{ACAD_REACTORS
330
2A
102
}
330
2A
100
AcDbProxyObject
 90
      499
 91
      501
 93
      444
310
42D3DD995C9A185B99D3D999915409028333333333333E33F0000000000000F9010790141107004050150941D405064090741402480A0350
1001
ACAD
1000
AcDbSavedByObjectVersion
1070
     0
  0
ACAD_PROXY_OBJECT
  5
33
102
{ACAD_REACTORS
330
2A
102
}
330
2A
100
AcDbProxyObject
 90
      499
 91
      501
 93
      428
310
425499585B1A5CDD1A58D08409038333333333333E33F0000000000000F9010740A907004050150800405405064090740C02480A1B40
1001
ACAD
1000
AcDbSavedByObjectVersion
1070
     0
  0
ACAD_PROXY_OBJECT
  5
42
102
{ACAD_REACTORS
330
2A
102
}
330
2A
100
AcDbProxyObject
 90
      499
 91
      501
 93
      420
310
4194DA1859195911B40902404333333333333E33F0000000000000F9010740A41107004050150800405405064090840C02480A0B40
1001
ACAD
1000
AcDbSavedByObjectVersion
1070
     0
  0
ACAD_PROXY_OBJECT
  5
41
102
{ACAD_REACTORS
330
2A
102
}
330
2A
100
AcDbProxyObject
 90
      499
 91
      501
 93
      516
310
4454DA18591959081DDA5D1A08195919D95CD1A40902404333333333333E33F0000000000000F901074090142907004050250800405405064090740C02480A0B40
1001
ACAD
1000
AcDbSavedByObjectVersion
1070
     0
  0
ACAD_PROXY_OBJECT
  5
3E
102
{ACAD_REACTORS
330
2A
102
}
330
2A
100
AcDbProxyObject
 90
      499
 91
      501
 93
      532
310
4394DA1859195CC81BD98811DC985E5174090240C333333333333E33F0000000000000F901079024090741D01000000000000111010841D405064090740C02480A0340
1001
ACAD
1000
AcDbSavedByObjectVersion
1070
     0
  0
ACAD_PROXY_OBJECT
  5
3F
102
{ACAD_REACTORS
330
2A
102
}
330
2A
100
AcDbProxyObject
 90
      499
 91
      501
 93
      476
310
41D4DAD95D18DA1E51840502408333333333333E33F0000000000000F901079024090741D01000000000000111010B41D405064090741802480A0340
1001
ACAD
1000
AcDbSavedByObjectVersion
1070
     0
  0
ACAD_PROXY_OBJECT
  5
37
102
{ACAD_REACTORS
330
2A
102
}
330
2A
100
AcDbProxyObject
 90
      499
 91
      501
 93
      412
310
41D51A1A58DAD95B90D409028333333333333E33F0000000000000F9010790141107004050150C41D405064090741402480A0350
1001
ACAD
1000
AcDbSavedByObjectVersion
1070
     0
  0
ACAD_PROXY_OBJECT
  5
30
102
{ACAD_REACTORS
330
2A
102
}
330
2A
100
AcDbProxyObject
 90
      499
 91
      501
 93
      420
310
4255DA5C99599C985B595059028333333333333E33F0000000000000F90107901411070040501600405405064090740C02480A0340
1001
ACAD
1000
AcDbSavedByObjectVersion
1070
     0
  0
ACAD_PROXY_OBJECT
  5
40
102
{ACAD_REACTORS
330
2A
102
}
330
2A
100
AcDbProxyObject
 90
      499
 91
      501
 93
      404
310
41560B54985E51940902404000000000000E03F0000000000000F9010740501907004050150841D405064090740C02480A1B40
1001
ACAD
1000
AcDbSavedByObjectVersion
1070
     0
  0
XRECORD
  5
3B2
102
{ACAD_REACTORS
330
3A8
102
}
330
3A8
100
AcDbXrecord
340
0
  0
XRECORD
  5
3B1
102
{ACAD_REACTORS
330
3A8
102
}
330
3A8
100
AcDbXrecord
 90
        0
  0
XRECORD
  5
3C8
102
{ACAD_REACTORS
330
3A8
102
}
330
3A8
100
AcDbXrecord
1000
DSTYLE
1002
{
1070
   171
 70
     2
1070
   143
 40
25.4
1070
   274
 70
     2
1070
    41
 40
0.18
1070
   141
 40
0.09
1070
   271
 70
     4
1070
    43
 40
0.38
1070
   278
 70
    46
1070
    44
 40
0.18
1070
    42
 40
0.0625
1070
   147
 40
0.09
1070
    77
 70
     0
1070
   272
 70
     4
1070
    73
 70
     1
1070
   172
 70
     0
1070
    74
 70
     1
1070
   283
 70
     1
1070
   340
340
11
1070
   140
 40
0.18
1070
   284
 70
     0
1070
    78
 70
     0
1002
}
  0
XRECORD
  5
3B3
102
{ACAD_REACTORS
330
3A8
102
}
330
3A8
100
AcDbXrecord
  1
{109B833E-AFFC-4D5E-BF35-96EC0931B435}
  0
XRECORD
  5
3AB
102
{ACAD_REACTORS
330
3A8
102
}
330
3A8
100
AcDbXrecord
  1

  0
XRECORD
  5
3B0
102
{ACAD_REACTORS
330
3A8
102
}
330
3A8
100
AcDbXrecord
 90
        4
  0
XRECORD
  5
3AD
102
{ACAD_REACTORS
330
3A8
102
}
330
3A8
100
AcDbXrecord
340
1A
  0
XRECORD
  5
3AF
102
{ACAD_REACTORS
330
3A8
102
}
330
3A8
100
AcDbXrecord
 90
    10781
  0
XRECORD
  5
3AE
102
{ACAD_REACTORS
330
3A8
102
}
330
3A8
100
AcDbXrecord
340
19
  0
XRECORD
  5
3B5
102
{ACAD_REACTORS
330
3A8
102
}
330
3A8
100
AcDbXrecord
 40
0.0
  0
XRECORD
  5
3B8
102
{ACAD_REACTORS
330
3A8
102
}
330
3A8
100
AcDbXrecord
340
0
  0
XRECORD
  5
3BE
102
{ACAD_REACTORS
330
3A8
102
}
330
3A8
100
AcDbXrecord
 10
0.0
 20
0.0
 30
0.0
  0
XRECORD
  5
3BA
102
{ACAD_REACTORS
330
3A8
102
}
330
3A8
100
AcDbXrecord
 10
0.0
 20
0.0
 30
0.0
  0
XRECORD
  5
3BD
102
{ACAD_REACTORS
330
3A8
102
}
330
3A8
100
AcDbXrecord
 10
0.0
 20
0.0
 30
0.0
  0
XRECORD
  5
3BB
102
{ACAD_REACTORS
330
3A8
102
}
330
3A8
100
AcDbXrecord
 10
0.0
 20
0.0
 30
0.0
  0
XRECORD
  5
3BC
102
{ACAD_REACTORS
330
3A8
102
}
330
3A8
100
AcDbXrecord
 10
0.0
 20
0.0
 30
0.0
  0
XRECORD
  5
3B9
102
{ACAD_REACTORS
330
3A8
102
}
330
3A8
100
AcDbXrecord
 10
0.0
 20
0.0
 30
0.0
  0
XRECORD
  5
3B6
102
{ACAD_REACTORS
330
3A8
102
}
330
3A8
100
AcDbXrecord
340
0
  0
XRECORD
  5
3B7
102
{ACAD_REACTORS
330
3A8
102
}
330
3A8
100
AcDbXrecord
 70
     0
  0
XRECORD
  5
3AC
102
{ACAD_REACTORS
330
3A8
102
}
330
3A8
100
AcDbXrecord
  1

  0
XRECORD
  5
3A9
102
{ACAD_REACTORS
330
3A8
102
}
330
3A8
100
AcDbXrecord
 90
        1
  0
XRECORD
  5
3AA
102
{ACAD_REACTORS
330
3A8
102
}
330
3A8
100
AcDbXrecord
 90
       70
  0
XRECORD
  5
3C1
102
{ACAD_REACTORS
330
3A8
102
}
330
3A8
100
AcDbXrecord
340
0
  0
XRECORD
  5
3C7
102
{ACAD_REACTORS
330
3A8
102
}
330
3A8
100
AcDbXrecord
 10
0.0
 20
0.0
 30
0.0
  0
XRECORD
  5
3C3
102
{ACAD_REACTORS
330
3A8
102
}
330
3A8
100
AcDbXrecord
 10
0.0
 20
0.0
 30
0.0
  0
XRECORD
  5
3C6
102
{ACAD_REACTORS
330
3A8
102
}
330
3A8
100
AcDbXrecord
 10
0.0
 20
0.0
 30
0.0
  0
XRECORD
  5
3C4
102
{ACAD_REACTORS
330
3A8
102
}
330
3A8
100
AcDbXrecord
 10
0.0
 20
0.0
 30
0.0
  0
XRECORD
  5
3C5
102
{ACAD_REACTORS
330
3A8
102
}
330
3A8
100
AcDbXrecord
 10
0.0
 20
0.0
 30
0.0
  0
XRECORD
  5
3C2
102
{ACAD_REACTORS
330
3A8
102
}
330
3A8
100
AcDbXrecord
 10
0.0
 20
0.0
 30
0.0
  0
XRECORD
  5
3BF
102
{ACAD_REACTORS
330
3A8
102
}
330
3A8
100
AcDbXrecord
340
0
  0
XRECORD
  5
3C0
102
{ACAD_REACTORS
330
3A8
102
}
330
3A8
100
AcDbXrecord
 70
     0
  0
XRECORD
  5
3B4
102
{ACAD_REACTORS
330
3A8
102
}
330
3A8
100
AcDbXrecord
  1
{FAEB1C32-E019-11D5-929B-00C0DF256EC4}
  0
DICTIONARYVAR
  5
3D2
102
{ACAD_REACTORS
330
3C9
102
}
330
3C9
100
DictionaryVariables
280
     0
  1
1:1
  0
DICTIONARYVAR
  5
3CB
102
{ACAD_REACTORS
330
3C9
102
}
330
3C9
100
DictionaryVariables
280
     0
  1
Standard
  0
DICTIONARYVAR
  5
3CA
102
{ACAD_REACTORS
330
3C9
102
}
330
3C9
100
DictionaryVariables
280
     0
  1
Standard
  0
DICTIONARYVAR
  5
3CE
102
{ACAD_REACTORS
330
3C9
102
}
330
3C9
100
DictionaryVariables
280
     0
  1
2
  0
DICTIONARYVAR
  5
3CF
102
{ACAD_REACTORS
330
3C9
102
}
330
3C9
100
DictionaryVariables
280
     0
  1
1
  0
DICTIONARYVAR
  5
3D3
102
{ACAD_REACTORS
330
3C9
102
}
330
3C9
100
DictionaryVariables
280
     0
  1
1
  0
DICTIONARY
  5
3D6
330
45
100
AcDbDictionary
280
     1
  3
ACAD_XREC_ROUNDTRIP
360
3D7
  0
DICTIONARY
  5
3D4
330
44
100
AcDbDictionary
280
     1
  3
ACAD_XREC_ROUNDTRIP
360
3D5
  0
DICTIONARY
  5
3D8
330
46
100
AcDbDictionary
280
     1
  3
ACAD_XREC_ROUNDTRIP
360
3D9
  0
XRECORD
  5
3D7
102
{ACAD_REACTORS
330
3D6
102
}
330
3D6
100
AcDbXrecord
102
MATERIAL
148
0.0
149
0.0
149
0.0
 93
        0
 94
      127
282
     0
 72
     1
 77
     1
171
     1
175
     1
179
     1
273
     0
  0
XRECORD
  5
3D5
102
{ACAD_REACTORS
330
3D4
102
}
330
3D4
100
AcDbXrecord
102
MATERIAL
148
0.0
149
0.0
149
0.0
 93
        0
 94
      127
282
     0
 72
     1
 77
     1
171
     1
175
     1
179
     1
273
     0
  0
XRECORD
  5
3D9
102
{ACAD_REACTORS
330
3D8
102
}
330
3D8
100
AcDbXrecord
102
MATERIAL
148
0.0
149
0.0
149
0.0
 93
        0
 94
      127
282
     0
 72
     1
 77
     1
171
     1
175
     1
179
     1
273
     0
  0
ENDSEC
  0
EOF
